/* XPM */
static char *aiiiy_5m2tx[] = {
/* columns rows colors chars-per-pixel */
"65 65 155 2 ",
"   c #6C6633",
".  c #656C31",
"X  c #6C6B33",
"o  c #746735",
"O  c #786737",
"+  c #746936",
"@  c #786937",
"#  c #7C6C39",
"$  c #7D6C39",
"%  c #7E6C39",
"&  c #7E6D39",
"*  c #7D6C3A",
"=  c #7E6C3A",
"-  c #7F6C3A",
";  c #7F6D3A",
":  c #7F6D3B",
">  c #7B6A39",
",  c #627030",
"<  c #637030",
"1  c #637130",
"2  c #637330",
"3  c #657130",
"4  c #647031",
"5  c #657131",
"6  c #677031",
"7  c #647230",
"8  c #647330",
"9  c #647231",
"0  c #657231",
"q  c #647331",
"w  c #657331",
"e  c #667231",
"r  c #677231",
"t  c #667331",
"y  c #677132",
"u  c #627530",
"i  c #637431",
"p  c #637630",
"a  c #637631",
"s  c #647430",
"d  c #647431",
"f  c #657531",
"g  c #667531",
"h  c #647630",
"j  c #647631",
"k  c #657631",
"l  c #647731",
"z  c #657731",
"x  c #667631",
"c  c #677631",
"v  c #667731",
"b  c #677432",
"n  c #667632",
"m  c #677632",
"M  c #667531",
"N  c #687032",
"B  c #697032",
"V  c #697133",
"C  c #687232",
"Z  c #697232",
"A  c #687332",
"S  c #697332",
"D  c #6A7232",
"F  c #6A7332",
"G  c #6A7333",
"H  c #6E7033",
"J  c #687432",
"K  c #697432",
"L  c #687732",
"P  c #6E7034",
"I  c #6E7134",
"U  c #687232",
"Y  c #637931",
"T  c #657831",
"R  c #647931",
"E  c #657931",
"W  c #677831",
"Q  c #667931",
"!  c #647A31",
"~  c #657A31",
"^  c #657B31",
"/  c #657832",
"(  c #657932",
")  c #667832",
"_  c #677832",
"`  c #667932",
"'  c #677932",
"]  c #647A32",
"[  c #657A32",
"{  c #657B32",
"}  c #657B33",
"|  c #667A32",
" . c #677A32",
".. c #667B32",
"X. c #677B32",
"o. c #667C31",
"O. c #667C32",
"+. c #677C32",
"@. c #677D32",
"#. c #667C33",
"$. c #677C33",
"%. c #677D33",
"&. c #677C32",
"*. c #687932",
"=. c #687A32",
"-. c #687B32",
";. c #687C32",
":. c #687D32",
">. c #687D33",
",. c #6A7D33",
"<. c #687E32",
"1. c #697E32",
"2. c #687F32",
"3. c #697F32",
"4. c #687E33",
"5. c #697E33",
"6. c #697F33",
"7. c #6A7F32",
"8. c #6A7F33",
"9. c #697F34",
"0. c #6A7F34",
"q. c #697F33",
"w. c #806D3A",
"e. c #806D3B",
"r. c #806E3A",
"t. c #806E3B",
"y. c #816E3B",
"u. c #816F3B",
"i. c #826F3B",
"p. c #826F3C",
"a. c #82703C",
"s. c #83703C",
"d. c #84703C",
"f. c #85723D",
"g. c #6A8032",
"h. c #6A8033",
"j. c #6B8033",
"k. c #6B8133",
"l. c #6C8133",
"z. c #6C8233",
"x. c #6D8233",
"c. c #6D8333",
"v. c #6E8333",
"b. c #6A8034",
"n. c #6B8034",
"m. c #6B8134",
"M. c #6C8134",
"N. c #6C8234",
"B. c #6D8234",
"V. c #6D8334",
"C. c #6E8334",
"Z. c #6E8434",
"A. c #6F8434",
"S. c #6B8133",
"D. c #708534",
/* pixels */
"6.6.6.#.0.#.6.#.6.h.h.6.6.6.h.6.#.#.6.#.#.#.6.h.#.6.#.#.b.b.b.6.#.B.B.6.6.[ 6.[ #.#.#.6.0.6.6.#.6.#.#.0.6.#.#.#.6.h.#.6.6.6.h.b.h.",
"6.6.b.6.b.b.6.6.#.#.#.6.6.6.6.h.6.b.h.6.6.6.6.z.h.6.6.#.f f 6.[ [ [ #.[ b.6.6.0.#.#.#.[ 6.6.6.#.6.6.6.B.b.6.6.6.6.B.h.6.6.#.#.6.6.",
"h.h.0.6.b.0.6.6.#.#.#.h.6.6.6.h.6.#.#.6.6.6.6.B.h.6.6.[ X       X . . X f #.6.6.6.6.#.[ 6.h.6.6.6.6.6.#.#.h.6.6.h.B.h.6.6.6.#.6.h.",
"6.#.6.6.#.6.B.B.#.#.h.6.6.h.6.6.6.#.#.6.[ 6.h.6.#.6.6.[ X o O O * * O O X 6.#.#.B.B.#.6.6.#.6.h.6.6.6.6.6.6.[ h.b.6.#.h.h.6.6.h.6.",
"#.6.6.h.6.6.6.6.6.6.6.6.6.#.#.#.h.h.#.[ [ #.6.#.[ 6.#..   O y.O * y.% o X [ #.[ #.6.6.6.6.6.#.#.#.6.h.6.#.#.#.6.6.[ #.6.6.6.6.h.6.",
"B.6.6.6.6.h.6.#.6.#.6.h.6.6.6.#.#.[ b.h.h.6.#.6.B.b.6.L X O % y.y.% O X [ #.[ 6.#.#.6.[ 6.h.6.6.6.6.#.[ h.6.h.6.6.6.B.B.6.6.#.h.h.",
"6.6.B.6.[ 6.6.6.b.6.6.6.6.h.b.6.6.6.B.6.h.z.#.6.h.[ #.h.*.D + O % o X [ 6.#.[ 6.#.6.6.6.6.6.6.z.z.6.6.6.6.#.h.h.#.6.6.#.6.B.h.6.#.",
"6.6.6.6.6.6.6.6.6.6.h.6.6.6.6.h.6.#.6.6.#.#.6.B.6.Y [ h.6.#.f X + X f #.#.#.#.6.6.h.#.6.h.h.6.6.6.B.6.6.#.#.#.#.h.B.#.Y [ h.6.6.6.",
"6.6.#.6.6.#.6.#.h.6.#.#.6.h.h.6.h.#.#.h.6.[ 6.h.6.6.6.6.6.#.[ [ [ f [ 6.#.#.6.#.#.6.b.#.#.6.6.6.h.b.z.6.6.h.#.#.6.B.6.#.6.6.6.#.6.",
"h.h.6.#.6.6.#.#.6.6.#.[ [ [ f . D [ [ 6.B.6.6.#.6.6.#.h.6.6.6.6.h.#.#.h.6.6.h.6.#.[ 6.6.#.h.h.6.b.6.h.6.6.h.z.6.6.#.6.6.#.B.6.6.6.",
"#.#.#.6.6.#.6.6.6.b.6.r     + O o X . 6.6.6.h.6.6.6.h.h.6.6.6.h.6.6.6.6.6.6.6.#.6.6.6.6.6.6.6.6.6.6.#.#.h.h.6.6.h.6.6.6.h.b.6.6.b.",
"6.6.h.h.#.6.h.6.6.6.6.r o * * y.* %   [ 6.B.z.h.z.b.#.6.z.h.h.6.B.B.h.h.h.6.6.6.h.6.#.6.6.h.6.#.6.B.h.6.h.6.h.h.z.h.z.h.#.6.B.h.6.",
"#.6.6.#.#.6.6.[ h.B.6.[ D X O y.* % o X [ h.6.6.6.h.6.6.h.#.#.#.h.6.#.6.6.6.6.h.h.#.6.h.6.h.h.6.#.6.B.6.#.6.h.6.6.6.h.h.6.6.h.6.#.",
"6.#.6.6.6.#.#.6.h.6.6.6.#.r + O * % O   f 6.6.h.6.6.#.#.6.#.6.6.6.6.h.6.#.h.6.#.6.6.6.#.#.6.h.B.B.h.6.h.6.6.#.6.6.h.h.6.6.6.6.#.6.",
"6.6.6.6.#.[ 6.6.h.B.z.6.[ u f D o @ X f [ 6.h.6.#.6.#.#.6.6.h.6.[ #.h.h.h.h.b.b.B.h.h.h.6.#.6.B.6.6.h.#.6.h.6.h.h.6.6.h.6.#.6.6.6.",
"h.6.6.6.#.h.h.6.h.h.h.z.6.#.6.[ D X u [ 6.6.#.6.h.#.#.h.6.6.6.h.B.h.6.h.A.b.6.6.z.h.6.6.z.z.6.h.h.B.B.B.h.h.h.6.6.h.h.#.6.z.6.6.6.",
"6.6.h.6.#.6.#.#.h.B.z.h.6.6.6.h.#.[ #.6.6.#.6.z.h.#.h.#.[ #.6.6.B.B.h.6.6.6.6.6.h.#.#.h.h.6.6.6.B.h.6.6.6.6.6.6.h.z.h.#.h.#.#.6.6.",
"6.h.B.6.h.h.6.h.6.6.6.h.6.z.z.#.6.6.h.B.6.#.h.z.h.h.h.6.h.6.6.h.A.h.B.h.6.b.B.z.6.b.6.6.6.6.[ [ f [ [ 6.#.6.6.#.h.B.z.h.h.h.z.h.6.",
"B.6.#.#.#.6.6.[ #.h.6.h.h.6.#.6.b.h.6.h.6.6.#.6.6.z.h.6.h.6.6.B.B.B.B.6.b.6.6.h.#.#.6.6.u .   X X     r r 6.h.6.#.6.h.z.h.6.z.h.#.",
"B.6.6.h.6.6.6.6.6.#.6.h.6.#.#.h.6.[ #.6.h.6.6.6.#.z.h.h.h.6.h.6.#.6.b.6.6.b.6.h.6.6.6.. X o * * % O % o   [ 6.h.6.6.#.h.h.h.h.h.h.",
"b.h.6.6.6.h.6.6.6.z.z.6.6.6.h.6.6.#.6.h.6.#.6.h.h.6.6.6.z.6.6.h.6.b.B.B.6.6.6.h.6.6.[ . o * * y.a.* * O   < [ 6.6.6.h.6.6.h.h.6.h.",
"6.h.B.6.6.6.#.#.h.z.h.6.#.6.h.6.h.6.#.[ 6.h.z.h.6.h.z.z.6.h.h.z.B.6.B.B.B.h.#.6.B.h.6.f I X @ * y.y.O + D f Y 6.z.h.6.z.B.h.6.6.6.",
"6.h.h.6.6.z.h.6.6.#.#.h.h.h.h.6.6.#.#.#.h.6.6.6.6.6.6.6.#.h.B.B.6.6.h.6.6.6.h.h.6.#.6.h.[ r o y.y.y.O o r 6.h.h.#.6.6.6.6.6.#.6.#.",
"h.#.#.6.h.B.h.h.h.6.6.6.6.6.#.6.z.6.h.h.#.[ [ 6.6.6.6.z.h.6.6.h.B.6.6.6.6.6.h.z.6.#.6.6.[ r   o % O X D f [ #.6.6.6.6.6.6.B.h.6.6.",
"h.6.6.h.z.h.z.6.6.h.6.h.6.6.6.h.h.h.6.#.6.h.h.6.#.6.6.6.6.6.6.6.h.6.6.6.h.h.B.6.6.h.6.6.6.[ *.L X D *.6.h.6.6.6.h.6.#.6.6.6.#.6.h.",
"6.6.6.z.h.6.b.B.6.6.h.6.z.h.6.h.6.6.h.6.6.6.h.6.#.6.6.z.z.6.6.6.6.6.6.h.6.#.6.6.6.h.h.h.z.6.h.6.*.6.B.B.6.6.6.6.h.6.#.6.6.B.B.h.6.",
"6.6.6.6.h.6.#.6.6.6.h.h.h.B.B.6.6.#.h.h.#.6.z.6.z.h.6.6.[ 6.h.6.#.h.6.6.h.h.#.#.#.6.6.6.6.6.[ 6.6.6.z.h.6.6.h.6.h.6.z.h.6.6.#.6.h.",
"B.h.6.z.6.#.6.6.6.#.#.z.h.h.z.b.#.#.#.6.6.h.h.6.z.6.h.6.h.h.6.#.h.6.#.6.6.6.#.h.6.#.#.6.B.h.6.#.6.6.#.#.6.6.#.h.6.6.z.6.6.6.6.h.h.",
"#.h.B.6.6.6.6.6.6.6.b.z.6.6.6.h.B.B.6.[ #.6.6.h.6.6.6.h.h.6.#.6.6.6.6.B.#.6.6.h.6.6.#.6.6.6.#.#.6.6.h.z.6.#.6.6.6.h.6.6.6.h.z.[ #.",
"B.B.B.h.6.h.6.6.B.A.B.h.h.6.z.B.z.6.6.6.#.6.z.#.#.6.6.#.6.h.h.6.#.h.h.h.[ 6.h.6.6.h.h.6.6.z.h.6.#.#.h.6.6.h.6.6.h.#.#.#.#.#.6.h.h.",
"h.6.6.h.h.6.h.B.6.6.h.h.h.6.6.h.h.6.h.6.6.h.6.6.h.h.h.h.h.6.6.6.6.6.#.#.6.h.h.6.6.#.6.z.h.h.6.6.z.h.6.6.h.h.6.#.6.6.h.6.6.z.h.6.6.",
"b.b.6.6.h.6.6.h.6.6.6.6.6.h.z.6.z.h.6.6.6.h.6.6.6.6.h.h.#.#.h.h.#.6.h.6.#.#.6.6.6.6.h.6.#.h.h.h.6.6.6.6.h.6.h.6.6.6.6.6.h.z.6.6.6.",
"h.B.6.6.z.6.6.6.h.z.6.6.6.6.z.6.6.h.6.h.h.6.h.h.6.h.6.6.h.6.6.6.6.h.6.6.6.6.6.#.6.6.6.6.6.6.6.6.6.6.6.h.h.6.h.6.z.h.#.6.6.h.z.6.6.",
"h.h.h.6.h.6.6.6.6.6.h.h.6.6.h.h.6.z.z.6.6.#.6.h.6.6.6.#.6.6.h.#.[ 6.6.#.6.[ #.6.#.#.#.6.6.6.6.z.h.6.6.z.6.#.6.6.6.z.6.6.6.6.6.h.h.",
"6.h.z.6.h.z.6.6.#.[ #.6.h.h.6.h.6.z.h.6.h.6.#.h.h.6.6.6.[ #.6.6.#.[ #.6.6.#.#.#.#.6.#.#.#.6.6.h.6.6.6.h.6.6.h.6.6.z.h.6.6.#.[ #.6.",
"h.#.6.6.6.h.z.z.#.#.h.h.6.z.h.h.6.[ #.h.6.6.h.z.6.6.h.6.6.6.h.6.#.6.h.#.#.#.#.6.h.6.[ 6.h.h.#.[ 6.6.6.#.#.h.6.z.z.z.6.h.h.6.6.h.h.",
"6.6.h.z.6.6.h.B.6.h.h.6.6.h.6.6.h.h.#.[ Y 6.h.#.[ 6.6.6.h.h.6.[ 6.h.6.6.6.h.6.6.6.6.#.h.h.#.6.6.6.6.h.h.#.#.[ h.h.#.[ 6.6.6.h.h.#.",
"h.6.6.6.6.6.6.#.6.#.6.h.6.6.6.6.6.#.6.6.6.#.#.#.6.h.6.6.#.h.z.6.6.6.#.#.#.6.6.6.6.h.6.#.6.6.6.6.#.#.6.#.6.6.h.#.#.6.6.h.6.6.#.h.h.",
"z.6.h.h.6.h.6.6.z.6.h.h.h.z.z.6.#.6.z.6.z.z.6.6.z.z.6.h.6.h.6.6.#.6.6.6.h.6.#.6.6.6.h.6.h.6.6.z.z.6.#.6.h.6.z.z.6.6.z.z.h.z.h.6.6.",
"6.6.h.6.6.h.6.h.6.h.h.6.h.z.z.z.6.h.6.6.h.6.6.h.#.[ #.h.z.6.6.6.6.6.#.6.h.6.6.6.6.h.6.6.h.h.6.6.h.h.6.6.6.6.6.6.6.h.6.[ #.z.z.6.6.",
"6.h.6.6.6.6.6.h.h.h.h.h.6.6.6.B.h.#.6.h.#.[ 6.z.h.6.h.h.6.6.h.h.h.6.6.6.6.#.6.#.#.6.6.6.6.6.6.#.6.z.h.6.#.6.[ #.h.A.h.6.6.h.6.6.z.",
"h.h.6.6.h.6.6.6.B.6.#.h.z.A.h.6.z.6.h.z.h.#.6.6.6.6.6.6.6.#.6.6.6.h.6.6.6.6.h.6.6.6.6.#.6.h.6.#.#.6.h.6.6.z.6.6.h.6.6.6.6.h.6.#.6.",
"h.z.6.6.h.6.6.#.h.z.6.h.6.#.h.h.6.6.6.h.z.6.h.h.6.6.6.z.h.h.h.h.6.6.#.6.6.6.h.6.6.#.6.6.h.z.h.#.#.6.h.h.h.h.h.6.h.6.6.6.6.z.6.6.h.",
"z.6.6.h.6.#.h.B.6.6.h.z.h.h.z.z.h.6.6.h.6.h.z.z.z.h.6.6.h.h.6.h.h.#.6.h.6.h.6.#.6.h.6.[ [ 6.[ . r 6.h.6.6.6.6.h.z.h.h.h.6.6.h.6.h.",
"6.6.h.6.6.h.h.6.h.z.h.h.6.6.h.6.z.z.h.6.z.z.h.h.z.z.6.6.z.6.6.#.B.B.6.B.h.#.6.h.z.6.[ .     + o + X D . r 6.h.h.h.h.h.h.#.6.h.6.6.",
"z.h.z.z.h.h.h.h.B.h.6.z.z.z.h.h.B.h.6.6.z.6.6.h.h.h.6.6.6.6.z.6.6.h.h.h.6.6.h.6.h.6.#.. o % y.y.y.@ o   r 6.z.h.6.6.6.6.6.6.6.6.z.",
"h.6.h.B.h.6.h.z.h.z.h.6.6.A.z.6.z.6.h.h.6.h.z.z.h.h.h.6.6.#.6.z.h.6.6.#.h.z.h.6.[ < . . o * a.y.a.y.o r #.h.6.6.h.h.6.h.6.6.h.#.6.",
"B.h.h.h.z.z.z.z.z.z.z.z.6.6.6.z.B.6.h.B.h.h.h.h.z.6.#.6.h.6.h.6.#.6.h.z.h.6.6.6.u X o o O a.y.y.y.a.*   f 6.6.6.6.6.h.6.6.h.h.6.h.",
"6.h.A.h.6.6.z.6.6.h.z.z.h.6.6.B.B.z.h.6.z.h.6.z.z.6.h.h.#.6.6.6.6.6.#.#.h.6.6.B.6.r + o O y.y.y.a.% O @   f #.6.6.z.h.6.z.6.#.6.6.",
"6.z.h.6.A.z.h.h.h.6.6.6.h.h.[ f 6.6.6.h.#.#.z.v.h.6.h.6.h.h.z.z.B.h.6.h.z.#.6.b.6.[ f L X @ * * y.y.% * o . 6.h.h.v.h.6.h.6.6.h.h.",
"h.B.h.6.h.h.h.h.h.[ . . . r X   X . f 6.z.6.6.h.h.z.h.h.h.h.6.A.z.6.h.z.z.6.#.6.h.h.#.[ . o % @ O * @ + X r [ #.6.h.h.z.h.6.h.h.6.",
"h.h.h.B.6.h.6.6.6.<   @ o o * % o o r 6.z.6.6.h.6.z.z.6.z.z.h.h.6.6.z.h.6.h.6.h.6.h.h.#.[ D H X + o   f [ #.h.6.h.6.6.z.h.h.z.z.6.",
"6.h.z.B.h.6.h.#.r . + y.* y.f.a.* O X r f 6.6.6.6.h.h.h.z.h.B.B.h.6.h.h.6.h.6.6.6.h.z.z.h.[ [ [ f [ [ [ #.6.h.6.6.6.6.h.h.h.h.h.z.",
"6.h.6.#.6.h.6.f   o * * * y.y.* y.* O o r #.6.z.z.h.h.z.z.z.z.B.6.h.h.z.A.6.h.z.6.[ 6.z.z.6.6.h.h.6.6.6.z.6.h.h.h.h.z.h.h.h.z.h.h.",
"#.6.B.z.6.6.6.[ D + O * y.y.y.* y.y.% o f 6.z.h.h.h.h.6.[ h.h.z.h.6.6.z.B.z.z.h.6.6.6.6.6.6.6.6.6.6.z.h.6.6.h.h.h.6.6.h.h.6.[ 6.h.",
"h.6.h.6.h.B.6.6.6.f + * y.y.f.f.y.+ X X r #.#.6.6.#.6.h.6.6.#.#.h.h.6.#.6.6.6.h.h.#.[ #.6.6.z.6.6.6.6.#.6.h.6.#.#.6.6.6.6.h.6.6.6.",
"h.6.#.6.z.h.6.6.h.[ X @ O * y.* o D 6.[ 6.h.6.h.6.h.6.h.6.6.6.h.6.#.6.6.z.h.h.h.6.h.h.6.6.6.6.6.6.h.z.z.h.h.6.6.6.h.6.h.6.6.6.6.6.",
"6.6.B.z.6.6.h.h.6.[ X +   I + @ X f #.6.6.h.h.#.#.6.6.z.h.6.6.6.6.6.h.h.h.6.h.z.h.z.6.6.h.6.6.h.6.h.6.6.#.#.6.6.h.6.#.6.6.h.6.6.6.",
"6.6.6.z.6.h.h.h.h.h.z.*.[ 6.f D *.6.h.6.#.6.z.6.h.z.h.h.h.6.6.h.z.6.6.6.h.h.6.z.6.6.h.6.h.h.z.z.h.6.6.6.h.h.6.6.h.6.6.h.6.h.h.6.6.",
"B.6.6.z.6.6.6.6.6.h.h.6.#.h.h.#.6.6.6.6.6.z.h.h.v.h.h.6.#.h.z.h.h.6.z.6.6.6.[ 6.h.6.h.6.6.h.6.z.z.6.#.6.6.z.6.h.h.6.z.h.h.6.[ h.z.",
"6.h.z.6.6.h.h.6.6.h.6.6.6.z.z.6.#.6.6.6.h.h.6.h.h.6.h.h.z.#.6.6.h.6.6.h.h.6.6.h.6.#.6.6.6.h.h.6.6.h.h.z.h.6.6.6.6.h.6.6.6.h.z.#.6.",
"6.z.6.6.z.z.h.6.6.h.6.h.6.h.z.z.z.6.#.#.6.6.h.6.6.6.h.6.6.#.#.h.6.6.h.z.z.6.6.6.[ 6.h.6.B.h.6.6.h.h.D.h.6.#.#.h.h.6.6.6.h.6.h.6.6.",
"h.6.6.h.B.h.h.h.h.B.B.B.h.6.6.z.z.6.z.z.6.6.6.6.6.6.#.#.6.6.6.h.#.6.h.6.6.z.z.6.6.6.z.h.h.h.h.6.6.z.6.6.B.h.#.6.6.#.6.6.6.6.h.6.6.",
"h.6.6.h.h.B.h.#.6.h.h.z.z.h.z.6.h.z.z.h.h.6.6.6.h.6.h.z.6.#.6.h.6.6.h.6.6.6.6.6.h.z.6.#.h.h.h.h.z.h.z.6.h.#.6.z.6.6.h.6.h.z.6.#.6.",
"z.B.h.6.h.z.z.h.6.6.6.6.h.z.6.6.6.6.h.h.h.6.h.6.6.6.6.h.6.6.6.6.6.#.6.z.h.6.6.6.6.6.h.z.6.6.6.6.h.#.h.6.6.h.h.h.h.6.h.6.6.6.6.6.6."
};
