/* XPM */
static char *ac265_ht7qz[] = {
/* columns rows colors chars-per-pixel */
"40 40 32 1 ",
"  c #000000",
". c #010101",
"X c #020202",
"o c #030303",
"O c #040404",
"+ c #050505",
"@ c #060606",
"# c #070707",
"$ c #080808",
"% c #090909",
"& c #0A0A0A",
"* c #0B0B0B",
"= c #0C0C0C",
"- c #0D0D0D",
"; c #0E0E0E",
": c #0F0F0F",
"> c #101010",
", c #111111",
"< c #121212",
"1 c #131313",
"2 c #141414",
"3 c #161616",
"4 c #171717",
"5 c #181818",
"6 c #191919",
"7 c #1A1A1A",
"8 c #1B1B1B",
"9 c #1D1D1D",
"0 c #202020",
"q c #232323",
"w c #252525",
"e c #262626",
/* pixels */
"...OOOO...O....O....OO..................",
"......O.......OO....OO.................O",
"OO.....OOO...O;O...O......OO..........OO",
"OO......OO.O.O$....O......OOOO.......OOO",
"O........OOO..O....O......OOOO.......O$$",
"..........O....;$OOOO......O.........OO$",
"....OO....O.O$$8,;$.OO...............OOO",
"............O$;93,$.OO..................",
".............O;,;$O.O...................",
"O........OOO..$.....O.............O.....",
"OOOOO....$OOOO......O...................",
"..O$$O...OOOOO..........................",
"...O$O......OO...............O..........",
"...OO....O..OOO..............O..........",
"O.......O$OOOOOO........................",
"$O......$$OOOOOO......O.................",
"O..OOOO.OOOOOOO.......O....O............",
"...O$$O...OOOOO.......O...$$O...........",
"O..OOOO....OOO...OOO.....O;;$...........",
"OO..............OO$$.....$,,$...........",
"O.....OOO$.....OOOOO......OOO...........",
"OOO...OOOO..............................",
"OOO.....OOO.........OOO.................",
"OO.........OOO.....OOOOO................",
"............OOO...OOOOO.................",
"........OO..........OO..................",
".....OOOOOOO..OOOOO.....................",
"....OOOOOO,,$OOO$OOO....................",
"..OOOOOO.$qq3$OO$$O........OOO..........",
".OOOO$OO.Oeq3$..OO........OOOO..........",
"...O$,,;O.$OOOO...OO.......OOO..........",
"$OO.O$;$O.OOOO..O$$......OOOOO..........",
";$O...OOOOOO$O..,8,......OOOOO..........",
"$OO.....O..O$O.O8e8......OOOOO..........",
"...OOO.....O$O.O3q8O......OOOO..........",
"...OOO....OOOO..O$$.....................",
"...O......O..OO.........................",
"OO...........OO...OO....................",
"O............OO..O$O....................",
"......OOO....OO..OO....................."
};
