/* XPM */
static char *_fb43ba601224ad196887cb2dcd8cdae[] = {
/* columns rows colors chars-per-pixel */
"64 64 5 1 ",
"  c #151515",
". c #161616",
"X c gray9",
"o c #181818",
"O c #191919",
/* pixels */
"...........oooooooo.............................oooooooo.ooooooo",
".............oooooo.....................o....ooooooooooooooooooo",
"..............ooooo....................oooooooooooooooooooooooo.",
"..............ooooo...................ooooooo.....oooooooooooo..",
"...........oooooooo...................oooooo.......oooooooooooo.",
"...........oooooooo....................oooooooo....oooooooooo...",
"............ooooooo......................ooooooo.....oooooooo...",
"..............ooooo........................oooo.ooo.....ooooo...",
"..............oooo.........................ooooooooooooooooo....",
"..............oooo..........................oooooooooooooooo....",
"........oo..oooooo............................oooooooooooooo....",
".......ooooooooooo.....................o.......ooooooooooooo....",
"......oooooooooooo.....................ooo......oooooooooooo....",
"......oooooooooooo......................oo......oooooooooooo....",
"......oooooooooooo...........................ooooooooooooooo....",
"......ooooooo...oo.........................ooooooooooooooooo....",
"......oooooooooooo............................oooooooooooo......",
"......oooooooooooo............................oooooooooooo......",
"...ooooooooooooooo............................oooooooooooo......",
"..ooooooooooooooo.............................oooooooooooo......",
"oooooooooooooooo...............................oooooooooo.......",
"oooooooooooooooo...............................oooooooooo.......",
"oooooooooooooooo...............................ooooooooo........",
"oooooooooooooooo...............................ooooooooo........",
"oooooooooooooo..................................oooooooo...o....",
"oooooooooooooo..................................oooooooo...o....",
"oooooooooooooo..................................oooooooo........",
"oooooooooooooo..................................oooooooo........",
"oooooooooooooo..................................oooooooo........",
"oooooooooooooo..................................oooooooo........",
"oooooooooooooo..................................oooooooo........",
"oooooooooooooo..................................oooooooo....oooo",
"oooooooooooo......................................ooooooo.......",
"oooooooooooo......................................oooooo........",
"oooooooooooo......................................oooooo.......o",
"oooooooooooo......................................oooooo.oo....o",
"oooooooooooo......................................oooooo..o....o",
"oooooooooooo......................................oooooo.......o",
"oooooooooooo......................................oooooo........",
"oooooooooooo......................................oooooo........",
"oooooooooooo......................................ooooo.........",
"oooooooooooo......................................ooooo.........",
"oooooooooooo......................................oooo..........",
"oooooooooooo......................................oooo..........",
"oooooooooooo......................................oooo..........",
"oooooooooooo....................................ooooo...........",
"oooooooooooo....................................oooo............",
"oooooooooooo....................................ooo.............",
"oooooooooooo....................................oo..............",
"oooooooooooo....................................oo..............",
"oooooooooooo....................................oo..............",
"ooooooooooooo................................ooooo..............",
"oooooooooooooooo...........................oooooo...............",
"oooooooooooooooo................ooooooooooooooooo...............",
"oooooooooooooooooo....ooooooooooooooooooooooooooo...............",
"ooooooooooooooooooooooooooooooooooooooooooooooooo...............",
"oooooooooooooooooooooooooooooooooooooooooooooooooo..............",
"oooooooooooooooooooooooooooooooooooooooooooooooooo..............",
"oooooooooooooooooooooooooooooooooooooooooooooooooo..............",
"oooooooooooooooooooooooooooooooooooooooooooooooooo..............",
"oooooooooooooooooooooooooooooooooooooooooooooooooo..............",
"oooooooooooooooooooooooooooooooooooooooooooooooooo..............",
"oooooooooooooooooooooooooooooooooooooooooooooooooo..............",
"oooooooooooooooooooooooooooooooooooooooooooooooooo.............."
};
