/* XPM */
static char *a53uo_g99e5[] = {
/* columns rows colors chars-per-pixel */
"40 40 198 2 ",
"   c None",
".  c #190F03",
"X  c #120E0B",
"o  c #130D05",
"O  c #1A1004",
"+  c #14100D",
"@  c #1A120B",
"#  c #120F15",
"$  c #1C0F16",
"%  c #141114",
"&  c #1B1613",
"*  c #1D1916",
"=  c #1D1A1C",
"-  c #0F0C13",
";  c #24120D",
":  c #251212",
">  c #211B17",
",  c #2C2215",
"<  c #2D2018",
"1  c #3B2714",
"2  c #3B2B1B",
"3  c #35261B",
"4  c #1E1C23",
"5  c #251E24",
"6  c #301F20",
"7  c #1F2021",
"8  c #232426",
"9  c #2B2B2D",
"0  c #2B2628",
"q  c #3D2D23",
"w  c #352D2C",
"e  c #382826",
"r  c #3C3029",
"t  c #362E35",
"y  c #353333",
"u  c #3A3236",
"i  c #353439",
"p  c #3E363A",
"a  c #3D3D3E",
"s  c #2F2933",
"d  c #4D2C0C",
"f  c #522E0B",
"g  c #4D310E",
"h  c #55330C",
"j  c #59340B",
"k  c #5D3B0B",
"l  c #5B390A",
"z  c #442B13",
"x  c #4C2E11",
"c  c #432816",
"v  c #4D3212",
"b  c #4B351A",
"n  c #46301B",
"m  c #523412",
"M  c #553915",
"N  c #5C3C11",
"B  c #533A1B",
"V  c #5C3F1A",
"C  c #522F11",
"Z  c #633D06",
"A  c #613D0B",
"S  c #613F10",
"D  c #453223",
"F  c #483629",
"G  c #513E2D",
"H  c #553D25",
"J  c #4A3A33",
"K  c #423C3C",
"L  c #483D3A",
"P  c #5E421F",
"I  c #674006",
"U  c #65410C",
"Y  c #6A450C",
"T  c #6E480D",
"R  c #704B0F",
"E  c #654212",
"W  c #6A4613",
"Q  c #6D4A14",
"!  c #654519",
"~  c #6C4A1A",
"^  c #724D14",
"/  c #714E19",
"(  c #765016",
")  c #76521C",
"_  c #79541C",
"`  c #49413A",
"'  c #564535",
"]  c #594836",
"[  c #6C4C23",
"{  c #644928",
"}  c #704F21",
"|  c #745325",
" . c #7A5622",
".. c #7D5925",
"X. c #74542D",
"o. c #78572B",
"O. c #7C5A2C",
"+. c #785733",
"@. c #7C5B33",
"#. c #7D5D3B",
"$. c #735637",
"%. c #694F31",
"&. c #7F613C",
"*. c #3D3A45",
"=. c #413E48",
"-. c #444344",
";. c #4A4444",
":. c #45444C",
">. c #4A464B",
",. c #4B494D",
"<. c #4E4847",
"1. c #524B49",
"2. c #58514A",
"3. c #474550",
"4. c #4D4C54",
"5. c #4C4752",
"6. c #514F57",
"7. c #4E5254",
"8. c #525255",
"9. c #55535A",
"0. c #57595B",
"q. c #5B5B5C",
"w. c #5C5555",
"e. c #675A48",
"r. c #745942",
"t. c #695E57",
"y. c #786145",
"u. c #766955",
"i. c #7B715E",
"p. c #5C5D61",
"a. c #615E64",
"s. c #5D6363",
"d. c #616364",
"f. c #616867",
"g. c #646569",
"h. c #646C6A",
"j. c #6A6B6D",
"k. c #69656E",
"l. c #66726C",
"z. c #6A726E",
"x. c #6D6C71",
"c. c #716D74",
"v. c #6D7371",
"b. c #6D7B74",
"n. c #727375",
"m. c #717C76",
"M. c #747578",
"N. c #767B79",
"B. c #7A7B7B",
"V. c #797779",
"C. c #7A6F66",
"Z. c #815D2B",
"A. c #805F33",
"S. c #815F3A",
"D. c #85612E",
"F. c #846234",
"G. c #896635",
"H. c #84633A",
"J. c #89673B",
"K. c #8C693B",
"L. c #8B6837",
"P. c #906C3F",
"I. c #876641",
"U. c #926E42",
"Y. c #84745C",
"T. c #837560",
"R. c #8A7D69",
"E. c #75827A",
"W. c #7A857E",
"Q. c #718077",
"!. c #92826C",
"~. c #9B8B75",
"^. c #9E8E79",
"/. c #978774",
"(. c #8E816F",
"). c #A4937D",
"_. c #A8977F",
"`. c #7D7E80",
"'. c #817F82",
"]. c #7E8581",
"[. c #7E8982",
"{. c #838384",
"}. c #838A85",
"|. c #868C88",
" X c #8A8C8B",
".X c #878787",
"XX c #8C918E",
"oX c #8F9291",
"OX c #949594",
"+X c #999A9A",
"@X c #9D9E9D",
"#X c #9B9C9B",
"$X c #979897",
"%X c #9FA09F",
"&X c #9FA1A1",
"*X c #A4A4A4",
"=X c #A7A7A9",
"-X c #AAABAB",
/* pixels */
"                        c.5.q.#X-X*XOXj.j.*X-X-X#XB.k.                          ",
"                  -X*X#X$Xj.n.#X$XOX XM.V.#X#X$X Xj.j.$X#X*X                    ",
"              B.$X#X X X Xj.n.$XXX.X}.B.B.$X#X$X Xj.j. XOX#X#XB.a.              ",
"            {.n.{.OXW.W.W.s.j..X].m.Q.v.M..X}.}.N.0.s.E.XX$X$Xn.x.$X            ",
"          *X*X XB. XE.b.z.6.8.j.l.h.s.8.p.j.z.l.0.*.7.v.]. Xn.n.$X*X-X          ",
"        #X$XOX$X Xv.s.7.-.u t L ;.K u s u L K p w 0 i ,.s.d.x.oX#X$X*X*X        ",
"      W.}.|.W.W.B.8.y e 1 z m h m h h 3 n N m n m M n D F *.j.|..X XXX X}.      ",
"    j.f.v.E.Q.l.7.w 1 d h !  . .[ Z...F %.D.O.{ O...[ } W H K s.E.W.N.z.d.      ",
"     Xp.0.h.l.7.w 1 h U ! X.K.A.+.U.K.J r.K.J.$.J.G.@.F.D.| H ` q.h.s.0.n.#X    ",
"  =X*X Xg.4.4.r z v E  .+.#.K.A.+.U.G.J r.K.J.#.I.G.@.F.K.@.| { J ,.0.M.#X-X    ",
"  =X*X#X$Xp.t z l V | G.#.I.U.A.+.P.F.J r.K.J.#.K.J.@.F.K.H.+...G 4.{.#X#X-X    ",
"  *XOX XoXx.w h Y [ G.L.H.I.U.F.+.P.G.J r.J.G.#.K.L.@.F.K.F.@.F.{ q.oX|.}.#X    ",
"   X}.[.].p.q A / o.K.K.H.J.P.F.+.U.G.J r.J.F.H.I.G.@.F.G.#.@.G.| <.m.].}.|.    ",
"  q.h.v.v.,.z U / o.K.K.H.I.K.F.+.U.L.J r.G.A.H.H.F.@.F.F.@.@.G.o.' f.m.v.s.    ",
"  j.8.4.4.K v Y ) @.K.K.#.H.P.F.+.K.K.J r.J.A.@.G.F.@.F.D.o.@.G.O.G :.4.:.:.    ",
"  *X Xj.4.u v Y _ S.K.K.@.F.K.F.+.K.K.J #.K.A.@.H.D.A.G.D.o.@.G.O.G *.8.j.{.    ",
"  -X$XOX`.<.m Y  .H.K.L.@.&.K.F.+.U.U.J r.K.F.+.F.A.@.L.F.o.@.G.O.' s.|.$X%X    ",
"  *X|..X].,.d I ) F.K.L.@.A.K.A.+.U.P.J $.K.A.X.F.F.A.J.G.@.@.G.O.' n. X|.OX    ",
"  #XW.E.N.8.` y.Y.(.~.)./.^._.^./.).~.<.t./.!.R.~.).^.$X_.).)._./.t.M.[.E.}.    ",
"  XXE.E.b.:.8 9 y y a -.-.-.-.-.-.` ` 5 9 a a K ;.;.;.>.>.>.<.;.a p v.W.Q.E.    ",
"  }.E.E.m.-.X o + % X X & & & * * * * = > * * * * * * * * & @ X X > j.W.Q.E.    ",
"  N.m.m.v.;.1 g v b v B b b B b n B B 0 q B b B B B b B B b b M v r d.m.b.n.    ",
"  6.0.0.8.K m ^ O.O.F.G.o.o.G.Z.X.F.G.F %.G.X.A.L.A.o.F.F.o.F.L.O.G ,.0.9.4.    ",
"  c.c.n.n.1.m ^ O.O.G.L.@.@.K.Z.+.L.L.J %.G.X.F.K.F.@.L.J.@.J.K.F.' a.V.n.x.    ",
"  #X X X}.w.m Q  .o.F.D.@.@.G...X.F.F.F { Z.| Z.D.o.X.F.F.O.F.D.O.] B.OXoX$X    ",
"  #X].E.E.2.m W ) | O...o.o.Z.o.X.Z...D { _ ~ O.Z.) | ....o.O...o.] M.}.W. X    ",
"  OXE.m.b.2.v Y / ~ ( _ ) | ..) | .._ D { _ ~ o._ ) } _ _ | | _ ) ' n.W.E.W.    ",
"  }.m.m.b.1.v U Y U T R Q W / W [ ( ^ 2 P ( ~ / ( / ~ ^ ^ ~ / ( / ' h.Q.m.Q.    ",
"  j.j.z.f.;.g Z Z A Y Y U U Y U E T Y 2 V R U T T Y E Y T U Y T W G p.z.h.f.    ",
"  4.9.0.8.p x Z A A U U S E T W ! T Y 2 M Y U W T E N Y U S E Y U F :.8.6.>.    ",
"  {.{.B.M.4.J ] e.e.u.u.u.i.T.R.R.!.!.` 2.u.i.T.Y.T.C.R.R.R.(.~.~.C.x.{.{.'.    ",
"  #X}.}.}.7.= = 7 8 8 8 0 0 9 9 9 y y = 7 9 9 y y y i a K a -.;.;.,.B.XX}. X    ",
"  W.z.b.v.:.@ O . . O O . . . O O O @ + & > > , , , , , , < , , , y v.m.l.v.    ",
"  n.h.l.h.>.x l k N k A j h k k m A A 2 v A N N U N M S U N N U k G g.j.s.f.    ",
"  d.s.s.g.<.m Y ^ W / _ W W ( / ! ( ( q V ( ! / _ Q W ( ( W / ( Q G p.f.s.s.    ",
"  :.:.:.:.p m T / W ^ ( W W ( / ! / ^ q M ^ ! W ^ W ! Q T U Q R Y F :.:.:.*.    ",
"  :.4.4.3.u g I Y k Y T U U T Y A Y Y 3 m I k A Z l k U Z l Z Z k D *.4.4.=.    ",
"  {.{.{.`.,.c f f d h h h h j j C j f 6 c f x m h f f j f d d f d r k.{.{.].    ",
"  {.M.M.c.=.$ ; : : : : : : : : : : : $ : : : : : : : ; ; : ; ; ; 5 p.x.j.v.    ",
"  g.9.9.6.i # - % % # % % # # % # % % % % % % # % % % % % % % % # 4 :.3.3.3.    "
};
