/* XPM */
static char *f25a3a7a9808405babf45d504d74fa98[] = {
/* columns rows colors chars-per-pixel */
"64 64 151 2 ",
"   c #161616",
".  c #181717",
"X  c #171817",
"o  c #181817",
"O  c #171718",
"+  c #181718",
"@  c #171818",
"#  c #181919",
"$  c #3A1F0E",
"%  c #361D13",
"&  c #3B1F10",
"*  c #3E210E",
"=  c #3D2211",
"-  c #3D271A",
";  c #3D291E",
":  c #1D1F20",
">  c #1E2023",
",  c #212427",
"<  c #23272B",
"1  c #24282D",
"2  c #3D2C23",
"3  c #3D2F29",
"4  c #3D322D",
"5  c #292E35",
"6  c #2B3036",
"7  c #2D343C",
"8  c #3F3531",
"9  c #31383F",
"0  c #402514",
"q  c #452719",
"w  c #45291A",
"e  c #4C2D1A",
"r  c #55361D",
"t  c #5E3D1E",
"y  c #42352F",
"u  c #413633",
"i  c #443A36",
"p  c #443B39",
"a  c #483D3A",
"s  c #65441F",
"d  c #6F4C21",
"f  c #765324",
"g  c #7D5924",
"h  c #2F3740",
"j  c #2F3841",
"k  c #323B44",
"l  c #393C42",
"z  c #353F4A",
"x  c #36414B",
"c  c #39434E",
"v  c #374451",
"b  c #3B4551",
"n  c #3E4A56",
"m  c #3D4A58",
"M  c #464143",
"N  c #46464B",
"B  c #414B55",
"V  c #434E5B",
"C  c #45515D",
"Z  c #48535F",
"A  c #465362",
"S  c #495563",
"D  c #4C5866",
"F  c #4F5E6E",
"G  c #4D5C6D",
"H  c #4D5B6A",
"J  c #515C69",
"K  c #525C69",
"L  c #525D69",
"P  c #525D6A",
"I  c #535D6A",
"U  c #535E6A",
"Y  c #525E6B",
"T  c #515D6C",
"R  c #525E6C",
"E  c #525E6D",
"W  c #505E6E",
"Q  c #515E6C",
"!  c #505F70",
"~  c #53606F",
"^  c #54606E",
"/  c #54606F",
"(  c #54616F",
")  c #54606F",
"_  c #526172",
"`  c #526273",
"'  c #546170",
"]  c #556170",
"[  c #566271",
"{  c #556372",
"}  c #536374",
"|  c #546474",
" . c #566270",
".. c #586371",
"X. c #596472",
"o. c #586473",
"O. c #5A6573",
"+. c #5A6674",
"@. c #5B6877",
"#. c #5D6977",
"$. c #5E6977",
"%. c #5C6977",
"&. c #5C6978",
"*. c #5D6A79",
"=. c #5E6B79",
"-. c #5F6B79",
";. c #5F6B7A",
":. c #5E6B7A",
">. c #616C7B",
",. c #616E7C",
"<. c #626E7D",
"1. c #636F7D",
"2. c #626E7E",
"3. c #64707F",
"4. c #66717F",
"5. c #63707F",
"6. c #805C25",
"7. c #896527",
"8. c #8C6829",
"9. c #906928",
"0. c #9E772B",
"q. c #667280",
"w. c #677280",
"e. c #677380",
"r. c #677382",
"t. c #657181",
"y. c #687382",
"u. c #697583",
"i. c #687483",
"p. c #687584",
"a. c #697584",
"s. c #697685",
"d. c #6A7685",
"f. c #6B7785",
"g. c #687584",
"h. c #6C7887",
"j. c #6D7987",
"k. c #6C7886",
"l. c #6D7988",
"z. c #6E7A88",
"x. c #6E7A89",
"c. c #6F7B8A",
"v. c #6E7B8A",
"b. c #707C8B",
"n. c #707C8A",
"m. c #717D8C",
"M. c #717E8D",
"N. c #727E8D",
"B. c #737F8D",
"V. c #727E8C",
"C. c #737F8E",
/* pixels */
"                      @ + + + + + + + + + + + + + + + + + + + + @ + + + + + + + + + + + + + + X X + + +     X X                 ",
"                      + + + + + + + + + + + + + + + + + + + + + + + + + + + + + + + + + + + @ + @ @ + +       X                 ",
"                      @ O + + + + + + + + + + + + + X @ + @ + + O @ + + + + + + + + + + + + + + + + + + + + @                   ",
"                        + + + + + + + + + + + + + X X X O + + + O @ + + + + + + + + + + + + + + + + + + + +                     ",
"                X     + + + + + + + + + + + + + +       X + + + + + + + + + + + + + + + + + + + + + + + + @                     ",
"                X + + + + + + + + + + + + + + + +       +   + + + + + + + + + + + + + + + + + + + + + + + @                     ",
"                X X X + + + + + + + + + + + + + + O             @ + + + + + + + + + + + + + + + + + + + +                       ",
"                X X X @ + + + + + + + + + + + + +         O @ @ @ + + + + + + + + + + + + + + + + + + + @ + O                   ",
"                      + + + + + + + + + + + + + + O       @     X + + + + + + + + # # # + + + + + + + + + + +                   ",
"                      + + + + + + + + + + + + + + +       @     @ + + + + + + + + # # # + + + + + + + + + + + @                 ",
"                    @   + + + + + + + + + + + + + + O     + + @ + + + + + + + + + + + + + + + + + + + + + + @ X                 ",
"                    + O + + + + + + + + + + + + + +   + + + + + + + + + + + + + + + + + + + + + + + + + + + + X @               ",
"                      @ + + + + + + + + + + + + @   + + + + + + + + + + + + + + + + + + + + + + + + + + + + + X X @             ",
"                    + + + + + + + + + + + + + + + @                     . + + + + + + + + + + + + + + + + + + X     o           ",
"                    o + + + + + + + + + + + + + +   : 5 5 5 5 5 5 5 6 6 6 # + + + + + + + + + + + + + + + + + +                 ",
"                      + + + + + + + + + + + + + +   , c x x x x x x x x c > + + + + + + + + + + + + + + + + + +         +       ",
"                X X + + + + + + + + + + + +   1 k 7 c ' *.r.4.r.r.4.r.$.( z 7 k <   + + + + + + + + + + + + + + +               ",
"                X X + + + + + + + + + + + # + 7 B b C *.a.C.C.C.C.C.C.r.@.V b n 7 + # + + + + + + + + + + + + +   +             ",
"                X X + + + + + + + + + +   , k U b.j.r.' i.C.C.C.C.C.C.4.~ i.l.b.D k ,   + + + + + + + + + +                     ",
"                @ + + + + + + + + + + # > 7 S $.C.l.a.*...U U U U U U o.*.a.l.b.o.S 7 > # + + + + + + + + + +                   ",
"                + + + + + + + + + + X > k Z C.l.j.l.j.C.D k x z z x k U C.a.j.j.l.C.Z k : o + + + + + + + + +                   ",
"                + + + + + + + + + +   # j C l.l.l.W D W M 2 3 3 2 3 2 N W D ( l.j.l.V k : + + + + + + + + + +                   ",
"                + + + + + + + + + +   # k C b.a.r.C B C y * 0 0 0 0 * p C B S y.r.l.V k : o + + + + + + + + X                   ",
"                + + + + + + + + + + 6 z S H o.A n 2 - ; w e e e e e e w ; - 2 b C ' D A z 7 + + + + + + + + @                   ",
"            + + + + + + + + + + + + h b ' ( ' B l ; 0 0 w e e e e e e w 0 0 w l B W W W b k + + + + + + + + + +               + ",
"O O     O + + + + + + + + + + + + + 7 b a.,.| a * - w e e e e e e e e e e e w * i G >.a.b 7 + + + + + + + + + X                 ",
"+ + +   + + + + + + + + + + + + + + 7 b a.,.} a = q w e e e e e e e e e e e e = i G ,.a.b 7 + + + + + + + + X X                 ",
"+ + + + + + + + + + + + + + + + + + 7 b a.,._ a = e e e e e e e e e e e e e e = i H >.a.b h + + + + + + + + X X                 ",
"+ + + + + + + + + + + + + + + + + + 7 b a.,._ p = e e e e e e e e e e e e e w = i H *.a.b 7 + + + + + + + + +                   ",
"+ + + + + + + + + + + + + + + + + + 7 b i.>.W i = e e e e e e e e e e e e e e = i D $.r.b 7 + + + + + + + +                     ",
"+ + + + + + + + + + + + + + + + + + 7 x H A n 4 = e e e e e e e e e e e e e w = 4 b C S x 7 + + + + + + + +                     ",
"+ + + + + + + + + + + + + + + + + + 7 c ~ D V u = e e e e e e e e e e e e e e = 4 n S U x 7 + + + + + + + + o                   ",
"+ + + + + + + + + + + + + + + + + + 7 b i.*.! p = e e e e e e e e e e w q w q = u S $.r.c 7 + + + + + + + + + X X X             ",
"+ + + + + + + + + + + + + + + + + + 7 c r.$.G i = e e e e e e e e e w t d s s = u A @.r.c 7 + + + + + + + + + @ X X             ",
"+ + + + + + + + + + + + + + + + + + 7 c r.$.G i = e e e e e e e e e q f 0.9.7.& u A @.r.c 7 + + + + + + + + + +               o ",
"+ + + + + + + + + + + + + + + + + + 6 c r.*.G i = e e e e e e e e e e w q g 7.& u A @.r.c 7 + + + + + + + + + X                 ",
"+ + + + + + + + + + + + + + + + + + 6 c ,.@.H i = e e e e e e e e e e 0 % 6.8.$ u A o.,.c 7 + + + + + + + + o                   ",
"+ + + + + + + + + + + + + + + + + + 7 z S V b 4 = e e e e e e e e e e w w r r = 3 v V A z 7 + + + + + + + + X                   ",
"+ + + + + + + + + + + + + + + + + + 6 x ( D V 8 = e e e e e e e e e e e e w w = 4 m S W x 7 + + + + + + +                     . ",
"+ + + + + + + + + + + + + + + + + + 6 c r.$.G i = e e e e e w e e e e e e e e = u A @.r.c 7 + + + + + +                         ",
"+ +   + + + + + + + + + + + + + + + 6 c ,.@.H i = e e e e e e e e e e e e e w = 8 A o.,.c 7 + + + + + X +                       ",
"+   + + +   + + + + + + + + + + o + 6 c 5.@.H i = e e e e e e e e e e e e e w = u A o.,.c 7 + + + + + + O                       ",
"    +     + + + + + + + + + + +     6 c r.@.H i $ 0 0 0 0 0 0 0 - - - - 0 = - $ 8 A @.5.c 6     + + + +                         ",
"          @ + + + + + + + + + X # : 7 b ,.o.S p - 2 ; ; ; ; ; ; ; ; ; ; ; ; 2 - p A ' *.b h > #   + + +                         ",
"            + + + + + + + + +   k A V C S V b V A C C V V V V V V C C C V V V C B c V C V V C k   + +                           ",
"            + + + + + + + + +   z S H W W H S S S W W W W W W U U H A H W W W W D S H U U H S z   +                             ",
"            + + + +   + X + +   z S *.r.r.r.a.( S ,.r.r.r.r.r.r.r.*.C o.r.t.r.t.r.r.t.t.r.*.S z   +                             ",
"            + + +         X +   z A H W W W W S A U W W W W W W W H C D W W W W U H U U W H A z   +                             ",
"              @       X     +   9 V n n n n n n B n n n n n n n n n n n n n n n n n n n n n V k   O                             ",
"                                # # # : : : : : : : : : : : : : : : : : : : : : : : : : : # # #                                 ",
"                                                                                                                                ",
"                                        + + + + + + + + + + + + + + + + + + + + + + + + + O                                     ",
"                                          o + + + + + + + + + + + + + + + + + + + + + + +                                       ",
"                                            @ + + + +   X + + + @ + + + + + + + @   + + +                                       ",
"                                                            +     @ + + + + + +     @ + +                                       ",
"                                              @     O     X +       + + + @ @ + +       +                                       ",
"                                                              +   + + + + + + + +                                               ",
"                                                              +     + + @ @ + + +                                               ",
"                                                              +               +                                                 ",
"                                                                                                                                ",
"                                                                                                                                ",
"                                                                                                                                ",
"                                                                                                                                ",
"                                                                                                                                "
};
