/* XPM */
static char *a3fxo_pt898[] = {
/* columns rows colors chars-per-pixel */
"30 30 157 2 ",
"   c None",
".  c #034BBC",
"X  c #194FB2",
"o  c #0651BE",
"O  c #0B56BF",
"+  c #1B51B3",
"@  c #1056BE",
"#  c #1C55BA",
"$  c #1E58BB",
"%  c #214EAE",
"&  c #2250AF",
"*  c #2353B3",
"=  c #2C57B3",
"-  c #2059B6",
";  c #2E5CB6",
":  c #245DBC",
">  c #3054B1",
",  c #335CB5",
"<  c #2362BF",
"1  c #2864BE",
"2  c #3C60B6",
"3  c #3163BA",
"4  c #466ABB",
"5  c #4B6EBD",
"6  c #4A70BE",
"7  c #0653C0",
"8  c #185EC0",
"9  c #0D77EE",
"0  c #097CEC",
"q  c #0C7DFE",
"w  c #137CFE",
"e  c #5376C1",
"r  c #0984EF",
"t  c #0B8BED",
"y  c #1791EE",
"u  c #1A94EF",
"i  c #0887F0",
"p  c #0B85FF",
"a  c #048CFF",
"s  c #0D8FFD",
"d  c #1481FE",
"f  c #0393FF",
"g  c #0997FE",
"h  c #099BFF",
"j  c #1894F0",
"k  c #1594FF",
"l  c #139CFE",
"z  c #3A8DED",
"x  c #3497EC",
"c  c #2082FE",
"v  c #2E90FE",
"b  c #229EFF",
"n  c #289DFF",
"m  c #329FFF",
"M  c #0BA2FF",
"N  c #1AA5FF",
"B  c #1DABFF",
"V  c #2DA0ED",
"C  c #25A1FE",
"Z  c #2BABFF",
"A  c #31AFFF",
"S  c #3CAFFE",
"D  c #2BB3FF",
"F  c #32B3FF",
"G  c #39B1FE",
"H  c #32B8FF",
"J  c #3DBDFF",
"K  c #4B9EDE",
"L  c #63A1D7",
"P  c #6CA5DB",
"I  c #76ACDD",
"U  c #78ACDF",
"Y  c #4F9CE0",
"T  c #439DFF",
"R  c #47A2ED",
"E  c #47AEEF",
"W  c #5CA8EF",
"Q  c #57B5EE",
"!  c #59B6EC",
"~  c #5DB9EF",
"^  c #45A2FF",
"/  c #4BA3FF",
"(  c #4BABFF",
")  c #44B6FF",
"_  c #4AB6FE",
"`  c #44BCFE",
"'  c #4EBDFF",
"]  c #51B5F0",
"[  c #50B6FF",
"{  c #57BEFE",
"}  c #5EBEFF",
"|  c #66A7E0",
" . c #7EAEE0",
".. c #6EBAE6",
"X. c #61B0E8",
"o. c #67BDFF",
"O. c #69BEFE",
"+. c #45C2FF",
"@. c #4AC5FF",
"#. c #4FC8FF",
"$. c #5CC2F3",
"%. c #52C2FF",
"&. c #5CC6FF",
"*. c #55CAFF",
"=. c #5DCBFE",
"-. c #6BC6F2",
";. c #62C4FE",
":. c #62CDFE",
">. c #69CCFF",
",. c #7ECCF2",
"<. c #72C3FE",
"1. c #7BC2FF",
"2. c #75CFFF",
"3. c #65D3FF",
"4. c #6BD5FE",
"5. c #71D6FE",
"6. c #7AD4FE",
"7. c #73D9FE",
"8. c #7CDCFE",
"9. c #81AEDE",
"0. c #8FB1DD",
"q. c #9EBFE3",
"w. c #A2BFE3",
"e. c #92C7EC",
"r. c #84CDFE",
"t. c #82DFFE",
"y. c #8CDCFF",
"u. c #9AD4F2",
"i. c #92DDFE",
"p. c #A3CCEB",
"a. c #87E0FE",
"s. c #8BE2FF",
"d. c #94E3FE",
"f. c #9BE5FE",
"g. c #A3E6FE",
"h. c #ABE6FD",
"j. c #A5E8FE",
"k. c #ABEAFE",
"l. c #BBE7F8",
"z. c #B4EDFE",
"x. c #B6EEFF",
"c. c #B2EBFE",
"v. c #B8EDFE",
"b. c #BDEEFE",
"n. c #BCE9F9",
"m. c #CAE9F7",
"M. c #CBEAF7",
"N. c #CCE9F7",
"B. c #C3EEFC",
"V. c #CCEAF8",
"C. c #D1EAF7",
"Z. c #C3F2FF",
"A. c #C1F1FE",
"S. c #C6F2FF",
"D. c #D2F1FB",
"F. c #D5F5FD",
"G. c #D8F5FD",
/* pixels */
"                                                            ",
"                                                            ",
"                                                            ",
"                    4 5 5 5 5 5 5 5 5 4                     ",
"              , 6 e w.C.C.N.m.m.m.m.V.q.e 6 ,               ",
"            2 0.m.V.D.G.F.S.Z.Z.Z.Z.S.B.l.n.9.;             ",
"          , 9.B.Z.Z.Z.b.v.k.h.k.k.h.k.c.z.z.c.I ;           ",
"        ; U h.h.j.j.g.f.f.f.f.f.j.j.j.j.h.k.h.g.| *         ",
"      =  .h.d.t.t.a.s.s.d.d.d.d.f.f.d.s.s.t.8.8.6.Y +       ",
"    = P h.h.d.7.7.8.t.8.8.8.7.7.7.7.4.3.=.#.#.=.=.=.K -     ",
"  % L d.f.f.f.a.4.7.7.3.:.=.#.@.@.@.@.@.+.J %.' ) &.4.K X   ",
"  * ,.s.s.s.d.h.k.g.y.6.&.#.+.+.J ` { ;.;.} O._ H *.3.$.+   ",
"  * ,.s.t.8.s.h.z.b.b.z.j.f.i.r.<.;._ F Z n ^ ) H *.3.$.X   ",
"  = u.d.t.7.s.g.f.j.z.v.c.h.j.1.S Z N M g a k A J *.4.-.+   ",
"  > p.h.t.t.d.d.d.d.d.f.d.d.i.o.N M M h g f f Z ` *.7...&   ",
"    4 p.j.d.d.d.s.t.8.t.s.d.i.o.N M h f f f f l F :...3     ",
"      4 p.j.s.8.4.7.7.7.8.s.i.o.N M h f f f g h G X.3       ",
"        5 e.y.5.5.8.8.7.7.t.y.O.N h l C C b b C x :         ",
"          3 W } ;.>.6.6.7.8.i.r.G Z m ^ / T T z #           ",
"            @ u B D ` ;.&.;.2.1./ T v w w d 9 o             ",
"              O j D J J H Z Z / c w w q p 0 .               ",
"                O V +.@.+.H F ^ d q q p 0 o                 ",
"                  8 E 3.=.#.` ^ s a f r 7                   ",
"                    < ] 3.=.%.( l h i o                     ",
"                      < ! 4.:.( N t o                       ",
"                        1 ~ 3.[ y o                         ",
"                          < Q R @                           ",
"                            : $                             ",
"                                                            ",
"                                                            "
};
