/* XPM */
static char *_45a2458c9c74a018d504990529d8551[] = {
/* columns rows colors chars-per-pixel */
"64 64 161 2 ",
"   c #010F1C",
".  c #07111A",
"X  c #0D151A",
"o  c gray9",
"O  c #181717",
"+  c #171817",
"@  c #181817",
"#  c #12171A",
"$  c #181718",
"%  c #16181A",
"&  c #191919",
"*  c #231E1A",
"=  c #291F19",
"-  c #27211B",
";  c #2B221A",
":  c #332419",
">  c #3B2518",
",  c #36281A",
"<  c #3A291B",
"1  c #422618",
"2  c #432C1A",
"3  c #4A2B18",
"4  c #562E17",
"5  c #5C2F17",
"6  c #552E18",
"7  c #582F18",
"8  c #4B321B",
"9  c #5C3017",
"0  c #50341A",
"q  c #5C3118",
"w  c #5B381B",
"e  c #663216",
"r  c #603A1B",
"t  c #693E1A",
"y  c #763716",
"u  c #773816",
"i  c #7A3A16",
"p  c #66401B",
"a  c #6B411B",
"s  c #74461A",
"d  c #7D461A",
"f  c #7D4B1B",
"g  c #833D16",
"h  c #8C3E15",
"j  c #8D4617",
"k  c #834519",
"l  c #824C1A",
"z  c #8C4F1A",
"x  c #9E4214",
"c  c #924F19",
"v  c #8B521A",
"b  c #915219",
"n  c #9B5519",
"m  c #955A1C",
"M  c #A64714",
"N  c #AA4413",
"B  c #A24E16",
"V  c #AA4915",
"C  c #B04713",
"Z  c #B44C14",
"A  c #BD4E14",
"S  c #A25117",
"D  c #AE5817",
"F  c #A25419",
"G  c #AC5718",
"H  c #B45616",
"J  c #BB5315",
"K  c #B75917",
"L  c #BB5A16",
"P  c #BA5F18",
"I  c #A3691D",
"U  c #BF6217",
"Y  c #BE6318",
"T  c #B4691B",
"R  c #BD6B1A",
"E  c #BA741C",
"W  c #B9781E",
"Q  c #C45414",
"!  c #C15C16",
"~  c #C26418",
"^  c #C26A19",
"/  c #CB6D19",
"(  c #D56E17",
")  c #D36C19",
"_  c #C4741A",
"`  c #CD7319",
"'  c #CD7C1A",
"]  c #D37319",
"[  c #D97519",
"{  c #D37C1B",
"}  c #DA7A1A",
"|  c #E17519",
" . c #E17F1B",
".. c #EA7E1A",
"X. c #CF861D",
"o. c #D5841C",
"O. c #DE811B",
"+. c #D68A1D",
"@. c #D98D1D",
"#. c #DA951F",
"$. c #DD9A1F",
"%. c #DD9C1F",
"&. c #DD9A1F",
"*. c #E2951F",
"=. c #DFA01F",
"-. c #E0A11F",
";. c #E0A21E",
":. c #E1A31F",
">. c #E1A31F",
",. c #DA9820",
"<. c #DB9820",
"1. c #DB9920",
"2. c #DC9E20",
"3. c #DE9F20",
"4. c #DD9D20",
"5. c #E09520",
"6. c #E09A21",
"7. c #E19E20",
"8. c #DFA122",
"9. c #E1A320",
"0. c #E0A221",
"q. c #E1A420",
"w. c #E1A421",
"e. c #E1A521",
"r. c #E2A420",
"t. c #E2A520",
"y. c #E2A421",
"u. c #E2A521",
"i. c #E2A620",
"p. c #E2A721",
"a. c #E3A721",
"s. c #E2A522",
"d. c #E3A622",
"f. c #E3A722",
"g. c #E3A723",
"h. c #E3A724",
"j. c #E1A420",
"k. c #E3A821",
"l. c #E3A822",
"z. c #E3A922",
"x. c #E3A923",
"c. c #E4A922",
"v. c #E4AB22",
"b. c #E4AA21",
"n. c #E5AD23",
"m. c #E5AE23",
"M. c #E5AE24",
"N. c #E4A922",
"B. c #E5AC28",
"V. c #E6AD28",
"C. c #E6AD29",
"Z. c #E9B324",
"A. c #E9B52E",
"S. c #EDBC34",
"D. c #EEBE36",
"F. c #EFC038",
"G. c #F1C63C",
"H. c #F2C73E",
"J. c #F2C63D",
"K. c #F3CA41",
"L. c #F6D048",
/* pixels */
"@ O O $ $ $ $ $ $ $ $ $ $ $ $ $ $ $ $ $ $ $ $ $ $ $ $ $ $ $ $ $ $ $ $ $ $ $ $ $ $ $ $ $ $ $ $ $ $ $ $ $ $ @ $ $ $ $ $ $ $ $ $ $ ",
"$ $ @ O $ $ $ $ $ $ $ $ $ $ $ $ $ $ $ $ $ $ $ $ $ $ $ $ $ $ $ $ $ $ $ $ $ $ $ $ $ $ $ $ $ $ $ $ $ $ $ $ $ $ $ $ $ @ @ $ $ o $ $ ",
"O $ $ $ $ $ $ $ $ $ $ $ $ $ $ $ $ $ $ $ $ $ $ $ $ $ $ $ $ $ $ $ $ $ $ $ $ $ $ $ $ $ $ $ $ $ $ $ $ $ $ $ $ $ $ $ $ $ @ $ $ $ @ $ ",
"O O $ O O $ $ $ $ $ $ $ $ $ $ $ $ $ $ $ $ $ $ $ $ $ $ $ $ $ $ $ $ $ $ $ $ $ $ $ $ $ $ $ $ $ $ $ $ $ $ $ $ $ $ $ @ $ $ $ $ $ O $ ",
"$ $ O @ $ @ @ $ $ $ $ $ $ $ $ $ $ $ $ $ $ $ $ $ $ $ $ $ $ $ $ $ $ $ $ $ $ $ $ $ $ $ $ $ $ $ $ $ $ $ $ $ $ $ $ $ $ $ $ $ $ $ @ $ ",
"@ $ $ @ $ @ $ $ $ $ $ $ $ $ $ $ $ $ $ $ $ $ $ $ $ $ $ $ $ $ $ $ $ $ $ $ $ $ $ $ $ $ $ $ $ $ $ $ $ $ $ $ $ $ $ $ $ $ $ $ $ $ $ $ ",
"$ $ $ $ $ $ $ $ $ $ $ $ $ $ $ $ $ $ $ $ $ $ $ $ $ $ $ $ $ $ $ $ $ $ $ $ $ $ $ $ $ & & & & & $ $ $ $ $ $ $ $ $ $ $ $ $ $ $ $ $ $ ",
"$ $ $ $ $ $ $ $ $ $ $ $ $ $ $ $ $ $ $ $ $ $ $ $ $ $ $ $ $ $ $ $ $ $ $ $ $ $ $ $ $ & & & & $ $ $ $ $ $ $ $ $ $ $ $ $ $ $ $ $ $ $ ",
"$ $ $ $ $ $ $ $ $ $ $ $ $ $ $ $ $ $ $ $ $ $ $ $ $ $ $ $ $ $ $ $ $ $ $ $ $ $ $ & & & & & & & & $ $ $ $ $ $ $ $ $ $ $ $ $ $ $ $ $ ",
"O O O O @ $ $ $ $ $ $ $ $ $ $ $ $ $ $ $ $ $ $ $ $ $ $ $ $ $ $ $ $ $ $ $ $ $ & & & & & & & & & & $ $ $ $ $ $ $ $ $ $ $ $ @ $ $ $ ",
"@ o o o $ o $ $ $ $ $ $ $ $ $ $ $ $ $ $ $ $ $ $ $ $ $ $ $ $ $ $ $ & & $ $ $ & & & & & & & & & & $ $ $ $ $ $ $ $ $ $ $ $ $ $ $ $ ",
"o o o @ $ $ $ $ $ $ $ $ $ $ $ $ $ $ $ $ $ $ $ $ $ $ $ $ $ $ & & & & & & & & & & & & & & & & & & $ $ $ $ $ $ $ $ $ $ $ $ $ $ $ $ ",
"@ o $ $ $ $ $ $ $ $ $ $ $ $ $ $ $ $ $ $ $ $ $ $ $ $ $ $ & & & & & & & & & & & & & & & & & & & & & $ $ $ $ $ $ $ $ $ $ $ $ $ $ $ ",
"@ $ $ @ O @ $ $ $ $ $ $ $ $ $ $ $ $ $ $ $ $ $ $ $ $ $ $ & & & & & & & & & & & & & & & & & & & & & $ $ $ $ $ $ $ $ $ $ $ $ $ $ $ ",
"$ $ $ @ $ $ $ $ $ $ $ $ $ $ $ $ $ $ $ $ $ $ $ $ $ $ $ $ & # s R R f # & & & & & & & & & & & & & $ & $ $ $ $ $ $ $ $ $ $ $ $ $ $ ",
"$ $ $ $ $ $ $ $ $ $ $ $ $ $ $ $ $ $ $ $ $ $ $ $ $ $ $ $ * # v O.O.m % * & & & & & & & & & & & & & $ $ $ $ $ $ $ $ $ $ $ $ $ $ $ ",
"$ $ $ $ $ $ $ $ $ $ $ $ $ $ $ $ $ $ $ $ $ $ $ $ $ $ $ & &   s } [ v   & & & & & & & & & & & & & & $ $ $ $ $ $ $ $ $ $ $ $ $ $ $ ",
"$ $ $ $ $ $ $ $ $ $ $ $ $ $ $ $ $ $ $ $ $ $ $ $ $ $ & % < t I 5.5.W d 8 % & & & & & & & & & & & $ $ $ $ $ $ $ $ $ $ $ $ $ $ $ $ ",
"$ $ $ $ $ $ $ $ $ $ $ $ $ $ $ $ $ $ $ $ $ $ $ $ $ $ & # w | 5.M.M.6...s # & & & & & & & & & & & $ $ $ $ $ $ $ $ $ $ $ $ $ $ $ $ ",
"$ $ $ $ $ $ $ $ $ $ $ $ $ $ $ $ $ $ $ $ $ $ $ $ $ & & X 8 / +.x.f.#.[ a . & & & & & & & & & & & & $ $ $ $ $ $ $ $ $ $ $ $ $ $ $ ",
"$ $ $ $ $ $ $ $ $ $ $ $ $ $ $ $ $ $ $ $ $ $ $ $ $ $ * ; p ] #.c.x.1.O.f ; = $ $ & & & & & & & & & $ $ $ $ $ $ $ $ $ $ $ $ $ $ $ ",
"$ $ $ $ $ $ $ $ $ $ $ $ $ $ $ $ $ $ $ $ $ $ $ $ & # , / o.c.f.f.f.f.c.o.] 2 # & & & & & & & & & $ $ $ $ $ $ $ $ $ $ $ $ $ $ $ $ ",
"$ $ $ $ $ $ $ $ $ $ $ $ $ $ $ & & & & & & & & & & % < / o.x.f.f.f.f.x.+.] 2 % * & & & & & & & & & & $ $ $ $ $ $ $ $ $ $ $ $ $ $ ",
"$ $ $ $ $ $ $ $ $ $ $ $ $ $ $ X X X X X X X X X X . ; / o.x.f.f.f.f.f.o.] , . # X X # X X # # X X $ & $ $ $ $ $ $ $ $ $ $ $ $ $ ",
"$ $ $ $ $ $ $ $ $ $ $ $ $ $ * s s s s s s s f l f d v +.#.f.f.f.f.9.:.&.#.m f l f l l l l l l l l ; $ $ $ $ $ $ $ $ $ $ $ $ $ $ ",
"$ $ $ $ $ $ $ $ $ $ $ $ & $ ; ` } [ [ [ [ [ [ } [ ] } c.x.f.f.f.9.f.-.:.c.} ( ] [ ] ] ] [ [ [ ] [ < % & $ $ $ $ $ $ $ $ $ $ $ $ ",
"$ $ $ $ $ $ $ $ $ $ $ $ & $ ; / { 1.1.#.#.1.1.#.#.#.&.-.-.-.-.f.-.-.f.9.f.&.#.#.#.#.#.#.&.&.3.o.) < % & $ $ $ $ $ $ $ $ $ $ $ $ ",
"$ $ $ $ $ $ $ $ $ $ $ $ & & ; n T 1.3.f.x.x.x.f.f.f.c.V.V.V.f.9.-.f.f.f.9.f.f.x.x.f.f.f.x.9.%._ F , % & $ $ $ $ $ $ $ $ $ $ $ $ ",
"$ $ $ $ $ $ $ $ $ & & & & & & # , ) o.n.f.f.f.9.f.=.h.J.K.L.B.-.f.f.f.f.9.9.9.9.f.f.9.9.n.<.[ t . & $ $ $ $ $ $ $ $ $ $ $ $ $ $ ",
"$ $ $ $ $ $ $ & & & & & & & & $ ; z T o.3.x.f.f.:.A.D.J.D.A.f.-.f.f.f.f.f.f.f.f.f.f.f.%.@._ b 2 % & $ $ $ $ $ $ $ $ $ $ $ $ $ $ ",
"$ $ $ $ $ $ $ & $ & & & & & $ & & . k ( 1.f.f.f.f.F.J.J.A.%.f.f.9.9.9.f.f.9.f.9.:.9.f.&.} n . $ & $ $ $ $ $ $ $ $ $ $ $ $ $ $ $ ",
"$ $ $ $ $ $ $ $ $ & & & & & & $ & $ < r ^ { f.f.f.h.h.x.f.f.f.-.-.-.-.9.9.9.9.-.:.f.{ R 0 , $ & $ $ $ $ $ $ $ $ $ $ $ $ $ $ $ $ ",
"$ $ $ $ & & & & & & & $ & & & & & & # & G ^ 3.9.f.9.9.-.9.9.9.9.9.9.f.f.f.9.9.9.%.&.^ S $ # $ $ $ $ $ $ $ $ $ $ $ $ $ $ $ $ $ $ ",
"$ $ $ $ & $ & & & & & & & & & & & & & * * 8 ] +.x.f.f.f.9.f.9.-.-.-.9.f.-.f.&.` P Z 3 $ & $ $ $ $ $ $ $ $ $ $ $ $ $ $ $ $ $ $ $ ",
"$ $ $ $ $ $ $ $ & & & & & & $ $ $ $ $ & # 2 ] @.x.f.f.f.9.9.f.9.9.9.9.9.9.f.#.` L N > % $ $ $ $ $ $ $ $ $ $ $ $ $ $ $ $ $ $ $ $ ",
"$ $ $ $ $ $ $ $ $ & & & & & $ $ $ $ $ $ . , / +.x.f.f.f.f.f.f.9.9.f.9.9.f.f.#./ L N : . $ $ $ $ $ $ $ $ $ $ $ $ $ $ $ $ $ $ $ $ ",
"$ $ $ $ $ $ $ $ $ & & & & & $ $ $ $ $ * a v +.#.f.f.f.f.f.f.f.f.f.f.f.f.f.f.%.o._ L i 9 * $ $ $ $ $ $ $ $ $ $ $ $ $ $ $ $ $ $ $ ",
"$ $ $ $ $ $ $ $ & & & & & & $ $ $ $ % - / O.x.f.f.f.f.f.f.f.9.9.9.9.f.9.f.f.f.x.#.] ! Z ; % $ $ $ $ $ $ $ $ $ $ $ $ $ $ $ $ $ $ ",
"$ $ $ $ $ $ & $ $ & & & & & $ $ $ $ # * Y ` f.f.f.f.f.f.f.c.@.+.o.@.f.f.f.f.9.f.@.` K M = % $ $ $ $ $ $ $ $ $ $ $ $ $ $ $ $ $ $ ",
"$ $ $ $ $ $ $ $ $ & & & & $ & $ $ $ = 2 ^ { f.f.9.f.9.#.&.#.' ' ` ' &.&.&.9.9.f.#.{ L V > = $ $ $ $ $ $ $ $ $ $ $ $ $ $ $ $ $ $ ",
"$ $ $ $ $ $ $ $ & & & & & & $ $ & X z [ 3.f.f.f.c.n.7.] ` ] L Z Z L { { ] %.c.x.f.f.{ / J u # $ $ $ $ $ $ $ $ $ $ $ $ $ $ $ $ $ ",
"$ $ $ $ $ $ $ $ & & & & & & $ $ & # v } 8.c.f.7.@.#.o.U Y ~ j i i j ~ U U o.#.@.&.f.{ / J i # & $ $ $ $ $ $ $ $ $ $ $ $ $ $ $ $ ",
"$ $ $ $ $ $ $ $ & & & & & & $ & $ . l ] 3.f.c.&.] { / C Z Z > X X : C C C ~ ` / +.c.{ / J y . $ $ $ $ $ $ $ $ $ $ $ $ $ $ $ $ $ ",
"$ $ $ $ $ $ $ $ $ & & & & & & % 3 h E 7.f.9.+.` L ! S 1 3 3 = $ $ = 3 3 1 B ! J ^ o.] ` / D h 3 # $ $ $ $ $ $ $ $ $ $ $ $ $ $ $ ",
"$ $ $ $ $ $ $ $ & $ $ $ $ & & # q A X.M.8.1.` Y x V g X # # $ $ $ $ # # X g V x H ` / / ` ~ Q 9 X $ $ $ $ $ $ $ $ $ @ $ $ $ $ $ ",
"$ $ $ $ $ $ $ $ $ $ $ $ $ & & # q Z X.Z.{ / Q g $ = * & & & $ $ $ $ & & $ * = $ e J Z J ] ~ Z 4 X $ $ $ $ $ $ $ $ @ $ $ $ $ $ $ ",
"$ $ $ $ $ $ $ $ $ $ $ $ $ $ & # q Z R +.b d i 7 # $ $ $ $ $ $ $ $ $ $ $ $ % $ # 1 i y g ~ K Z 7 X $ $ $ $ $ $ $ $ @ $ $ $ $ $ $ ",
"$ $ $ $ $ $ $ $ $ $ $ $ $ $ & # q Q Z A : . # % $ $ $ $ $ $ $ $ $ $ $ $ $ $ $ $ % # . = Z Z Q 9 X $ $ $ $ $ $ $ $ $ $ $ $ $ $ $ ",
"$ $ $ $ $ $ $ $ $ $ $ $ $ $ $ % , q 7 q = $ & & $ $ $ $ $ $ $ $ $ $ $ $ $ $ $ $ $ $ $ = 4 4 5 : # $ $ $ $ $ $ $ $ $ $ $ $ $ $ $ ",
"$ $ $ $ $ $ $ $ $ $ $ $ $ $ $ $ % X X # % $ $ $ $ $ $ $ $ $ $ $ $ $ $ $ $ $ $ $ $ $ $ % X X X % $ $ $ $ $ $ $ $ o $ @ $ $ $ $ $ ",
"$ $ $ $ $ $ $ $ $ $ $ $ $ $ $ $ $ $ $ & $ $ $ $ $ $ $ $ $ $ $ $ $ $ $ $ $ $ $ $ $ $ $ $ $ $ $ $ $ $ $ $ $ $ $ @ o $ @ $ $ $ $ $ ",
"$ $ $ $ $ $ $ $ $ $ $ $ $ $ $ $ $ $ $ $ $ $ $ $ $ $ $ $ $ $ $ $ $ $ $ $ $ $ $ $ $ $ $ $ $ $ $ $ $ $ $ $ $ $ $ + o $ $ $ $ $ $ $ ",
"$ $ $ $ $ $ $ $ $ $ $ $ $ $ $ $ $ $ $ $ $ $ $ $ $ $ $ $ $ $ $ $ $ $ $ $ $ $ $ $ $ $ $ $ $ $ $ $ $ $ $ $ $ $ $ @ @ $ $ $ $ $ $ $ ",
"@ $ $ $ $ $ $ $ $ $ $ $ $ $ $ $ $ $ $ $ $ $ $ $ $ $ $ $ $ $ $ $ $ $ $ $ $ $ $ $ $ $ $ $ $ $ $ $ $ $ $ $ $ $ $ $ @ $ $ o $ $ $ $ ",
"$ $ $ @ $ $ $ @ $ @ $ @ $ $ $ $ $ $ $ $ $ $ $ $ $ $ $ $ $ $ $ $ $ $ $ $ $ $ $ $ $ $ $ $ $ $ $ $ $ $ $ $ $ O O o $ $ $ o $ $ $ $ ",
"$ $ $ $ $ $ $ $ $ @ $ $ $ $ $ $ $ $ $ $ $ $ $ $ $ $ $ $ $ $ $ $ $ $ $ $ $ $ $ $ $ $ $ $ $ $ $ $ $ $ $ $ $ $ + o @ $ $ $ $ $ $ $ ",
"$ $ $ $ $ $ $ $ $ $ $ $ $ $ $ $ $ $ $ $ @ $ $ $ $ $ $ $ $ $ $ $ $ $ $ $ $ $ $ $ $ $ $ $ $ $ $ $ @ $ $ $ $ $ o o $ $ $ $ $ $ O $ ",
"$ $ $ $ $ $ $ $ $ $ $ $ $ $ $ $ $ $ $ $ $ $ $ $ $ $ $ $ $ $ $ $ $ $ $ $ $ $ $ $ $ $ $ $ $ $ $ @ $ $ $ $ $ @ $ $ $ $ $ $ $ $ $ $ ",
"$ $ o $ $ $ $ @ $ $ $ $ $ $ $ $ $ $ $ $ $ $ $ $ $ $ $ $ $ $ $ $ $ $ $ $ $ $ $ $ $ $ $ $ $ $ $ $ $ $ $ O $ o o $ $ $ $ $ @ $ $ $ ",
"$ $ $ $ $ @ $ $ $ $ $ $ $ $ $ $ $ + $ $ $ $ $ $ $ $ $ $ $ $ $ $ $ $ $ $ $ $ $ $ $ $ $ $ $ $ $ $ $ $ $ $ $ O o o O $ $ @ o @ o $ ",
"$ $ $ $ $ $ $ $ $ $ $ $ $ $ $ $ $ + o @ $ $ $ $ $ $ $ @ $ $ $ $ $ $ $ $ $ $ $ $ $ $ $ $ $ $ $ $ $ $ $ + $ o @ $ $ @ $ $ + $ $ $ ",
"$ $ $ $ $ $ $ $ $ $ $ $ $ $ $ $ $ $ @ + $ @ $ $ $ $ $ $ $ $ $ $ $ $ $ $ $ $ $ $ $ $ $ $ $ $ $ $ $ o @ $ o o $ @ o $ $ $ $ @ $ $ ",
"@ @ $ $ $ $ $ $ $ $ $ $ $ $ $ $ $ $ $ $ $ $ $ $ @ $ $ $ $ $ $ $ $ $ $ $ @ $ $ $ $ $ $ $ $ $ $ $ $ O $ $ O o $ $ $ $ $ $ $ @ @ $ ",
"$ @ @ $ $ $ $ $ @ $ $ $ $ $ $ $ $ $ $ o $ $ @ $ + $ $ $ $ $ $ $ $ + @ $ $ $ $ $ $ $ $ $ $ @ + $ $ @ $ $ $ $ $ $ $ $ $ $ $ $ $ $ "
};
