/* XPM */
static char *advri_9ppbn[] = {
/* columns rows colors chars-per-pixel */
"32 32 119 2 ",
"   c #030405",
".  c #0B0706",
"X  c #050A0A",
"o  c #0A0B0A",
"O  c #100304",
"+  c #130C0B",
"@  c #1D0C0B",
"#  c #13110D",
"$  c #100F10",
"%  c #1B0B10",
"&  c #0D1215",
"*  c #141314",
"=  c #181716",
"-  c #191817",
";  c #171618",
":  c #181718",
">  c #151919",
",  c #1B1B1B",
"<  c #230D0C",
"1  c #2D0D0B",
"2  c #29150E",
"3  c #211C0F",
"4  c #32110C",
"5  c #3A0F10",
"6  c #281111",
"7  c #201F1E",
"8  c #2B1B18",
"9  c #3C1210",
"0  c #3D1F14",
"q  c #311C19",
"w  c #2A2111",
"e  c #22201E",
"r  c #322513",
"t  c #3E231A",
"y  c #3C2E1B",
"u  c #222221",
"i  c #3B2724",
"p  c #322B25",
"a  c #342D2A",
"s  c #36312C",
"d  c #3C352F",
"f  c #273331",
"g  c #45090B",
"h  c #4D090B",
"j  c #4B110E",
"k  c #56120E",
"l  c #58120E",
"z  c #461110",
"x  c #4A1311",
"c  c #4D1F18",
"v  c #541411",
"b  c #5E1B16",
"n  c #66120E",
"m  c #6C130F",
"M  c #7F140F",
"N  c #671611",
"B  c #6A1510",
"V  c #6C1B15",
"C  c #731510",
"Z  c #7B1611",
"A  c #721E14",
"S  c #7C1D16",
"D  c #452512",
"F  c #442F1B",
"G  c #5C271E",
"H  c #4E311A",
"J  c #6A2119",
"K  c #6F281F",
"L  c #72251C",
"P  c #792119",
"I  c #762C19",
"U  c #7E291A",
"Y  c #61361A",
"T  c #6C3A1C",
"R  c #542F24",
"E  c #42362A",
"W  c #543327",
"Q  c #5F3025",
"!  c #573B21",
"~  c #593E26",
"^  c #6C2B21",
"/  c #7A3B22",
"(  c #5D4027",
")  c #4B4137",
"_  c #4B413B",
"`  c #6E4920",
"'  c #744220",
"]  c #594F45",
"[  c #85130F",
"{  c #841512",
"}  c #8B1512",
"|  c #831813",
" . c #8C1914",
".. c #921613",
"X. c #9A1712",
"o. c #951913",
"O. c #9C1C16",
"+. c #9D1E17",
"@. c #9D1914",
"#. c #901E18",
"$. c #A41A14",
"%. c #A01F17",
"&. c #A81F17",
"*. c #A61F18",
"=. c #A91D18",
"-. c #84231C",
";. c #8C291B",
":. c #8A2D1C",
">. c #9C2519",
",. c #A1221A",
"<. c #AF2019",
"1. c #B12119",
"2. c #B8231A",
"3. c #BA3421",
"4. c #AE4626",
"5. c #B14C28",
"6. c #B1502A",
"7. c #B8552C",
"8. c #94612B",
/* pixels */
"o o o o o o o o o o o o o o o o o o o o o o o o o o o o o o o o ",
"o o o o o o o o o o o o o o o o   o o o o o o o o o o o o o o o ",
"o o o o o o o o o o o o o o o o p o o o o o o o o o o o o o o o ",
"o o o o o o o o o o o o o o o   d )   o o o o o o o o o o o o o ",
"o o o o o o o o o * , o o o o o 7 ] e   * * o o o o o o o o o o ",
"o o o o o o o o * , * o o o X   u _ s   * u * o o o o o o o o o ",
"o o o o o o o * : * * o X + j N i f a < X * ; * o o o o o o o o ",
"o o o o o o * ; * * * X 1 Z &.o.} -.#.} 5 & * ; * o o o o o o o ",
"o o o o o o ; * * $ * < | <.{ Y ' ..,.T I % * * ; * o o o o o o ",
"o o o o o ; * ; * * & v  .1.g ` 8.9 t H D % * : * ; o o o o o o ",
"o o o o * , , ; * & 6 } ..*. .1 h =.C Z { S & : , , * o o o o o ",
"o o o o , , , , * & x K ^ o.%.2.3.4.7.5.5.c & , , , , o o o o o ",
"o o o * e u , u , * n W Q @.Z 4 r w 3 # 0 > ; , u , , * o o o o ",
"o o o , u 7 , - * o B { Z O.|         O z X $ , , , u , o o o o ",
"o o # u * * * o o @ Z P V  .O.. + q 8   2 y o * o * , u * o o o ",
"o o = ,   o o o o + n W L X.@.A H ~ ( F ! / + X o o o , , o o o ",
"o o = o o o o o o o 1 v  .P L $.>.U :.;.S n o o o o o o , o o o ",
"o o * o o o o o o o * v { G E C } [ } { Z 1 X o o o o o * o o o ",
"o o o o o o o o o ; + k n B b | S L | Z B * o o o o o o * o o o ",
"o o o o o o o o , o X < l v m Z J R | | @ o , o o o o o o o o o ",
"o o o o o o o * * o o o o = l B C n j @ o o * , o o o o o o o o ",
"o o o o o o o * * o o o o * + < @ X X X o o o * * o o o o o o o ",
"o o o o o o o - o o o o * - X X o o * # o o o * , o o o o o o o ",
"o o o o o o o 7 = o o o * * o o o o * * o o o - e o o o o o o o ",
"o o o o o o o , , o o o * o o o o o * * o o o * , o o o o o o o ",
"o o o o o o o * * o o * * o o o o o * o o o o + o o o o o o o o ",
"o o o o o o o o o o o * o o o o o * * o o o o o o o o o o o o o ",
"o o o o o o o o o o * * o o o o o , o o o o o o o o o o o o o o ",
"o o o o o o o o o o * u o o o o o , , o o o o o o o o o o o o o ",
"o o o o o o o o o o o , o o o o o o * o o o o o o o o o o o o o ",
"o o o o o o o o o o o o o o o o o o o o o o o o o o o o o o o o ",
"o o o o o o o o o o o o o o o o o o o o o o o o o o o o o o o o "
};
