/* XPM */
static char *abe8m_bt3xf[] = {
/* columns rows colors chars-per-pixel */
"32 32 218 2 ",
"   c None",
".  c #040505",
"X  c #050505",
"o  c #060505",
"O  c #0E0605",
"+  c #0D0706",
"@  c #100505",
"#  c #1C0907",
"$  c #170F0D",
"%  c #0F0E10",
"&  c #111013",
"*  c #121114",
"=  c #111214",
"-  c #131215",
";  c #131315",
":  c #151214",
">  c #141415",
",  c #151416",
"<  c #141417",
"1  c #151517",
"2  c #161517",
"3  c #161617",
"4  c #171617",
"5  c #181517",
"6  c #1E1516",
"7  c #1B1817",
"8  c #151618",
"9  c #161618",
"0  c #161718",
"q  c #171718",
"w  c #161619",
"e  c #18171A",
"r  c #1D1618",
"t  c #181819",
"y  c #191919",
"u  c #18191A",
"i  c #18181B",
"p  c #19191B",
"a  c #1A191B",
"s  c #1A1A1A",
"d  c #1A191C",
"f  c #1B191D",
"g  c #1B1B1C",
"h  c #1B1A1D",
"j  c #1D1A1D",
"k  c #1C1C1C",
"l  c #1C1C1D",
"z  c #1D1C1D",
"x  c #1D1D1D",
"c  c #1F1E1D",
"v  c #1E1D1E",
"b  c #1E1E1E",
"n  c #1F1E1E",
"m  c #1F1F1E",
"M  c #1F1F1F",
"N  c #24170D",
"B  c #291C0F",
"V  c #3D130D",
"C  c #211114",
"Z  c #271515",
"A  c #291011",
"S  c #2E1212",
"D  c #281616",
"F  c #2A1A16",
"G  c #2D1B17",
"H  c #201F1F",
"J  c #341B11",
"K  c #20201F",
"L  c #312011",
"P  c #392212",
"I  c #211F21",
"U  c #202020",
"Y  c #212020",
"T  c #212021",
"R  c #212121",
"E  c #222120",
"W  c #222121",
"Q  c #222221",
"!  c #232221",
"~  c #232322",
"^  c #242322",
"/  c #242323",
"(  c #252423",
")  c #242324",
"_  c #262524",
"`  c #262525",
"'  c #272625",
"]  c #272526",
"[  c #34312E",
"{  c #3A3833",
"}  c #41120F",
"|  c #46120E",
" . c #59120F",
".. c #5C130F",
"X. c #5D130F",
"o. c #421311",
"O. c #481412",
"+. c #411F14",
"@. c #501311",
"#. c #531310",
"$. c #561511",
"%. c #5C1310",
"&. c #5A1613",
"*. c #5E1610",
"=. c #531A13",
"-. c #62130F",
";. c #611410",
":. c #671410",
">. c #651712",
",. c #681510",
"<. c #691611",
"1. c #691612",
"2. c #6D1511",
"3. c #6E1511",
"4. c #611C16",
"5. c #691A17",
"6. c #6E1A15",
"7. c #6E1C14",
"8. c #6B1F18",
"9. c #701612",
"0. c #741511",
"q. c #7B1611",
"w. c #791612",
"e. c #791712",
"r. c #7B1712",
"t. c #7C1712",
"y. c #771813",
"u. c #711B15",
"i. c #771C14",
"p. c #761E15",
"a. c #7B1913",
"s. c #7C1913",
"d. c #7F1812",
"f. c #7E1813",
"g. c #7F1813",
"h. c #7C1914",
"j. c #7A1E17",
"k. c #7A1F18",
"l. c #492212",
"z. c #4B2219",
"x. c #4D2019",
"c. c #482E1A",
"v. c #552E18",
"b. c #542C1B",
"n. c #56351E",
"m. c #632616",
"M. c #61241C",
"N. c #6B261D",
"B. c #752019",
"V. c #76221A",
"C. c #74241B",
"Z. c #75241C",
"A. c #7F221C",
"S. c #71281F",
"D. c #7F2819",
"F. c #663219",
"G. c #6D331A",
"H. c #6A3F1D",
"J. c #743B1D",
"K. c #4A2B27",
"L. c #572D23",
"P. c #5C2A20",
"I. c #5D2D22",
"U. c #4F3025",
"Y. c #41312D",
"T. c #583923",
"R. c #5A3A24",
"E. c #413B36",
"W. c #672B22",
"Q. c #793A22",
"!. c #48413A",
"~. c #4F463E",
"^. c #564B42",
"/. c #65574A",
"(. c #841712",
"). c #861712",
"_. c #811813",
"`. c #821A13",
"'. c #841913",
"]. c #831914",
"[. c #831A14",
"{. c #821B14",
"}. c #851A14",
"|. c #861B14",
" X c #871C16",
".X c #881813",
"XX c #8B1813",
"oX c #891914",
"OX c #8A1A14",
"+X c #8D1A14",
"@X c #8F1A14",
"#X c #8F1A15",
"$X c #891F19",
"%X c #911A14",
"&X c #901B15",
"*X c #911B15",
"=X c #941A14",
"-X c #961B15",
";X c #971B15",
":X c #961C16",
">X c #9B1C16",
",X c #9B1D16",
"<X c #A11D17",
"1X c #A21E17",
"2X c #A51E17",
"3X c #842719",
"4X c #862B1B",
"5X c #92221A",
"6X c #942318",
"7X c #9A2018",
"8X c #A22018",
"9X c #A22019",
"0X c #A52E1D",
"qX c #A33F23",
"wX c #9C4224",
"eX c #875125",
"rX c #A24726",
"tX c #A54B27",
/* pixels */
"                                                                ",
"                                                                ",
"                                                                ",
"                                ^./.                            ",
"                    `             ~.                            ",
"                  )             { E.!.    `                     ",
"                h p           9XK.[ Y.    ) I                   ",
"              e , & p     *X>X#X XA.3X#X5.j h h                 ",
"            p , ; & 8   OX<X'.F.J.}.5XG.m.C p 8 h               ",
"          k 8 , ; ; : &..X2X..H.eX=.z.b.l.A 8 p , k             ",
"          k 8 , , ; S _.*X<X}.| *.7Xp.[._.6.5 h p k             ",
"        E k p p , ; O.N.S.:X>X9X0XqXtXrXwXx., k k k E           ",
"        E H k k p r <.I.W.:Xr.V P L B N +.p 8 k k k E (         ",
"      E E K H K p   t.h.g.-Xg.O o o o @ o.    k E k E E         ",
"      ^   H         r.B.u.#X*X# $ G F O J           E E         ",
"      `             <.L.Z.-X-X7.b.T.R.c.n.Q.          ^ (       ",
"                    } $.[.k.C.-X6XD.4X3Xp.a.            `       ",
"                    6 #.r.M.U.y..X)..X).0.                      ",
"                  k   ..-.>.4.g.j.B.[.r.9.Z                     ",
"                E       %.#.>.r.8.P.g.g.    E                   ",
"                          D ;.2.2.<. .                          ",
"                          k         %                           ",
"              E                                 (               ",
"              ^                                 (               ",
"              ( (       k                       ^               ",
"                                                                ",
"                      k                                         ",
"                      k           k                             ",
"                      ^           E ^                           ",
"                      `                                         ",
"                                                                ",
"                                                                "
};
