/* XPM */
static char *ayedc_22htz[] = {
/* columns rows colors chars-per-pixel */
"32 32 186 2 ",
"   c None",
".  c #151516",
"X  c #151517",
"o  c #151617",
"O  c #161616",
"+  c #161617",
"@  c #161717",
"#  c #171717",
"$  c #1A1616",
"%  c #1B1616",
"&  c #151618",
"*  c #161618",
"=  c #161718",
"-  c #171718",
";  c #171719",
":  c #171918",
">  c #171819",
",  c #181818",
"<  c #181918",
"1  c #181819",
"2  c #191819",
"3  c #191919",
"4  c #1A1A19",
"5  c #18181A",
"6  c #19191A",
"7  c #1A191A",
"8  c #1A1A1A",
"9  c #1B1B1A",
"0  c #1A1A1B",
"q  c #1B1B1B",
"w  c #1C1C1B",
"e  c #1D1D1B",
"r  c #1B1B1C",
"t  c #1C1C1C",
"y  c #1D1D1C",
"u  c #1C1C1D",
"i  c #1D1D1D",
"p  c #1E1E1C",
"a  c #1D1D1E",
"s  c #1E1E1E",
"d  c #1E1E1F",
"f  c #1F1F1F",
"g  c #231B1A",
"h  c #221B1B",
"j  c #251A18",
"k  c #211C1A",
"l  c #281B19",
"z  c #2C1918",
"x  c #2C1B19",
"c  c #321817",
"v  c #3F1A16",
"b  c #301A18",
"n  c #28201C",
"m  c #202020",
"M  c #222021",
"N  c #222121",
"B  c #222122",
"V  c #232122",
"C  c #222222",
"Z  c #232222",
"A  c #242223",
"S  c #242324",
"D  c #252324",
"F  c #252425",
"G  c #262425",
"H  c #262525",
"J  c #262526",
"K  c #272626",
"L  c #272627",
"P  c #282627",
"I  c #282728",
"U  c #292728",
"Y  c #3C3C33",
"T  c #401A16",
"R  c #7F130C",
"E  c #7D130E",
"W  c #78150F",
"Q  c #7D140E",
"!  c #7D150F",
"~  c #7F160F",
"^  c #731510",
"/  c #721610",
"(  c #731711",
")  c #771811",
"_  c #7E1A11",
"`  c #7B1C12",
"'  c #7A1D15",
"]  c #7C1C14",
"[  c #7E1E16",
"{  c #46271C",
"}  c #512A1D",
"|  c #542C1D",
" . c #66271F",
".. c #792017",
"X. c #7A2216",
"o. c #712219",
"O. c #79241A",
"+. c #73281E",
"@. c #7B281A",
"#. c #7B2A1E",
"$. c #70321F",
"%. c #7B371F",
"&. c #462B23",
"*. c #5B2920",
"=. c #40372F",
"-. c #4F342B",
";. c #722F25",
":. c #703320",
">. c #524338",
",. c #634236",
"<. c #4D4B40",
"1. c #5B5247",
"2. c #5A5448",
"3. c #615A4E",
"4. c #81130C",
"5. c #82130D",
"6. c #83150E",
"7. c #81170F",
"8. c #82160F",
"9. c #86140D",
"0. c #85150E",
"q. c #88150E",
"w. c #801610",
"e. c #821710",
"r. c #801810",
"t. c #801A11",
"y. c #841811",
"u. c #851811",
"i. c #871810",
"p. c #831C13",
"a. c #8B1810",
"s. c #8D1810",
"d. c #921B13",
"f. c #931B13",
"g. c #901C13",
"h. c #961C13",
"j. c #911F15",
"k. c #921E15",
"l. c #9B1E13",
"z. c #9F1F15",
"x. c #A11B11",
"c. c #A31F14",
"v. c #8D2318",
"b. c #872A1B",
"n. c #862B1B",
"m. c #85281C",
"M. c #8C2A1C",
"N. c #942217",
"B. c #982216",
"V. c #9B2317",
"C. c #9E2015",
"Z. c #9E2316",
"A. c #9E2317",
"S. c #9F2317",
"D. c #992717",
"F. c #9A2616",
"G. c #9A2717",
"H. c #9B2717",
"J. c #9E2717",
"K. c #9F2619",
"L. c #902D1F",
"P. c #A02015",
"I. c #A12115",
"U. c #A22216",
"Y. c #A42115",
"T. c #A72115",
"R. c #A42116",
"E. c #A52317",
"W. c #A02517",
"Q. c #AD2517",
"!. c #A12719",
"~. c #A62518",
"^. c #AE2718",
"/. c #A3281A",
"(. c #A8281A",
"). c #A82E1E",
"_. c #AB2E1E",
"`. c #B32819",
"'. c #B12B1B",
"]. c #B22B1B",
"[. c #B02D1C",
"{. c #AF301E",
"}. c #932F21",
"|. c #9A3425",
" X c #AE3523",
".X c #A15025",
/* pixels */
"                                                                ",
"                                                                ",
"                                                                ",
"                  M M                   M d                     ",
"                d 6 d                   6 6 d                   ",
"              d 6 O r                   6 O 6 d                 ",
"            d 6 6 O 6         3.        6 O 6 6 d               ",
"            6 ; ; O 6       1.2.      w ; O 6 6 6 d             ",
"          6 ; 6 ; ; ; x L.|.>.<.,. X#.j ; O ; 6 ; 6             ",
"        d 6 6 6 O ; b M.{.}.=.Y -.).).m.x O ; 6 6 6 d           ",
"        6 w 6 6 O % O.[.]./.*.&.+.^.].].o.% 6 6 6 d 6           ",
"        6 w 6 6 O v !.~.  Y.Y.U.Y.c.  Q.K.T : 6 6 d 6 6         ",
"      6 w d 6 :   ..~.        x.        Y.v.  6 6 d d 6         ",
"      6 d   O     N.S.        s.        U.B.    ;   w 6         ",
"      d           @.B.S.    h.  d.    S.l.%.          w 6       ",
"                  p.k.U.W.J.G.G.G.G.S.z.k...            w       ",
"                  u.u.g.    .X        d.6.~                     ",
"                g ( q.u.              a.9.( g                   ",
"              M     ] '   k 6 6 6 n   e.9.    M                 ",
"                    ;.] n.:.| { } $.n.~ ~                       ",
"            L         W 6.r._ ` r.6.~  .        L               ",
"            U         c ( ) 4.4.E E ( l         P               ",
"            U       M                   d                       ",
"            L       d                   d       L               ",
"            L       6                   6       L L             ",
"            S       6                   6       S A             ",
"            S         6               6         M M             ",
"                      d               d                         ",
"                    M M               M M                       ",
"                                                                ",
"                                                                ",
"                                                                "
};
