/* XPM */
static char *abycl_wc813[] = {
/* columns rows colors chars-per-pixel */
"32 32 127 2 ",
"   c None",
".  c #030707",
"X  c #060807",
"o  c #0B0A0A",
"O  c #150D0C",
"+  c #151514",
"@  c #171817",
"#  c #1F1817",
"$  c #1D1D1C",
"%  c #210C0B",
"&  c #2C0D0B",
"*  c #370F0D",
"=  c #2D110F",
"-  c #371D0F",
";  c #201715",
":  c #281B11",
">  c #221E1D",
",  c #2C1A19",
"<  c #3F1912",
"1  c #311D1A",
"2  c #20201E",
"3  c #372C1C",
"4  c #3F2E1B",
"5  c #232321",
"6  c #43110E",
"7  c #4E140F",
"8  c #40190F",
"9  c #55130E",
"0  c #59130E",
"q  c #471610",
"w  c #4B1410",
"e  c #481814",
"r  c #531611",
"t  c #5B1511",
"y  c #531913",
"u  c #5A1810",
"i  c #621711",
"p  c #6B1610",
"a  c #641913",
"s  c #6E1B14",
"d  c #711A13",
"f  c #7C1C14",
"g  c #4A211D",
"h  c #452E19",
"j  c #502618",
"k  c #502A1D",
"l  c #592B1B",
"z  c #55371D",
"x  c #622015",
"c  c #632814",
"v  c #752316",
"b  c #72221B",
"n  c #79241C",
"m  c #613F11",
"M  c #473222",
"N  c #45302D",
"B  c #5F3E24",
"V  c #5A342E",
"C  c #453F3C",
"Z  c #672F28",
"A  c #752B21",
"S  c #7B2E23",
"D  c #6E372D",
"F  c #7B3226",
"G  c #733B22",
"H  c #754A12",
"J  c #794813",
"K  c #694522",
"L  c #704125",
"P  c #774F27",
"I  c #74502A",
"U  c #7F5228",
"Y  c #7D4937",
"T  c #4E4743",
"R  c #514944",
"E  c #584D46",
"W  c #635446",
"Q  c #62554A",
"!  c #66584E",
"~  c #6E5D4F",
"^  c #776657",
"/  c #7E6A58",
"(  c #821D16",
")  c #8D1E16",
"_  c #911F16",
"`  c #981F16",
"'  c #852016",
"]  c #8D2117",
"[  c #812519",
"{  c #8B2519",
"}  c #8B2C1B",
"|  c #942117",
" . c #9C2217",
".. c #942419",
"X. c #9B2418",
"o. c #952F1C",
"O. c #9B2E1C",
"+. c #88331D",
"@. c #A02217",
"#. c #A12317",
"$. c #A22318",
"%. c #A42318",
"&. c #A02519",
"*. c #A02619",
"=. c #A02719",
"-. c #A72418",
";. c #A72519",
":. c #A42719",
">. c #A52719",
",. c #A62819",
"<. c #A02B1C",
"1. c #AB2919",
"2. c #AA2A1A",
"3. c #AE2819",
"4. c #AF281A",
"5. c #AE291A",
"6. c #B12919",
"7. c #B0291A",
"8. c #B02A1A",
"9. c #B12A1A",
"0. c #B22A1A",
"q. c #B42A1A",
"w. c #B52B1A",
"e. c #813227",
"r. c #8E3224",
"t. c #813A2C",
"y. c #865829",
/* pixels */
"                                                                ",
"                                                                ",
"                    W                 2 2                       ",
"                    ~                 @ @ $ $                   ",
"                  / Q             X     @ @ $ $                 ",
"                  ^ E     a d     X X + @ @ $ $ $               ",
"                  ! R N ] >.,.X.' 6 o + $ @ $ $ $ $             ",
"                  T C Z >.w.0.0.0.=.r $ $ $ $ $ $ $ $           ",
"                A V S 2.0.0.0.O.<.X.g $ > $ 2 5 $ 5 2 $         ",
"              f =.=.f u ..w.O.I L [ 1 $ 5 5 $ 5 $ 5 5 $         ",
"              8 v a J m w 0.2.G B ..f y 1 5 $ 5 5 $ 5 5 $       ",
"              - c i H m r 3.3.X...$. .) a ; $ 5 5 2 5 5 $       ",
"              s q ' r r X.3.>.>.%.@.) t.A & + +   2 2 5 5 @     ",
"              } o.o.O.{ u a | @... .` F A 6 o X   $ @   2 $     ",
"              y.y.K h : . % (  ...r.{ ) f i     X         $     ",
"                  < o o + = |  .] Y S v s 0               $     ",
"                  6 O > > y  . ._ ( f l j 9                     ",
"                P z 4 M k ] @.| f ( d r u 6                     ",
"                [ } +.} ..X..._ f f i , 1                       ",
"                t ( _ _ | e.D f l a p r > $                     ",
"                + w d f ) n b x 3 r 0     >                     ",
"              @       7 a d p e # *       $                     ",
"            $ $       X       > $         $                     ",
"            2         o       2           $                     ",
"            $       +         2           2                     ",
"            @         +         $         5                     ",
"                                          $ @                   ",
"                        +         $       + +                   ",
"                    + + +         $ $                           ",
"                                $ 2                             ",
"                                                                ",
"                                                                "
};
