/* XPM */
static char *apy3u_cnaom[] = {
/* columns rows colors chars-per-pixel */
"32 32 110 2 ",
"   c #040E13",
".  c #0E0F13",
"X  c #110F13",
"o  c #0F1013",
"O  c #0E1319",
"+  c #111014",
"@  c #1D1215",
"#  c #14151A",
"$  c #1B1419",
"%  c #17181E",
"&  c #19191F",
"*  c #231215",
"=  c #2B1416",
"-  c #2F1816",
";  c #271619",
":  c #291619",
">  c #29181C",
",  c #321516",
"<  c #3C1616",
"1  c #3F1719",
"2  c #371C1F",
"3  c #39191B",
"4  c #151920",
"5  c #1C1D24",
"6  c #131F29",
"7  c #201D25",
"8  c #2D1E24",
"9  c #341E22",
"0  c #1F2027",
"q  c #1E2129",
"w  c #212126",
"e  c #23222A",
"r  c #29262B",
"t  c #2C2A2D",
"y  c #3B2A23",
"u  c #312E2E",
"i  c #2C2A31",
"p  c #312E30",
"a  c #421716",
"s  c #4A1716",
"d  c #421817",
"f  c #4E1A17",
"g  c #45191A",
"h  c #4A1A19",
"j  c #551715",
"k  c #5B1715",
"l  c #551916",
"z  c #5B1917",
"x  c #521A19",
"c  c #5B1B19",
"v  c #6D1714",
"b  c #641916",
"n  c #6C1A16",
"m  c #641D19",
"M  c #6B1D19",
"N  c #731A16",
"B  c #7B1B17",
"V  c #721F1D",
"C  c #731D19",
"Z  c #7A1E19",
"A  c #781F1C",
"S  c #57201B",
"D  c #62201A",
"F  c #64261D",
"G  c #6C241C",
"H  c #6D261D",
"J  c #6F241E",
"K  c #68291E",
"L  c #6A2E1F",
"P  c #742119",
"I  c #77221F",
"U  c #73241D",
"Y  c #71251F",
"T  c #70201D",
"R  c #7A211E",
"E  c #7C211D",
"W  c #512D25",
"Q  c #4E3428",
"!  c #593428",
"~  c #652C23",
"^  c #792A21",
"/  c #7F2B23",
"(  c #693024",
")  c #5D4534",
"_  c #801B16",
"`  c #811B16",
"'  c #821C17",
"]  c #82221E",
"[  c #84211C",
"{  c #8B221E",
"}  c #8A261E",
"|  c #8E251F",
" . c #8C211C",
".. c #842C1F",
"X. c #97231E",
"o. c #99251F",
"O. c #A4231E",
"+. c #A2261E",
"@. c #A2241E",
"#. c #A8251E",
"$. c #852720",
"%. c #8D2E21",
"&. c #962620",
"*. c #9C2821",
"=. c #813F2F",
"-. c #A12620",
";. c #A42620",
":. c #BD2821",
">. c #9C6630",
",. c #A87937",
/* pixels */
". o . . . . . o o o . . o . . . o o o . . . . o o o . . . . . o ",
". . . . . . . o o + + o o . . o o o o . . o o o o o . . . . . o ",
". . . . . . . o + . . + o o o + + + o o o . . + + o o . . . . . ",
"o o o o . . o . . + & + o + + o . . o + . + + . . + o . . . . o ",
"o + . . o + . + & r & . + . . @ @ @ + . + + e 5 + . + o . . . . ",
"o + o + o . % e 5 e + + o * f F J P m ; o . 5 q 0 # . o . . . . ",
"+ o + . o 5 r e 5 e + o @ l b ) =.O.X.E o o e q q e 5 . . o . . ",
"o + + + 5 r e e e e + . @ j l $.*.-.o.;.< o e e e e e 5 . o o o ",
"o + . 5 t e e e e e &   1 M n K ,.( J >.- 4 e e e t r r 5 . + o ",
"+ . & t t e e t e e 5 O * f C ] %.| I $.> 5 e e q t u t r # . + ",
"o + e u u e t t e q q 7 $ @ g Z V W ~ g 6 e e e q t u t r 5 . + ",
". & p t r e r 5 q 2 c b l m m m J ^ U l 8 5 & 5 e t u u t e + . ",
". w t + % w +   : N B B N z C m m M C ` n + . + e w + & t r # . ",
"+ w # . + # . = b B m z B n m M M b ' b N = o + % + . . # e % . ",
"+ % . + + o + l C b s l C B B n n Z n a N j + + + o + + . % % . ",
"+ + o + o o c U d * s v ! Q N ` N l @ 1 S y   + + o + o o + # . ",
"o o + +   = +.{ o + f j M m N n b = o + a } 1   o + + o o + + o ",
"o o o + o * ( / X * z j k k l j b , o o @ C #.A @   + + o o o o ",
"o o o + +   E E . = h x b b n N c 3 . + o o = M E f o o + o o o ",
"o o o o +   M {   o 5 7 8 8 9 9 q e # . + o o   g :.x   + + o o ",
"+ o o o +   x +.m . & r r 5 O 4 e t r # . + + + m x X.h o + + + ",
"o o o o + o m X.M < o e t e . + % e i e o o o @ , . m C @ . + + ",
"o o o + o + f [ h @ + 5 t e # + . % 5 T M + o o . @ 1 @ . + + + ",
"o o o o + o + = 1 + . # 8 E ;   + + + M  .@ o + + o . . o o o o ",
"o o o o + + o . . o % 5 h M @ o + + 5 9 > . + o o + + + o o o o ",
"o o o o + + + + o # e e 7 o o + o # q q # X + + o o o o o o o o ",
"o o o o + o + o o h 3 % + + + + . $ 9 & + + + o o o o o . . o + ",
"o o o o o + o o x C @     + o + . a C +     o o o o o o . . o o ",
"o o o o o +   * M  .{ c = o + o + l C [ m < + o + o o . . . . . ",
"o o o o o o o o o * , = * + o o + o o = a , + o o o . . . . . . ",
"o o o o o o o o .       . + + + o o +       . o o o . . . o o o ",
". o o o o o o o o + + + + + o o o + + + + + o o o . . . . o . o "
};
