/* XPM */
static char *a5nu1_favug[] = {
/* columns rows colors chars-per-pixel */
"32 32 150 2 ",
"   c None",
".  c #1B1E33",
"X  c #161A3A",
"o  c #191D3D",
"O  c #29193C",
"+  c #37173C",
"@  c #1E213D",
"#  c #212337",
"$  c #28203E",
"%  c #332B3B",
"&  c #4E1B35",
"*  c #561A34",
"=  c #531D3A",
"-  c #5E1D38",
";  c #631C2E",
":  c #681E2D",
">  c #701E29",
",  c #661D30",
"<  c #4B233E",
"1  c #522837",
"2  c #54233C",
"3  c #5E233B",
"4  c #602034",
"5  c #6A253C",
"6  c #7D2633",
"7  c #72243D",
"8  c #7D2C3E",
"9  c #191D41",
"0  c #0C1156",
"q  c #03105A",
"w  c #091158",
"e  c #161457",
"r  c #1C1454",
"t  c #22144C",
"y  c #3F1945",
"u  c #3E1A4D",
"i  c #2C1752",
"p  c #2E1854",
"a  c #3A1A52",
"s  c #1C2243",
"d  c #1C2149",
"f  c #1C2352",
"g  c #222541",
"h  c #2E2245",
"j  c #262943",
"k  c #2B2D45",
"l  c #21274D",
"z  c #25294E",
"x  c #2B2E4A",
"c  c #352345",
"v  c #3C2845",
"b  c #362449",
"n  c #2F3146",
"m  c #2F324F",
"M  c #323346",
"N  c #33344A",
"B  c #37384B",
"V  c #3B3B4C",
"C  c #222751",
"Z  c #262B50",
"A  c #272D5C",
"S  c #2C3056",
"D  c #333553",
"F  c #363853",
"G  c #3C3C52",
"H  c #333659",
"J  c #373A5C",
"K  c #3D3D5B",
"L  c #313663",
"P  c #521D44",
"I  c #541F4E",
"U  c #501F51",
"Y  c #4F2443",
"T  c #4F2748",
"R  c #4D2848",
"E  c #5C2E4A",
"W  c #44364C",
"Q  c #403F4F",
"!  c #5D3043",
"~  c #4B3152",
"^  c #413E5B",
"/  c #622743",
"(  c #66234D",
")  c #6E2449",
"_  c #7F2741",
"`  c #712D42",
"'  c #7B274A",
"]  c #7B284C",
"[  c #603047",
"{  c #6C364E",
"}  c #413F61",
"|  c #3E4051",
" . c #40404F",
".. c #424253",
"X. c #4A4851",
"o. c #42425B",
"O. c #4B4A5D",
"+. c #434562",
"@. c #494A64",
"#. c #66646E",
"$. c #64657F",
"%. c #89252F",
"&. c #862539",
"*. c #882738",
"=. c #842D3E",
"-. c #8C2D3C",
";. c #9B2B3B",
":. c #AC2F3C",
">. c #A42D3C",
",. c #B7333E",
"<. c #822741",
"1. c #872945",
"2. c #882A47",
"3. c #912E40",
"4. c #9F2F47",
"5. c #972D49",
"6. c #843643",
"7. c #933E4D",
"8. c #9A3B4E",
"9. c #AA2F42",
"0. c #AD3246",
"q. c #A0374C",
"w. c #B43344",
"e. c #BC3544",
"r. c #BA3548",
"t. c #B4384A",
"y. c #BB3B4A",
"u. c #C23646",
"i. c #C13947",
"p. c #CC3845",
"a. c #C43748",
"s. c #C13D4C",
"d. c #CF3E4B",
"f. c #D33A45",
"g. c #DC3C46",
"h. c #D23E49",
"j. c #E43E46",
"k. c #E83E46",
"l. c #9A4F5E",
"z. c #B9414F",
"x. c #AC4252",
"c. c #A14F5E",
"v. c #AD5C70",
"b. c #C44350",
"n. c #6D6D83",
"m. c #727493",
"M. c #807C83",
"N. c #89858B",
"B. c #868394",
"V. c #91879C",
/* pixels */
"                                                                ",
"                                                                ",
"                                                                ",
"                                                                ",
"              d A                                               ",
"              x H                               f L             ",
"            k D G +.                    n.      Z J             ",
"            B F F @.                    #.m.    D F +.          ",
"          j G F F ..@.                  X.B.  k F F o.          ",
"          M G F G G O.          T - / = % N.$.V F F ..          ",
"        s V G G G F ..o.    = 5 *.w.9.;.1 M.V.K G G G K         ",
"        j  .G ..G G G ..^ 3 8 l.e.f.b.d.w.c.v.{ | G G o.        ",
"        k ..F ..G  .G B ..` ,.q.f.g.8.s.g.j.g.t.W N G ..        ",
"        n ..M  .x N G $ % 3.a.g.e.g.f.g.k.j.g.f.R j G ..        ",
"        N V j B   k B & 4 e.p.x.h.a.g.k.u.( ' 0.Y d k G         ",
"        B B g M   s h ; 6.y.u.y.f.4.r.] p 0 t P     9 N         ",
"      @ B x o @     + > -.y.g.g.0.1.U w q 0 t         x K       ",
"      @ M             ; &.w.g.5.y _ I w q q 0 r u     z         ",
"        k             : =.E w.p.:.:.u.) i e r a 2.              ",
"        #             ; ! [ f.j.s.g.k.p.e.w.u.f.f.<.            ",
"        .               v =.y.h.z.f.u.f.j.g.g.a.e.              ",
"        X             } c 6 7.f.k.j.f.g.k.i.x.u.8               ",
"                        h ; %.:.f.s.s.k.k.p.3.7                 ",
"                            2 , %.-.-.>.;.5 ~                   ",
"                      z       O < 2 * Y b d                     ",
"                      C       l                                 ",
"                                        S                       ",
"                            H                                   ",
"                            m                                   ",
"                                                                ",
"                                                                ",
"                                                                "
};
