/* XPM */
static char *a99vx_ynvp1[] = {
/* columns rows colors chars-per-pixel */
"32 32 120 2 ",
"   c None",
".  c #30203F",
"X  c #632739",
"o  c #61293A",
"O  c #6A2C3F",
"+  c #752636",
"@  c #702F3E",
"#  c #7B2A3A",
"$  c #0D1C4B",
"%  c #111C4A",
"&  c #1A1D48",
"*  c #231E45",
"=  c #221F48",
"-  c #2F2046",
";  c #2A2F48",
":  c #332146",
">  c #3B2244",
",  c #273146",
"<  c #2D3346",
"1  c #2D3349",
"2  c #313447",
"3  c #393447",
"4  c #31364A",
"5  c #3C3249",
"6  c #353A4D",
"7  c #383D4F",
"8  c #333752",
"9  c #343951",
"0  c #393E53",
"q  c #442544",
"w  c #492443",
"e  c #422C40",
"r  c #522543",
"t  c #5E2642",
"y  c #413446",
"u  c #413749",
"i  c #4D374D",
"p  c #563143",
"a  c #5C3545",
"s  c #4E3D55",
"d  c #483F58",
"f  c #513D50",
"g  c #642741",
"h  c #752941",
"j  c #7A2C41",
"k  c #6A3345",
"l  c #65384D",
"z  c #793341",
"x  c #3E4255",
"c  c #3B415B",
"v  c #404355",
"b  c #434559",
"n  c #464A5C",
"m  c #484C5E",
"M  c #644A56",
"N  c #684957",
"B  c #654D5A",
"V  c #7E4854",
"C  c #495069",
"Z  c #576077",
"A  c #832434",
"S  c #8C2433",
"D  c #852A3C",
"F  c #8A2E3B",
"G  c #982533",
"H  c #942837",
"J  c #922D3B",
"K  c #982E3C",
"L  c #9B313E",
"P  c #A62E3C",
"I  c #A92F3E",
"U  c #B72A36",
"Y  c #B6343E",
"T  c #BC323D",
"R  c #C42D38",
"E  c #C4333D",
"W  c #CA343E",
"Q  c #D4353E",
"!  c #DC363E",
"~  c #E3373E",
"^  c #E9373E",
"/  c #E6383F",
"(  c #EC383F",
")  c #F1393F",
"_  c #8A2C40",
"`  c #833040",
"'  c #8A3240",
"]  c #923341",
"[  c #993542",
"{  c #A42F41",
"}  c #A33844",
"|  c #AF3843",
" . c #B23440",
".. c #BA3641",
"X. c #B83843",
"o. c #C23741",
"O. c #C83741",
"+. c #C63942",
"@. c #CE3A42",
"#. c #D53740",
"$. c #D93840",
"%. c #E23840",
"&. c #EE3940",
"*. c #F43A40",
"=. c #F23940",
"-. c #8C414D",
";. c #90424E",
":. c #BB444D",
">. c #A54650",
",. c #A74452",
"<. c #AE4750",
"1. c #AA555D",
"2. c #9E757B",
"3. c #CB424A",
"4. c #636C81",
"5. c #686E80",
"6. c #717682",
"7. c #777D8C",
"8. c #8A8F98",
"9. c #959294",
/* pixels */
"                                                                ",
"                                                                ",
"                                                                ",
"                      8           6.                            ",
"                    1 0           5.      1                     ",
"                  1 8             C 8.    ; 4                   ",
"                  4 x             c 7.    ; 1 9                 ",
"                1 0 b       L K H i 4.9.  1 1 9                 ",
"              < 4 b n u # ..! E T k Z 2.j 4 4 4 0               ",
"              1 6 n b k E >.@.! Q $.>.1.W N 6 1 0               ",
"            < 4 0 m b ` Q E %.&.&.*.=.&.&.+.a 1 7               ",
"            2 4 0 n b ] ~ / =.=.~ ! ~ ! ~ ) [ 4 6 v             ",
"            4 4 x n b [ ~ ! / E _ t r r g P  .3 4 x             ",
"            4 4 b m b ;.3.^ _ w = $ $ $ $ q k 2 4 x             ",
"          < 4 4 b m b } @.{ & $ $ $ $ $ & 5 6 4 4 0             ",
"          < 4 4 n m d ..) j $ $ - % $ $ * e 2 4 4 7 x           ",
"          < 4 4 n n s T ) E r > D : % $ % . O y 1 7 x           ",
"          4 2 4 n f l ~ =.) #.T W I h r q j W p 1 6 0           ",
"          < < 4 v + H O...~ ! =.) &.^ ~ ! ( X.M < 6 0           ",
"              4 0 + G -.| ! ! Q $.^ ( ~ ! ~ J     4             ",
"              < 1   @ D U W Q <.:.( Q ~ #.P       1             ",
"                      z S G U Y O.! E R ' B       1             ",
"                          X A A S F V o                         ",
"                          ,           <                         ",
"                          1           4                         ",
"                                                                ",
"                        1           1                           ",
"                        0           9                           ",
"                        8           1                           ",
"                                                                ",
"                                                                ",
"                                                                "
};
