/* XPM */
static char *a9jz9_c3i6b[] = {
/* columns rows colors chars-per-pixel */
"32 32 139 2 ",
"   c #030407",
".  c #000708",
"X  c #040A0B",
"o  c #0F0F0F",
"O  c #110E0E",
"+  c #1B0D0D",
"@  c #0F100F",
"#  c #11100F",
"$  c #0F0F10",
"%  c #0E1111",
"&  c #111111",
"*  c #1A1714",
"=  c #1A1816",
"-  c #171518",
";  c #141919",
":  c #1B1B1B",
">  c #230B0C",
",  c #2D0C0C",
"<  c #231110",
"1  c #2B1211",
"2  c #2E1D15",
"3  c #201F1E",
"4  c #2A1F1F",
"5  c #311311",
"6  c #381614",
"7  c #22200F",
"8  c #22211F",
"9  c #2B221F",
"0  c #32231C",
"q  c #1E1F21",
"w  c #162223",
"e  c #1F2122",
"r  c #232323",
"t  c #282624",
"y  c #272826",
"u  c #2F2B27",
"i  c #2C2B2A",
"p  c #352321",
"a  c #312A24",
"s  c #33242A",
"d  c #3A2E28",
"f  c #34322F",
"g  c #430D0E",
"h  c #451312",
"j  c #4A1412",
"k  c #481A14",
"l  c #511312",
"z  c #591613",
"x  c #571A17",
"c  c #641613",
"v  c #6B1615",
"b  c #651815",
"n  c #6C1B16",
"m  c #651E1A",
"M  c #751A16",
"N  c #7E1B17",
"B  c #741E18",
"V  c #791C18",
"C  c #432817",
"Z  c #462C1F",
"A  c #5C2C1F",
"S  c #7D221B",
"D  c #762C1D",
"F  c #452220",
"G  c #492926",
"H  c #4E3928",
"J  c #573425",
"K  c #5E3624",
"L  c #573F2B",
"P  c #413731",
"I  c #483C33",
"U  c #7F2D26",
"Y  c #6B3A23",
"T  c #793225",
"R  c #72302B",
"E  c #733A2E",
"W  c #604319",
"Q  c #604223",
"!  c #614D2F",
"~  c #704C27",
"^  c #7B4D3C",
"/  c #645734",
"(  c #676136",
")  c #4B4742",
"_  c #4D5049",
"`  c #614F43",
"'  c #605145",
"]  c #64594E",
"[  c #69584F",
"{  c #715B4D",
"}  c #7E6659",
"|  c #811617",
" . c #8B1C17",
".. c #841E19",
"X. c #8A1F19",
"o. c #951F1B",
"O. c #9B1E19",
"+. c #A11D1A",
"@. c #8D201B",
"#. c #89291F",
"$. c #93211B",
"%. c #9D231C",
"&. c #A3251E",
"*. c #AB231D",
"=. c #B2221C",
"-. c #8F2720",
";. c #8A2C22",
":. c #962820",
">. c #9F2D23",
",. c #893621",
"<. c #853D2B",
"1. c #963128",
"2. c #843830",
"3. c #A02D21",
"4. c #AA2A22",
"5. c #B32720",
"6. c #B52921",
"7. c #BB2C23",
"8. c #A93125",
"9. c #B03224",
"0. c #C22E24",
"q. c #CC2F25",
"w. c #C33026",
"e. c #C83126",
"r. c #CA3227",
"t. c #CC3126",
"y. c #CE3227",
"u. c #CC3328",
"i. c #D53226",
"p. c #D13429",
"a. c #804426",
"s. c #80542A",
"d. c #87572C",
"f. c #944032",
"g. c #974334",
"h. c #A2402C",
"j. c #876D5B",
"k. c #937865",
"l. c #D18B2B",
/* pixels */
"o o o o o o o o o & o o o o o o o o o o & o o o o o o o @ o o @ ",
"o o o o o o o @ & o o : & o $ $ o o o & o o o o o o o o o @ @ o ",
"o o o o o o o o o = f : o # @ # o @ o * I o o o o o o o o @ o o ",
"o o o o o $ o & r y y & o & o o & # & X { I X & o o o o o o o o ",
"o o o o & o & r y : : & o o X o @ o % X ` j.& o # o o o o o o o ",
"o o o & o & y r r : r & O X . # 1 5 6 O ' k.a X & o o o o o o o ",
"o o # o & y r r e : r & X . l &.7.7.7.;.] } P X & o o o o o o @ ",
"o o & o 8 y r r q : y & O n 8.h.r.p.q.R _ [ f X & o o o o o o o ",
"o $ o - y r r y q q r : B 7.! / 7.r.u.i.<.) G X % O o o o o O o ",
"o o % r y r r y : r e w F 6.;.3.0.w.0...| 4.0.S o # o o o # o o ",
"o o ; y y e y y : r 4 x S 7.*.0.0.t.N @ W $.$.l < o # o o # o o ",
"o o r i y r : r r ; c +.=.f.g.0.7.t.v 7 l.n b X & @ O o o @ o o ",
"o - i : : : o = % > S <.4.1.8.6.7.0.7.j k &.h v 1 o # o o o o o ",
"o 3 y X = & o o X g Y ( #.*.6.&.&. .&.*.5.9.3.%.< o O o o o o o ",
"o t - o & $ & X o c A K &.%.4.5.o.c +   C ~ d.s.* o # o o o o o ",
"& 8 o # o & o o @ z X...&.&.^ >.*.B X o . > * & & o o o @ @ @ @ ",
"& = o & & % o O o l N X.@.&.:.%.5.B ; s - , o = o # o o o o @ @ ",
"# & o o @ o @ & o 1 p m %.%.*.&.&.O.Z a d 0 Q Q X & o o o o o @ ",
"O o o o o o & o & y p z B L T %.$.<.-.D Y a.,.6 o # o o o o o o ",
"# O o o o o o o t = , M N H J %.$.E ;.+.o.O.l X & o o o o o o o ",
"@ # o o o & o = t o X 5 M v M X.@.O.$.D X.z 8 * o & o o o o o o ",
"o o o o o & o : : o & o + 6 9 n ..V b 2 1 o - u & o o o o o o o ",
"o o o o o & o : = o @ & o ; y + < O X X o & o = r o & o o o o @ ",
"o o o o o & o : - o o @ o 3 8 o % o & = O # & o t * o & o @ @ @ ",
"o o o @ @ & o r - o o & o t = o & O & : o o # o y : o & o @ @ @ ",
"o @ @ o @ & o r 3 o # o - t o @ & o - = o & o & = = o # o o o o ",
"o @ o @ @ & o = r & o o r & o @ o & = o o @ # o - & o o @ o o o ",
"o @ @ o @ o o & - o o = = o % o o = & o @ @ o % & o o o o o o o ",
"@ @ @ @ # @ o o o o & t @ o o o o q : - & o @ o o % o o O # @ o ",
"o o o o @ o o @ o o o r r - o o $ % & - & o % @ o o o o @ o o o ",
"o o o o @ o o @ o o o o = = o o $ o o o o o o o o o @ @ @ @ o o ",
"o o o o o @ o o o o o @ o o o o $ $ o $ o o o o o o @ @ @ @ @ @ "
};
