/* XPM */
static char *av5qp_hi4m2[] = {
/* columns rows colors chars-per-pixel */
"40 40 178 2 ",
"   c #010203",
".  c #05060A",
"X  c #07080D",
"o  c #08090F",
"O  c #0B0C13",
"+  c #0E0F18",
"@  c #0E101B",
"#  c #12131D",
"$  c #161621",
"%  c #181721",
"&  c #171823",
"*  c #191A25",
"=  c #1D1E2A",
"-  c #231D25",
";  c #201F2B",
":  c #3B1E2A",
">  c #1F212D",
",  c #1F2331",
"<  c #252327",
"1  c #21222F",
"2  c #2A232B",
"3  c #2A2B2F",
"4  c #34212D",
"5  c #3B222F",
"6  c #342B2B",
"7  c #392C2D",
"8  c #3C322F",
"9  c #222532",
"0  c #2C2431",
"q  c #262935",
"w  c #292B36",
"e  c #262A38",
"r  c #2C2C39",
"t  c #352532",
"y  c #3D2734",
"u  c #332936",
"i  c #3C2934",
"p  c #332D3A",
"a  c #3A2B38",
"s  c #2C3135",
"d  c #3F3534",
"f  c #32313E",
"g  c #3C323A",
"h  c #471623",
"j  c #421D2A",
"k  c #511D25",
"l  c #5B1925",
"z  c #531E2A",
"x  c #5B1D29",
"c  c #651423",
"v  c #6A1624",
"b  c #601926",
"n  c #6B1926",
"m  c #6A1E2A",
"M  c #701523",
"N  c #791725",
"B  c #741A26",
"V  c #7D1A26",
"C  c #731E2A",
"Z  c #7D1E29",
"A  c #41212E",
"S  c #4C222E",
"D  c #4B282E",
"F  c #52222C",
"G  c #512F2C",
"H  c #5A3C2F",
"J  c #442531",
"K  c #4A2632",
"L  c #422A34",
"P  c #4B2935",
"I  c #422C38",
"U  c #492D38",
"Y  c #542632",
"T  c #5C2733",
"R  c #542832",
"E  c #5F2B31",
"W  c #443532",
"Q  c #443539",
"!  c #48333E",
"~  c #543433",
"^  c #63222B",
"/  c #6C252C",
"(  c #672F2A",
")  c #6F2929",
"_  c #74252B",
"`  c #7A232C",
"'  c #762D2E",
"]  c #792E2E",
"[  c #61312E",
"{  c #6E3A2D",
"}  c #71362E",
"|  c #78302B",
" . c #612631",
".. c #612E33",
"X. c #6C2A32",
"o. c #7C2530",
"O. c #752A32",
"+. c #7D2C32",
"@. c #603234",
"#. c #6E3331",
"$. c #733534",
"%. c #733F31",
"&. c #74313A",
"*. c #7A363F",
"=. c #614431",
"-. c #6F4B31",
";. c #6B5836",
":. c #765B36",
">. c #7A5D38",
",. c #333440",
"<. c #3A3440",
"1. c #3B3C46",
"2. c #5F3C45",
"3. c #454049",
"4. c #4C4B53",
"5. c #535158",
"6. c #76444A",
"7. c #6B5358",
"8. c #63595E",
"9. c #5D5B60",
"0. c #676568",
"q. c #6D6669",
"w. c #6B686A",
"e. c #831926",
"r. c #8B1A26",
"t. c #861D28",
"y. c #8A1C28",
"u. c #931A26",
"i. c #9B1B27",
"p. c #911D28",
"a. c #981C28",
"s. c #A31B27",
"d. c #AA1B27",
"f. c #A31E28",
"g. c #AA1E29",
"h. c #B71723",
"j. c #B21A26",
"k. c #B41E28",
"l. c #BE1F2A",
"z. c #83232A",
"x. c #8C202B",
"c. c #89262E",
"v. c #8A242C",
"b. c #8D232B",
"n. c #96242B",
"m. c #90262E",
"M. c #93232B",
"N. c #98262C",
"B. c #9C232C",
"V. c #802631",
"C. c #852831",
"Z. c #8E2A31",
"A. c #892D34",
"S. c #9D2730",
"D. c #992730",
"F. c #962C32",
"G. c #992831",
"H. c #83323B",
"J. c #84343B",
"K. c #8D3139",
"L. c #A4202A",
"P. c #A2232C",
"I. c #A4242E",
"U. c #A3232C",
"Y. c #AC232C",
"T. c #B2232C",
"R. c #B4232C",
"E. c #B2252E",
"W. c #B3202A",
"Q. c #BA252D",
"!. c #BC222B",
"~. c #A82730",
"^. c #A02A33",
"/. c #BC2830",
"(. c #C2212B",
"). c #C3232D",
"_. c #C4242D",
"`. c #91783F",
/* pixels */
"            . . X O O O # # # # # O O . . . X O O O O O O O O X . .             ",
"            . X O O + # $ & $ # # + O O X O O O O + # # + + O O X .             ",
"          . X O + # $ * = > = * $ # + O O O O @ # # & & & $ # @ O O X           ",
"        . X O # # * = 9 9 9 > = * $ # + O + # # * = = > > = * $ # O O X         ",
"    . . X O # $ * = 9 9 9 9 9 > * * $ # # # $ * = 1 9 q q 9 1 = * # + O o .     ",
"    . X O # $ = 1 9 9 > > q q 9 > = = * * = w w 1 q w q 9 9 9 9 = * # + O X .   ",
". . o O # $ = 1 9 9 9 > 9 q w 9 9 9 1 1 1 9 1.4.,.q r w 9 > 9 9 9 > * # + O . . ",
"O O O # $ = 1 9 9 q 9 > 9 q w w q q q q q , 1.9.5.f r r 9 > 9 9 9 9 > * # + O X ",
"O O # $ = 1 9 q q w 9 9 9 q r r r w w r y A ! 8.0.1.r w 9 , 9 9 9 9 9 = & # O O ",
"+ # $ = 1 9 9 w w q q 9 9 9 w p i T  .T V.x.&.8.w.3.w q , , 9 q q q q 9 = $ # + ",
"# $ = > 9 9 q w w q q q , , q K o.P.I.~./.R.H.8.q.2.J 0 , 9 , q w q q q 9 = $ # ",
"& * > 9 9 q w w q q q q , 1 : C b.v.N.Q._.).^.6.7.*.O.P q 9 9 q w w q q 9 > * # ",
"= > 9 q q w s w q q w q , : x _ ....m.T.g.s.g.^.K.S.P.+.L 1 9 q w w q q q 9 = * ",
"= 9 q q q w s w q q q 9 1 z t.' ~ +.T.L.B _ z.i.s.s.n.v.^ 2 9 9 q w w q q q 9 = ",
"1 9 9 q q q w w q q q 9 4 m b.Z.Z.T.(.y.G ;.=.l r.` %.} x 5 9 9 q w w q q 9 9 9 ",
"9 q q q q 1 1 9 9 q w w S X.J.Y.!._.k.V H `.>.k v ^ :.-.F J w 9 9 q q q q 9 9 9 ",
"q q q q q q q 9 9 q f p F ` F.Q._.Y.i.r./ { | B c l ( _ m R r q 9 9 9 9 9 9 9 9 ",
"w q 9 9 q w r q 9 w ,.f Y y.W.!.!.s.V B v n t.p.Z Z V N m U f q 9 q q 9 9 9 9 9 ",
"w q 9 9 w w r q 9 r ,.<.T p.j.d.j.s.m : h ^ ] ] ] ] +./ P f f w w r w q 9 9 9 9 ",
"w q 9 q q q w q w p ,.I m e.Z ` f.g./ = @ - 6 6 6 6 d g f ,.f r r r w q 9 9 9 9 ",
"q 9 9 9 9 9 9 q r p f J v n D R s.k./ > @ # * & # # w f ,.,.f r w q q q 9 9 9 9 ",
"9 1 1 9 > 1 9 q r r f a S F D / f.W.z.7 2 7 8 w > < W Q p f r r q 9 9 9 9 9 9 9 ",
"> 1 9 > = = 1 9 q r f u y D ^ o.A.I.f.` ^ #.$.@.~ [ ' E L L p w q 1 1 9 9 9 9 9 ",
"= = = = * * = 9 q r p a y F B O.&.D.k.L.x.M.B.M.b.B.s.t.^ K u w 2 ; = > 9 1 > 1 ",
"& & & $ $ $ * > q r u y y S B C ` a.g.G.A.L.j.d.s.f.d.i.m i r w 2 = * = > = = * ",
"# # # # # # & > q r u t p a z b n e.y.o.&.B.h.d.x.C.y._ U p w 2 - * % % & * & # ",
"O O O O # # & > q r r w r f p 5 j b N Z Z r.u.u.Z / z 5 p r w < - % # # # # # # ",
"O O O O O # & > q r w w r ,.f w 0 j l v v ^  .^ x S t q w r q ; % # + + + + O O ",
". . . . O + $ = q w w r r r r r q 0 5 A J a a a t u r w w w 9 = # + O O O O O O ",
"        X O # = 9 w r r r r r w w r r w r r r w e r p r r w 9 * # O o . . . . . ",
"        X O # * 9 q w w r r w q w r w w r r r q q r r r r w 1 * # O .           ",
"        . O # * 1 9 q q q w q q w q q q w r w q q w w q q q = $ + O .           ",
"        . o O $ > 9 9 9 q q q q q 9 9 9 q q q 9 q q q 9 > > = # O X             ",
"          . O # * > > 9 q 9 9 q 9 > 1 9 9 9 9 9 q 9 1 > = * & # O .             ",
"          . o O # = > 9 9 9 9 9 = = = 1 9 9 9 9 > = * * & $ # O X               ",
"            . O O # * = 1 9 9 = * * * = = = = = * $ # # # # O X .               ",
"              . O O # $ = > = * $ # # $ & * & $ # # O O O O X                   ",
"                . O O # # & & # # @ + # # # # + O O O O X .                     ",
"                  . o O O + + + O O O O O O O O X . . .                         ",
"                    . o O O O O O X . X o o X . . .                             "
};
