/* XPM */
static char *auqk8_fr4jy[] = {
/* columns rows colors chars-per-pixel */
"40 40 129 2 ",
"   c #05060A",
".  c #07080D",
"X  c #08090E",
"o  c #0B0C13",
"O  c #100F16",
"+  c #0F1018",
"@  c #12131B",
"#  c #1E141C",
"$  c #25151C",
"%  c #2A161C",
"&  c #34171C",
"*  c #3C161B",
"=  c #32181F",
"-  c #3D181E",
";  c #151720",
":  c #1C1720",
">  c #161821",
",  c #1A1B25",
"<  c #1D1E29",
"1  c #221C25",
"2  c #2A1C24",
"3  c #221E28",
"4  c #2A1F28",
"5  c #321C24",
"6  c #3D1D23",
"7  c #1F202A",
"8  c #23232C",
"9  c #29252D",
"0  c #28282F",
"q  c #3B2027",
"w  c #33232A",
"e  c #3C252B",
"r  c #33282E",
"t  c #3C282D",
"y  c #262730",
"u  c #292730",
"i  c #2B2A32",
"p  c #2F2F38",
"a  c #332C34",
"s  c #302E38",
"d  c #47171C",
"f  c #4B161A",
"g  c #45191E",
"h  c #4D191D",
"j  c #56171A",
"k  c #5B171A",
"l  c #54191E",
"z  c #5C191D",
"x  c #641717",
"c  c #6A1817",
"v  c #621719",
"b  c #6D1719",
"n  c #65191C",
"m  c #6C191C",
"M  c #721719",
"N  c #7A1719",
"B  c #731A1C",
"V  c #7B191B",
"C  c #431D23",
"Z  c #4B1D22",
"A  c #521F22",
"S  c #5C1F22",
"D  c #641F21",
"F  c #6B1F21",
"G  c #4D2326",
"H  c #41242A",
"J  c #4F262A",
"K  c #442B2D",
"L  c #532125",
"P  c #5B2426",
"I  c #552728",
"U  c #5F2D28",
"Y  c #4E2C31",
"T  c #503432",
"R  c #652325",
"E  c #682324",
"W  c #642B2A",
"Q  c #712223",
"!  c #7C2322",
"~  c #732927",
"^  c #801719",
"/  c #83191B",
"(  c #8B1A1B",
")  c #931A1B",
"_  c #9B1A1B",
"`  c #A21C1C",
"'  c #85201F",
"]  c #851F22",
"[  c #8A1F20",
"{  c #921F21",
"}  c #822222",
"|  c #892624",
" . c #842827",
".. c #8E2926",
"X. c #822B28",
"o. c #912221",
"O. c #9D2324",
"+. c #82372D",
"@. c #83302A",
"#. c #8A3029",
"$. c #963129",
"%. c #91382E",
"&. c #803B30",
"*. c #8D3F31",
"=. c #943D31",
"-. c #A02422",
";. c #A22221",
":. c #AE2524",
">. c #AD2321",
",. c #AF2826",
"<. c #A02C28",
"1. c #A92A28",
"2. c #BB2C29",
"3. c #AD312B",
"4. c #AE342B",
"5. c #BC312B",
"6. c #BA362E",
"7. c #BC3F33",
"8. c #CE2E2B",
"9. c #D32F2B",
"0. c #D0322D",
"q. c #8A4635",
"w. c #8F4536",
"e. c #904734",
"r. c #91533C",
"t. c #98513B",
"y. c #B04235",
"u. c #955F41",
"i. c #AF784E",
/* pixels */
"                      X X o o o o o o o o o o o o o X X X                       ",
"                . . o o o o o o o o o o o o o o o o o o o X . . .               ",
"            . o o o o o @ @ @ @ @ @ @ @ @ @ @ @ @ @ @ @ o o o o o X . .         ",
"        . o o o @ @ @ ; ; ; > > > > ; ; ; > ; ; ; > > ; @ @ @ o o o o o .       ",
"    X o o o + @ ; , , < 7 < , , , < 7 8 8 8 8 8 8 8 < < < , , @ @ @ o o o . .   ",
". X o o o @ ; , < 8 8 < 8 8 8 8 8 8 5 C Z H e 9 u u 0 8 7 < < < , @ @ o o o X . ",
"o o o + @ > < 8 8 < , < 8 0 0 0 w Z m / [ o.] P w i i 0 < , < 7 < , @ @ o o o o ",
"o o + @ , < < 7 < , , , 8 u u w z N ! &.%.,.:.O.R a p 0 , , , < < < , ; @ + o o ",
"o + @ , < < < < < , , , 0 i i C M ^ ! e.y.0.9.8.1.Y p 0 , , , < < < < , > @ + o ",
"@ @ , < < < < < , < < , 8 p s e m / ( 4.y.6.2.5.4.W a 0 < < < 7 8 8 < < , > @ @ ",
"; , < < < 8 8 < < 7 < < 8 i a J m / ) *.i.r.} e.u.T 0 7 < < < 8 0 0 7 < < , ; @ ",
", < < , 7 0 8 , 8 8 7 < < 8 a J n N ) #.t.=.! +.q.K < < < < < 8 0 u 0 7 < < , ; ",
"< < < < 0 0 < < 0 0 7 8 < < 8 9 e Z B ( -.<...| R 4 < < 7 < , 8 0 0 0 8 , < < > ",
"< < < 8 0 0 < 8 0 8 7 3 4 5 6 6 5 - v ( } W U A 5 < < < 7 < , 8 u u u 0 < < < , ",
"< < 7 0 0 7 , 8 0 8 8 6 n N / N k n m B } | ..B j 6 3 7 8 < , 8 0 0 0 0 8 , < < ",
"< , 8 8 7 , , 8 0 0 6 N _ ) ) ) b m B m n B / ( ) N 6 0 0 8 , 7 8 8 8 0 8 , < < ",
"< , , 7 8 < , 0 0 q m ) ) / / _ ( b B m v n / _ ) ( S 0 i 0 , < 8 8 8 < 7 , < < ",
"< , , 8 8 8 < 8 9 z ( _ ( c b ) _ ( / N N ^ _ ( b / m w u 0 < 8 8 8 8 8 , , < < ",
"< , , < 7 8 8 0 Z F m N B c V / / ) _ ) ) ) ( z k M B C 0 0 0 8 8 8 8 8 , @ , < ",
", > , < < 8 8 G } ~ G 6 Z M ( B G F ) ` ) V A w g l P q 0 u 0 8 8 8 < < , @ , , ",
", , , , < 8 4 B >.} e 0 C c N / B V ) ( N z w u 4 C Q D e 9 0 0 8 8 < < , > , , ",
"@ @ ; , , < 4 D $...H 0 l b B V ^ / N M M l 9 i 0 e B o. .P r 0 8 8 < , , , ; ; ",
"@ @ @ > , < 8 L X.X.t w l b b N N M b N b z w u u 9 H I ~ o.Q H 0 8 < , > @ @ @ ",
"@ @ @ @ , < 8 G o.! r 0 5 C h z z z v z C 5 9 0 0 0 0 0 r L B ( S 9 8 , @ @ @ @ ",
"o o + @ > , 8 e o.| t y 8 8 3 4 2 4 2 4 8 8 8 8 0 0 0 0 0 0 D ` ) Z 8 , @ @ @ + ",
"o o o @ > , 8 w / -.Q t 0 8 0 0 8 , , < 8 0 0 8 8 0 8 8 8 w n F ( V 6 < ; @ o o ",
"o o o @ @ > 8 6 / _ ( S w 8 8 u 0 8 8 8 8 8 0 0 8 8 8 8 8 2 Z w Z M l 2 > @ o o ",
"X o o o @ ; < 6 B ( m Z w 8 8 0 0 8 0 0 8 < 8 9 C 6 9 8 8 3 3 3 = j - : @ @ o o ",
". o o o @ @ , 2 f v z 6 9 0 < 8 9 4 8 0 0 8 < 2 m V C 8 < , , > $ % > @ @ o o o ",
"  . o o o @ ; > 1 & - w 0 8 , 2 l h 4 8 0 0 8 2 n N C 3 , > ; @ > @ @ + o o o o ",
"    X o o @ @ @ @ > 3 8 8 8 , * n Z 8 8 8 8 < 1 6 6 3 , > ; @ @ @ @ o o o o X . ",
"    X o o o @ @ @ ; , , 3 < < 2 5 3 8 8 8 8 , , < , , , @ @ @ @ o o o o o X .   ",
"      X o o o @ @ ; , 1 = 2 , < < < < < 8 < > : , , , ; @ @ @ o o o o o .       ",
"      . o o o @ @ > 2 d f 2 > , , , , , , 1 & & : , , ; @ @ o o o o o .         ",
"        X o o @ ; 1 f x f 1 < , , , , , , 2 k z 5 3 , > @ @ o o o o . .         ",
"        . o o + @ % j c m l - 2 > > > > : * v m m h 5 # @ @ o o o o .           ",
"        . X o o o @ $ * f f * % @ @ @ @ @ $ % & f f * # o o o o o .             ",
"            . o o o o + @ @ @ @ @ @ @ @ @ @ @ + @ @ @ o o o o o .               ",
"              . . o o o o o o o o o o o o o o o o o o o o o .                   ",
"                    X X o o o o o o o o o o o o o o X X X                       "
};
