/* XPM */
static char *a0k4t_g8kae[] = {
/* columns rows colors chars-per-pixel */
"32 32 129 2 ",
"   c None",
".  c #181729",
"X  c #1C1A2B",
"o  c #211D2E",
"O  c #3E1A27",
"+  c #32202C",
"@  c #292937",
"#  c #2E2D3A",
"$  c #382732",
"%  c #352A36",
"&  c #382B36",
"*  c #322D3B",
"=  c #2E303C",
"-  c #33333D",
";  c #3C323B",
":  c #37383F",
">  c #39393E",
",  c #431B28",
"<  c #651C25",
"1  c #691E26",
"2  c #7C1F26",
"3  c #4E252F",
"4  c #5D242C",
"5  c #5D2C2E",
"6  c #492732",
"7  c #422833",
"8  c #4E2B34",
"9  c #5E2C32",
"0  c #463435",
"q  c #4A3634",
"w  c #4B383E",
"e  c #503732",
"r  c #5A3230",
"t  c #50383F",
"y  c #652026",
"u  c #64242B",
"i  c #6E232A",
"p  c #662D2F",
"a  c #742027",
"s  c #7B2025",
"d  c #702129",
"f  c #7B2128",
"g  c #752B2D",
"h  c #7E312E",
"j  c #782C30",
"k  c #633732",
"l  c #653338",
"z  c #703231",
"x  c #44413F",
"c  c #54423A",
"v  c #61403A",
"b  c #634A3B",
"n  c #6F4A3F",
"m  c #744138",
"M  c #7F4139",
"N  c #6F563D",
"B  c #373540",
"V  c #393642",
"C  c #373840",
"Z  c #3B3B42",
"A  c #3F3C48",
"S  c #423E4A",
"D  c #6D3D41",
"F  c #723C40",
"G  c #783F41",
"H  c #5A5445",
"J  c #534F53",
"K  c #575357",
"L  c #6C4F41",
"P  c #7A4145",
"I  c #7D5644",
"U  c #6C5658",
"Y  c #7F6248",
"T  c #6A6263",
"R  c #746D6C",
"E  c #821F25",
"W  c #881F25",
"Q  c #941F23",
"!  c #852025",
"~  c #8B2126",
"^  c #832529",
"/  c #8B2529",
"(  c #832C2F",
")  c #8C2B2E",
"_  c #972427",
"`  c #9C2124",
"'  c #912429",
"]  c #992729",
"[  c #952D2C",
"{  c #9C2B2B",
"}  c #9C312F",
"|  c #853330",
" . c #8C3534",
".. c #843539",
"X. c #8C3739",
"o. c #8A393A",
"O. c #973531",
"+. c #9C3A31",
"@. c #A72527",
"#. c #AB2526",
"$. c #A42628",
"%. c #AB2729",
"&. c #A32829",
"*. c #AA2929",
"=. c #B52727",
"-. c #BE2827",
";. c #B22728",
":. c #B52A2A",
">. c #BB2A29",
",. c #A4332F",
"<. c #AB312E",
"1. c #B2312E",
"2. c #A93730",
"3. c #A63A31",
"4. c #AC3830",
"5. c #C52927",
"6. c #CC2A27",
"7. c #C42C2A",
"8. c #CA2A28",
"9. c #D02C29",
"0. c #C5302D",
"q. c #D0322D",
"w. c #864538",
"e. c #8C603D",
"r. c #833E40",
"t. c #874949",
"y. c #A67F48",
"u. c #A88049",
"i. c #CA984F",
/* pixels */
"                                                                ",
"                                                                ",
"                    S                                           ",
"                  - V                         A                 ",
"              - # @ #               J         # #               ",
"            - - # @ -               K R       @ @ *             ",
"            - - # # -               t R T   @ # # # -           ",
"          - Z - # - -       / :.0.:...T T   # - # - - -         ",
"        - Z Z - - - # - u [ <.7.q.7.X.T U 8 = - - # : - -       ",
"      - Z Z Z - - - # 6 ) L M 7.7.7.7.r.P ) ; - - # : - -       ",
"      - Z Z Z - Z - & /  .n 1.:.4 5 / ;.:.%.j - C # - Z - -     ",
"    - Z > > - - - # 4 #.&.>.6./ N i.e ~ h e.p & - # - Z > -     ",
"    : - -   - -   $ a ;.>.5.5.' b u.r f k y.r     # - - Z -     ",
"    -       #     < ' { 7.5.@.@.f u _ i d i '     @     - - -   ",
"  -         @     D g H } 6.=.~ d ,.3.2.4.<.]             - -   ",
"  #               F z H O.6.;., . 0 c c L I               # -   ",
"                  a g | :.8.#.+ X o X X O                   #   ",
"                  q 5 X.t.:.-.v x w & o q Y                 #   ",
"                  0 ! / ) #.5. .H b m m w.+.^                   ",
"                B   2 W Q ` { *.| [ @.*.=.~                     ",
"              V       s E ~ G ( #.=.#.o.) 4 >                   ",
"              Z         3 i ^ ~ W ! ~ l 9   - >                 ",
"              V         - %   y a 1 7 %       V                 ",
"              A V       V             >       V V               ",
"              V -       B             Z       B V               ",
"              -       -               V       - -               ",
"                                    -                           ",
"                    -             -                             ",
"                    B           # #                             ",
"                    -                                           ",
"                                                                ",
"                                                                "
};
