/* XPM */
static char *a6yyz_r5v0o[] = {
/* columns rows colors chars-per-pixel */
"32 32 104 2 ",
"   c None",
".  c #24293E",
"X  c #282C3F",
"o  c #5C263B",
"O  c #57293A",
"+  c #5C2939",
"@  c #672235",
"#  c #6F2135",
"$  c #722032",
"%  c #782334",
"&  c #792C3C",
"*  c #7D313F",
"=  c #252C44",
"-  c #292E43",
";  c #292F4B",
":  c #332F43",
">  c #2D3245",
",  c #2C314A",
"<  c #313446",
"1  c #31364B",
"2  c #39304B",
"3  c #353A4C",
"4  c #393E4E",
"5  c #2D3453",
"6  c #303756",
"7  c #343A51",
"8  c #393E51",
"9  c #323959",
"0  c #412F40",
"q  c #482F46",
"w  c #532E40",
"e  c #5A2C43",
"r  c #463042",
"t  c #5C3242",
"y  c #523849",
"u  c #5C3C4E",
"i  c #692F46",
"p  c #6B3040",
"a  c #38404E",
"s  c #3D4455",
"d  c #37445D",
"f  c #3C4660",
"g  c #404657",
"h  c #434958",
"j  c #654954",
"k  c #4B576C",
"l  c #555C6E",
"z  c #535F72",
"x  c #6B6C75",
"c  c #616978",
"v  c #871F2F",
"b  c #8B1F2F",
"n  c #921F2F",
"m  c #8F202F",
"M  c #8B2233",
"N  c #8D2B3B",
"B  c #942B3B",
"V  c #9F2E3C",
"C  c #A7202E",
"Z  c #B3222F",
"A  c #A32332",
"S  c #A82533",
"D  c #A52C3A",
"F  c #AF2E3B",
"G  c #B12532",
"H  c #BD2734",
"J  c #BC2B39",
"K  c #AA313F",
"L  c #C12632",
"P  c #C32A37",
"I  c #CF2B37",
"U  c #C42E3B",
"Y  c #CB2E3B",
"T  c #D02834",
"R  c #D22F3B",
"E  c #D82D39",
"W  c #C7303D",
"Q  c #CC313D",
"!  c #D3313D",
"~  c #DC323D",
"^  c #E3323D",
"/  c #EC333D",
"(  c #F4343E",
")  c #F1343E",
"_  c #8D3547",
"`  c #96394A",
"'  c #AB3340",
"]  c #B83743",
"[  c #C43642",
"{  c #CB3C46",
"}  c #C13F49",
"|  c #D03641",
" . c #D33741",
".. c #DB3842",
"X. c #884A56",
"o. c #A7424E",
"O. c #AC4652",
"+. c #B54953",
"@. c #8E666C",
"#. c #797C83",
"$. c #937E80",
"%. c #888685",
"&. c #918987",
"*. c #918E8A",
/* pixels */
"                                                                ",
"                                                                ",
"                                                                ",
"                  6             x           5                   ",
"                , 6             l %.        5 5                 ",
"              ; , 5             f #.        ; ,                 ",
"              ; , ,             d c *.    5 , , 7               ",
"            , , 3 , 6     N B D u z &.    5 > , 1 8             ",
"            > 1 8 , 5 e F ~ Q ~ _ k $.' i , > , , 7             ",
"          > > 7 8 > q ' } ~ ^ ~ ! ` @.! [ u > , > 3 8           ",
"          > > s 4 : B ^ ] ~ / ~ / / | / ^ W p > , < 8           ",
"        > > , g 3 o J ^ ^ ( ( ( ( ( ( ( ( / V < , > 3           ",
"        > > , h < M E ~ ! ^ ~ ~ ^ Q ^ ( ^ ^ W r , > 1           ",
"        > > 3 s 0 S ../ ^ / J Y ~ Y ^ U W / ~ w , > < 4         ",
"        > > 7 a O D o.~ ~ / / ( ( ( / ! / ~ O.y > > < 3         ",
"      - > > 7 3 + G ^ ~ J ~ / ~ / ( ( ~ / ^ { t > > > 3         ",
"      > > > 1 > % L Y / ^ ( / Y ^ ( ~ U / / Y & = > > 1         ",
"      - X - >     A P / ^ ^ ( ) / / / / ! ~ U   =   > >         ",
"      .     -     n H ~ ^ R / / Y / ( ^ U ^ V         >         ",
"                  @ X.K / ^ / | ^ / ! ^ / I *         -         ",
"                    & Z T R ~ +.^ / ^ P A M                     ",
"                    t m C S L H L H B M $                       ",
"                        o # v v b M j 2                         ",
"                                      5                         ",
"                        5             5                         ",
"                        5                                       ",
"                                    5                           ",
"                        9           9                           ",
"                        5           5                           ",
"                                                                ",
"                                                                ",
"                                                                "
};
