/* XPM */
static char *a2l2j_qdy0m[] = {
/* columns rows colors chars-per-pixel */
"40 40 195 2 ",
"   c None",
".  c #010000",
"X  c #0A0604",
"o  c #0D0804",
"O  c #090708",
"+  c #0D0B0B",
"@  c #130B05",
"#  c #180E05",
"$  c #130E0C",
"%  c #1B0E0B",
"&  c #1C1106",
"*  c #1D120A",
"=  c #12100F",
"-  c #151313",
";  c #1B1512",
":  c #1A1917",
">  c #191718",
",  c #1B1B1A",
"<  c #231505",
"1  c #291906",
"2  c #21160C",
"3  c #25190B",
"4  c #2A1C0C",
"5  c #321C0A",
"6  c #301D06",
"7  c #2B1E12",
"8  c #241B16",
"9  c #2F200E",
"0  c #362006",
"q  c #3B2506",
"w  c #31220F",
"e  c #3C240B",
"r  c #3E290D",
"t  c #2E2113",
"y  c #2C231A",
"u  c #342513",
"i  c #3C2A13",
"p  c #3C2C19",
"a  c #352618",
"s  c #1C1826",
"d  c #201E25",
"f  c #262322",
"g  c #282625",
"h  c #2D2A25",
"j  c #24212B",
"k  c #28262A",
"l  c #2E2C2B",
"z  c #342B25",
"x  c #3A2E25",
"c  c #332D2C",
"v  c #302323",
"b  c #3D322A",
"n  c #3B332A",
"m  c #2C2932",
"M  c #292730",
"N  c #302E36",
"B  c #353433",
"V  c #3B3432",
"C  c #3B3834",
"Z  c #36353B",
"A  c #3C3D3C",
"S  c #383439",
"D  c #40270C",
"F  c #442B0B",
"G  c #492E08",
"H  c #4D320C",
"J  c #52340A",
"K  c #5B3B0C",
"L  c #563608",
"P  c #432E12",
"I  c #402F19",
"U  c #443015",
"Y  c #4C3413",
"T  c #45331B",
"R  c #49351B",
"E  c #4D381D",
"W  c #523915",
"Q  c #5D3F11",
"!  c #553D1C",
"~  c #443524",
"^  c #4C3921",
"/  c #41352C",
"(  c #4B3A25",
")  c #503B20",
"_  c #503E28",
"`  c #443A34",
"'  c #433C3B",
"]  c #4A3E33",
"[  c #5B411B",
"{  c #57401F",
"}  c #63420F",
"|  c #664615",
" . c #5B4424",
".. c #53412A",
"X. c #5E492C",
"o. c #4A4336",
"O. c #45423D",
"+. c #4D433B",
"@. c #52493C",
"#. c #5C4D36",
"$. c #654B25",
"%. c #3B3946",
"&. c #3F3D4B",
"*. c #403F45",
"=. c #403F49",
"-. c #434244",
";. c #46454D",
":. c #48464F",
">. c #4B4C4D",
",. c #4B4845",
"<. c #534D44",
"1. c #534C45",
"2. c #5C5243",
"3. c #5D544A",
"4. c #59554D",
"5. c #484451",
"6. c #4D4C53",
"7. c #474650",
"8. c #514D57",
"9. c #504E59",
"0. c #4E5055",
"q. c #525355",
"w. c #585653",
"e. c #55555A",
"r. c #58565A",
"t. c #5C5D5E",
"y. c #5A5957",
"u. c #645C4F",
"i. c #5B605E",
"p. c #6F6144",
"a. c #766A4B",
"s. c #726A52",
"d. c #767053",
"f. c #6A685D",
"g. c #5C5B62",
"h. c #615F68",
"j. c #5D6264",
"k. c #5E6965",
"l. c #616365",
"z. c #616A67",
"x. c #6C6B63",
"c. c #666669",
"v. c #69656D",
"b. c #656B6A",
"n. c #696C6C",
"m. c #686666",
"M. c #706D63",
"N. c #66716C",
"B. c #69726E",
"V. c #78766D",
"C. c #6F6E70",
"Z. c #716F73",
"A. c #6E7472",
"S. c #6D7B73",
"D. c #717474",
"F. c #717C76",
"G. c #75757A",
"H. c #757A79",
"J. c #7B7C7D",
"K. c #797878",
"L. c #807556",
"P. c #75827A",
"I. c #7A837E",
"U. c #718076",
"Y. c #89836C",
"T. c #888475",
"R. c #968E70",
"E. c #A09671",
"W. c #7E7D81",
"Q. c #807E84",
"!. c #7D8681",
"~. c #7E8882",
"^. c #838384",
"/. c #838A86",
"(. c #868689",
"). c #868C89",
"_. c #8A8C8C",
"`. c #888888",
"'. c #8C908E",
"]. c #999587",
"[. c #9A978B",
"{. c #8F9291",
"}. c #939494",
"|. c #999999",
" X c #9D9D9D",
".X c #9B9C9C",
"XX c #979798",
"oX c #A09F9E",
"OX c #AAA386",
"+X c #9F9FA0",
"@X c #A2A2A2",
"#X c #A6A6A6",
"$X c #A7A7A5",
"%X c #A9A9A9",
"&X c #ADADAD",
/* pixels */
"                      `.e.6.V.$X%X@X^.x._.%X#X#X_.v.v.                          ",
"                @X#X.XoX^.c._..X}.}.).C._..X|.XXQ.c.^..X@X%X                    ",
"              /..X}._._.I.m.^.}.).~./.D._.|.|.}.J.l.I._.}..X}.c.q.              ",
"          XXH.H.}.'.I.!.F.g.J.).I.U.P.A.^.)././.B.r.S./.{.|._.n.G..X            ",
"        #X#X.XW.J./.S.S.b.6.j.B.N.b.j.q.b.B.N.b.>.=.k.P.).^.n.(.@X%X            ",
"      |..X}.}.XXW.b.y.:.S j m Z Z N k j N Z N m s d A q.j.l.J.|.XX|.#X          ",
"    ^.!._./.I.I.A.&.c y 2 O . . . . . . . . . . . O ; v B 6.J.`./._._./.        ",
"    c.b.P.P.S.k.=.b u 5 & . . . . . . . . . . . . . @ 7 p b >.A.I.I.F.b.l.      ",
"  XXD.r.i.B.z.-.x R u 4 @ . . . . . . . . . . . . . @ 3 p I b >.b.b.t.t.J.      ",
"  #X.X^.r.0.-.~ T T t 2 $ . . . . . . . . . . . . . o * u I R V -.q.l._.%X%X    ",
"  #X.X.X(.:.b E T U 4 * @ . . . . . . . . . . . . . o & u i R ^ B l.}..X@X&X    ",
"  |.'._._.8.x ^ U p 4 * @ . . . . . . . . . . . . . X & 7 i R E V Z.}.~._.#X    ",
"  _./.!.H.+.R E p i 3 2 = . . . . . . . . . . . . . @ 3 t u T R ~ r.I././.).    ",
"  c.B.D.n.` R E p p y 8 $ . . . . . . . . . . . . . + 8 u i T R R 1.A.F.n.r.    ",
"  g.6.6.>.b E E T _ h + . . . . . . . . . . . . . . O , / E R R R ` 6.6.;.:.    ",
"  XXW.j.=.b E ..@.V + X X . . . . . . . . . . . . . . o g @. .E R V ;.t.H._.    ",
"  .X}.{.b./ ..2.V $ o # @ . . . . . . . . . . . . . X @ + l 3.X.^ ,.G._.XX#X    ",
"  }././.D.O.O.g $ 2 3 * @ . . . . . . . . . . . . . @ * # $ B u._ 1./.)._..X    ",
"  ).P.P.A.Z , @ 4 I w & o . . . . . . . . . . . . . o & 4 4 - B 2.y.!.!.I.XX    ",
"  I.P.P.n.j @ P ! E 4 & o . . . . . . . . . . . . . o & w U 9 $ g q.I.P.P.).    ",
"  I.P.P.b.z i $. .R 4 & O . . . . . . . . . . . . . X # 4 T ! w o Z J.P.P.!.    ",
"  F.D.A.z.b ) $. .U 4 @ O . . . . . . . . . . . . . X @ 1 p { R t C A.A.S.D.    ",
";.q.r.e.>.b E | [ F 1 @ X . . . . . . . . . . . . . X @ 1 r ! E ^ ` q.q.q.;.    ",
"  v.n.C.l.` R [ W q < @ o . . . . . . . . . . . . . X @ 1 r W R ) ,.c.Z.n.h.    ",
"  }.)._.J.] U K J 0 < ; + . . . . . . . . . . . . . O @ 1 q Y R R 3._.}.'.|.    ",
"  _.I.P.A./ F L G i y $ . . . . . . . . . . . . . . o - 3 0 H P P 2./.!.!.}.    ",
"  !.P.F.B.n q J W V - X X . . . . . . . . . . . . . . o y i G F r <.!.P.P.).    ",
"  F.F.F.n.x q { @.> X @ o . . . . . . . . . . . . . X O > / Y F e @.F.F.S.~.    ",
"  n.B.B.i.x ~ <., @ & & o . . . . . . . . . . . . . X @ @ h @.P e o.b.B.b.z.    ",
"  8.q.e.>.c h - & q 6 & O . . . . . . . . . . . . . @ < 1 2 A 2.r x 6.q.7.%.    ",
"  (.^.^.C.j @ 0 H H 0 & X . . . . . . . . . . . . . @ < 0 e 7 ' @.,.J.^.^.Q.    ",
"  _././.H.h 0 | Q J 0 @ X . . . . . . . . . . . . . o < q H H t B t._.)._.XX    ",
"  B.B.B.l./ K | K J 5 o . . . . . . . . . . . . . . X % 0 J | H 2 *.G.n.b.F.    ",
"  b.b.N.l./ K | L e % O . . . . . . . . . . . . . . X o 1 H } Q e ' A.b.k.C.    ",
"  j.j.l.j./ J K e % + O . . . . . . . . . . . . . . . O $ e L Q Y o.n.b.j.j.    ",
"  ;.;.;.;.x F e = - O . . . . . . . . . . . . . . . . . + ; D L H b 7.;.=.%.    ",
"  6.9.8.;.v 8 - > - + O O X O X . . . . . . O O O . o $ - , 3 D r c 5.6.6.=.    ",
"  _._.(.G.j $ l C c c l , ; 8 , > - - $ - > , f f : h C A A g ; 5 +.Q.(.(._.    ",
"  W.G.G.v.M n x.D.x.x.f.+.o.w.q.>.>.O.z O.,.1.4.w.+.3.V.K.J.n.g % ' D.Z.D.W.    ",
"  g.r.g.9.*.s.].[.].].R.p.a.R.T.Y.Y.L.#.M.V.T.T.Y.a.L.E.OXOXOXd.> m 6.7.;.6.    "
};
