/* XPM */
static char *_40bf75f6c064ba8e2a8f18d55172a8cNKrtgkpc4tpI1PIW[] = {
/* columns rows colors chars-per-pixel */
"64 64 135 2 ",
"   c #0F0E0D",
".  c #100F0F",
"X  c #10100F",
"o  c #161616",
"O  c #181717",
"+  c #171817",
"@  c #181817",
"#  c #171718",
"$  c #181718",
"%  c #171818",
"&  c #181818",
"*  c #1E1F21",
"=  c #1E2021",
"-  c #202326",
";  c #222629",
":  c #262A2E",
">  c #282C2F",
",  c #272B30",
"<  c #292E32",
"1  c #2D3136",
"2  c #2D353B",
"3  c #30363C",
"4  c #30383F",
"5  c #2F3841",
"6  c #333B42",
"7  c #383F46",
"8  c #353F49",
"9  c #394047",
"0  c #36404A",
"q  c #3A444D",
"w  c #3C4752",
"e  c #3E4954",
"r  c #434D56",
"t  c #444E58",
"y  c #47515B",
"u  c #4A545F",
"i  c #4B545F",
"p  c #4C555F",
"a  c #4C565F",
"s  c #49535E",
"d  c #4B5560",
"f  c #4B5661",
"g  c #4C5660",
"h  c #4D5761",
"j  c #4B5661",
"k  c #4D5863",
"l  c #4E5863",
"z  c #4F5A65",
"x  c #515A64",
"c  c #505A65",
"v  c #505B65",
"b  c #515B65",
"n  c #515C66",
"m  c #515C67",
"M  c #525C66",
"N  c #535C66",
"B  c #525C67",
"V  c #515C67",
"C  c #535D68",
"Z  c #535E6A",
"A  c #545E68",
"S  c #545F6A",
"D  c #555F6A",
"F  c #555F6B",
"G  c #535E69",
"H  c #55606C",
"J  c #57616C",
"K  c #57626E",
"L  c #56616C",
"P  c #58626C",
"I  c #58626D",
"U  c #59626D",
"Y  c #59636D",
"T  c #58636E",
"R  c #59636E",
"E  c #58636F",
"W  c #59636F",
"Q  c #59646E",
"!  c #59646F",
"~  c #5A646E",
"^  c #59636E",
"/  c #5B6570",
"(  c #5C6670",
")  c #5C6671",
"_  c #5C6772",
"`  c #5D6772",
"'  c #5D6773",
"]  c #5C6671",
"[  c #5E6974",
"{  c #5F6974",
"}  c #5F6A75",
"|  c #5D6872",
" . c #606A75",
".. c #606B76",
"X. c #616B76",
"o. c #626C76",
"O. c #636D77",
"+. c #606A76",
"@. c #636D78",
"#. c #636E79",
"$. c #646E79",
"%. c #646F7A",
"&. c #656F7A",
"*. c #656F7B",
"=. c #646E7A",
"-. c #65707B",
";. c #66707B",
":. c #67717C",
">. c #67717D",
",. c #66717D",
"<. c #68727D",
"1. c #69737D",
"2. c #68727E",
"3. c #68737E",
"4. c #69737E",
"5. c #69747F",
"6. c #6A747F",
"7. c #68737E",
"8. c #6A7480",
"9. c #6B7580",
"0. c #6B7680",
"q. c #6B7681",
"w. c #6C7682",
"e. c #6C7782",
"r. c #6D7782",
"t. c #6D7783",
"y. c #6A7581",
"u. c #6D7883",
"i. c #6E7883",
"p. c #6E7884",
"a. c #6E7984",
"s. c #6F7984",
"d. c #6F7985",
"f. c #717B86",
"g. c #717C87",
/* pixels */
"o o o o o o o o o o o o & o & & % % & & & & & & & & o % & & & % o % o o & o o o o o o & & & & o o o o o o o o o o o o o o o o o ",
"o o o o o o o o o o o & % & & & & + & & & & & & & & o % + o & & o o o & & o & & o & & & & & o o o o o o o o o o o o o o o o o o ",
"o o o o o o o o o o o % # & & & & & & & & & & & & & o o + o o o o o + & & & & & & & & & & & & & & o & o o o o o o o o o o o o o ",
"o o o o o o o o o o o o & & & & & & & & & & & & & & o o % & & o o o & & & & & & & & & & & & & & & & & o o o o o o o o o o o o o ",
"o o o o o o o o o & & & & & & & & & & & & & & & & & o o & & & & o o & & & & + & & & & & & & & & & & & + o o o o o o o o o o o o ",
"o o o o o o o o o & & $ o & & & & & & & & & & & & & + & & & & & o o & & & & o & & & & & & & & & & & & & o o o o o o o o o o o o ",
"o o o o o o o o # & & # o & & & & & & & & & & & & & & o o % % o o o % & & & & & & & & & & & & & & & & o o o o o o o o o o o o o ",
"o o o o o o o o o o & % % o & & & & & & & & & & & & o o o % & & & % & & & & & & & & & & & & & & & & & o o o o o o o o o o o o o ",
"o o o o o o o o o o # & & & & & & & & & & & & & & & o o & & & & o o + & & & & & & & & & & & & & & & & o o o o o o o o o o o o o ",
"o o o o o o o o o # o & & & & & & & & & & & & & & & o o & & & o o % & & & & & & & & & & & & & & & & & & o o o o o o o o o o o o ",
"o o o o o o o o o & & o & & & & & & & & & & & & & & & & & & & % % & & & & & & & & & & & & & & & & & & & o o o o o o o o o o o o ",
"o o o o o o o o o o & % % & & & & & & & & & & & & & & & & & & & & & & & & & & & & & & & & & & & & & & % o + o o o o o o o o o o ",
"o o o o o o o o o o & & & & & & & & & & & & & & & % & & & & & & & & & & & & & & & & & & & & & & & & & & + o o o o o o o o o o o ",
"o o o o o o o o o o & & & & & & & & & & & & & & & & o o o o o o o o o o o & & & & & & & & & & & & & & & + o o o o o o o o o o o ",
"o o o o o o o o o & & & & & & & & & & & & & & & & o & < < < < < < < < < < & & & & & & & & & & & & & & & & o o o o o o o o o o o ",
"o o o o o o o o o o # & & & & & & & & & & & & & & o - q 8 0 0 0 0 0 0 0 q * O & & & & & & & & & & & & & & o o + o o o o o o o o ",
"o o o o o o o o o & & & & & & & & & & & & & o : 6 2 q C / @.o.@.o.o.@.! N 7 2 6 , o & & & & & & & & & & & o o o o o o o o o o o ",
"o o o o o o o o o # & & & & & & & & & & & & & 3 e q t I -.d.u.d.d.u.d.@.I r q w 3 & & & & & & & & & & & & o o o o o o o o o o o ",
"o o o o o o o o & o & & & & & & & & & & o - 5 N 8.4.$.C @.d.t.u.t.t.u.[ N $.4.8.F 6 - o & & & & & & & & & o o o o o o o o o o o ",
"o o o o o o o & & & & & & & & & & & @ & = 1 t ) u.8.$.I I I I I L I I ! I $.4.t.) t 2 = & & & & & & & & & o o o o o o o o o o o ",
"o o o o o o o @ & & & & & & & & & & o * 6 y d.8.5.t.8.f.h 6 0 8 8 0 6 N f.8.5.:.4.d.s 7 * O & & & & & & & o o o o o o o o o o o ",
"o o o o o o o & & & & & & & & & & & o & 6 t 8.4.5.v s v 7 ; : : : : ; 9 v s x 4.4.8.y 6 * & & & & & & & & o o o o o o o o o o o ",
"o o o o o @ & & & & & & & & & & & & o & 6 t t.8.5.q 6 0 -   o o o o   ; 8 6 0 4.4.t.y 6 & o & & & & & & & + o o o o o o o o o o ",
"o o # o & & @ & & & & & & & & & & & < 6 t d J s e ; & * % o o o o o o % * & - w y F s t 6 1 & & & & & & & & o o o o o o o o o o ",
"& & & o & & & & & & & & & & & & & & 3 q C N F q 2 % X o o o o o o o o o     o 1 q v v v w 6 & & & & & & & & & o o o o o o o o o ",
"& & % o & & & & & & & & & & & & & & 2 q :.[ I 2 X o o o o o o o o o o o o o o   < F ) -.q 2 & & & & & & @ o + o o o o o o o o o ",
"& & & % & & & & & & & & & & & & & & 2 q 4. .I 1   o o o o o o o o o o o o o o   < C [ 4.q 2 & & & & & & & o o o o o o o o o o o ",
"& & & & & & & & & & & & & & & & & & 2 q 4. .I 1   o o o o o o o o o o o o o o   > N ' :.w 2 & & & & & & & + + o o o o o o o o o ",
"& & & & & & & & & & & & & & & & & & 2 q 4. .J 1   o o o o o o o o o o o o o o   : k ) :.q 2 & & & & & & & & & o o o o o o o o o ",
"& & & & & & & & & & & & & & & & & & 2 q -.[ J 1   o o o o o o o o o o o o o o . : d ! $.q 2 & & & & & & & & o o o o o o o o o o ",
"& & & & & & & & & & & & & & & & & & 2 q s t w ;   o o o o o o o o o o o o o o X ; w t s 0 2 & & & & & & & & + o o o o + o & & o ",
"& & & & & & & & & & & & & & & & & & 2 q v s r : . o o o o o o o o o o o o o o X ; w y k q 2 & & & & & & & & & & o o o o % & o % ",
"& & & & & & & & & & & & & & & & & & 2 q :.| J 1 . o o o o o o o o o o o o o o   : s ! $.q 2 & & & & & & & & & o o o o o o & & % ",
"& & & & & & & & & & & & & & & & & & 2 q $./ C 1 X o o o o o o o o o o o o o o   ; y I $.q 2 & & & & & & & & & % o & o o o o o o ",
"& & & & & & & & & & & & & & & & & & 2 q $.) C 1 X o o o o o o o o o o o o o o . : y I $.q 2 & & & & & & & & & & o o o @ o o @ & ",
"& & & & & & & & & & & & & & & & & & 1 q $.) C 1 X o o o o o o o o o o o o o o X : s I $.q 2 & & & & & & & & & o o o & & o o & & ",
"& & & & & & & & & & & & & & & & & & 1 q $./ C 1 X o o o o o o o o o o o o o o X : d I $.q 2 & & & & & & & & & o o o + o o o o & ",
"& & & & & & & & & & & & & & & & & & 2 0 d t w : o o o o o o o o o o o o o o o o ; w t s q 2 & & & & & & & & & & o o & + o o o @ ",
"& & & & & & & & & & & & & & & & & & 2 0 z s r : o o o o o o o o o o o o o o o o ; w s z q 2 & & & & & & & $ & + o o o o o o o & ",
"& & & & & & & & & & & & & & & & & & 2 q $.) F 1 X o o o o o o o o o o o o o o X < N / $.q 2 & & & & & & & & & o o o o o o o & # ",
"& & & & & & & & & & & & & & & & & & 2 q $./ C 1 o # o o o o o o o o o o o o o o : h ! $.q 2 & & & & & & & & & o o o o o O o o & ",
"& & & & & & & & & & & & & & & & & & 2 q $.) C 1 o % o o o o o o o o o o o o o o : s I $.q 2 & & & & & & & & o o o o o o o o o o ",
"& & & & & & & & & & & & & & & & & O 1 q :.) C 1 o o o o o o o o o o o o o o o o : s ! -.q 2 & o & & & & & & o o o o o o o o o o ",
"% & & & & & & & & & & & & & & & & & 2 q $.) C 3 o & & & & & & & & & & & & & & % < s I @.q 4 & & & & & & & o o o o o o o o o o o ",
"& % & & & & & & & & & & & & & o 7 s t y h t 0 r y r r r r r r r r r r r r r r t w 0 r s t t s 7 o & & & & # o o o o o o o o o o ",
"& & & & & & & & & & & & & & & o 9 z C F F v s h h C F F C C F C C v s z F F F F z y z N N N z 7 o & & & & o o o o o o o o o o o ",
"& & & & & & & & & & & & & & & o 9 z @.5.:.8.t.I s $.4.:.4.:.:.:.4. .s ! 8.:.:.:.:.4.:.:.4.@.z 9 o & & & o o o o o o o o o o o o ",
"% o o % & & & & & & & & & & & o 9 z F J J J J z s F J L J L L F L N y z J L L L F F F F L C z 9 o & & o o o o o o o o o o o o o ",
"% & o & & o & & & & & & & & & o 7 s r t r r r t t r r r r r t r r r r r r r r r r r r r r r y 6 o & & o o o o o o o o o o o o o ",
"o o o o & & & & & & & & & & & & & * * = * * = * * * = = = = = = = * * * * * = = = * * * * * * & o + + o o o o o o o o o o o o o ",
"o o o @ & % o o & & o o o + & & o o o o o o o o o o o o o o o o o o o o o o O o o o o o o o o o & o o o o o o o o o o o o o o o ",
"o o o % & o o o o o o & % + & & & & & & & & & & & & & & & & & & & & & & & & & & & & & & & & & & o o o o o o o o o o o o o o o o ",
"o o o o o o o o o o % & o & & & & & & & & & & & & & & & & & & & & & & & & & & & & & & & & & % + o o o o o o o o o o o o o o o o ",
"o o o o o o o o o o o o o o o % o o o & & & & & & & & & & & & & & & & & & & & & & & & & & & o o o o o o o o o o o o o o o o o o ",
"o o o o o o o o o o o o o o o o o o o o o o & & o o & % o o & % & & & & & & & & & & & & & o & o o o o o o o o o o o o o o o o o ",
"o o o o o o o o o o o o o o o o o o o o % o o o o o o o o + o & o & & & & & & & & & & & & o o o o o o o o o o o o o o o o o o o ",
"o o o o o o o o o o o o o o o o o o o o o o o o o o o o o o o & o & & & & & & & & + & @ & o o o o o o o o o o o o o o o o o o o ",
"o o o o o o o o o o o o o o o o o o o o o o o o o o o o o o + & o o & & & & & & & o o # o o o o o o o o o o o o o o o o o o o o ",
"o o o o o o o o o o o o o o o o o o o o o o o o o o o o o o o & o o o o o o o & & + o o o o o o o o o o o o o o o o o o o o o o ",
"o o o o o o o o o o o o o o o o o o o o o o o o o o o o o o o o o o o o o o o o o o o o o o o o o o o o o o o o o o o o o o o o ",
"o o o o o o o o o o o o o o o o o o o o o o o o o o o o o o o o o o o o o o o o o o o o o o o o o o o o o o o o o o o o o o o o ",
"o o o o o o o o o o o o o o o o o o o o o o o o o o o o o o o o o o o o o o o o o o o o o o o o o o o o o o o o o o o o o o o o ",
"o o o o o o o o o o o o o o o o o o o o o o o o o o o o o o o o o o o o o o o o o o o o o o o o o o o o o o o o o o o o o o o o ",
"o o o o o o o o o o o o o o o o o o o o o o o o o o o o o o o o o o o o o o o o o o o o o o o o o o o o o o o o o o o o o o o o "
};
