/* XPM */
static char *a86q6_lfy50[] = {
/* columns rows colors chars-per-pixel */
"40 40 204 2 ",
"   c None",
".  c #010102",
"X  c #0B0706",
"o  c #1E1606",
"O  c #1A1613",
"+  c #260C09",
"@  c #261808",
"#  c #221D15",
"$  c #2C220A",
"%  c #322609",
"&  c #2C231C",
"*  c #38271B",
"=  c #382F27",
"-  c #541B15",
";  c #7C1A15",
":  c #412E0B",
">  c #47330B",
",  c #553C0A",
"<  c #4E3119",
"1  c #7C2719",
"2  c #443226",
"3  c #493527",
"4  c #523D2B",
"5  c #503F3F",
"6  c #78282D",
"7  c #6C3426",
"8  c #693839",
"9  c #7B382B",
"0  c #5F4105",
"q  c #53401A",
"w  c #654708",
"e  c #795407",
"r  c #6F4E12",
"t  c #7E5916",
"y  c #5B4029",
"u  c #584338",
"i  c #664436",
"p  c #7F4F38",
"a  c #7E563D",
"s  c #614628",
"d  c #6C3F53",
"f  c #544B49",
"g  c #57504B",
"h  c #6E5540",
"j  c #7A5841",
"k  c #675653",
"l  c #7A5F50",
"z  c #7E604C",
"x  c #766257",
"c  c #53576E",
"v  c #644E6A",
"b  c #62586A",
"n  c #7F7F7E",
"m  c #7B716C",
"M  c #851B15",
"N  c #8B1B16",
"B  c #861D18",
"V  c #921C16",
"C  c #941B18",
"Z  c #84221B",
"A  c #892515",
"S  c #922316",
"D  c #942B16",
"F  c #95231B",
"G  c #992318",
"H  c #9A2C1C",
"J  c #853413",
"K  c #8B3313",
"L  c #8F3913",
"P  c #943B13",
"I  c #993416",
"U  c #952C21",
"Y  c #893B29",
"T  c #9B372B",
"R  c #8A3335",
"E  c #835C0B",
"W  c #934613",
"Q  c #9E4113",
"!  c #994515",
"~  c #9D5A11",
"^  c #8F4F10",
"/  c #A05E0F",
"(  c #A54219",
")  c #A14914",
"_  c #B04F1B",
"`  c #A45D12",
"'  c #A95717",
"]  c #B2581C",
"[  c #9A6C0A",
"{  c #976209",
"}  c #8E6918",
"|  c #9A7017",
" . c #8A610C",
".. c #A3710A",
"X. c #AD770C",
"o. c #AE7A0E",
"O. c #B37C0D",
"+. c #AD6B13",
"@. c #A86814",
"#. c #B26B17",
"$. c #AA7914",
"%. c #B37F15",
"&. c #B97E14",
"*. c #BD741B",
"=. c #B57517",
"-. c #A6690D",
";. c #8B4735",
":. c #9A4937",
">. c #885539",
",. c #A74F39",
"<. c #A87A33",
"1. c #A76434",
"2. c #C37A1E",
"3. c #C2771D",
"4. c #8A5C41",
"5. c #805A41",
"6. c #8A6145",
"7. c #89674D",
"8. c #946649",
"9. c #9E6D4D",
"0. c #986749",
"q. c #8D6D50",
"w. c #996B56",
"e. c #9E775B",
"r. c #A9684A",
"t. c #A4704E",
"y. c #AB7654",
"u. c #A87655",
"i. c #B37A56",
"p. c #B47654",
"a. c #B66B4E",
"s. c #857C77",
"d. c #8C736D",
"f. c #B6810F",
"g. c #B68012",
"h. c #BB8313",
"j. c #BE8814",
"k. c #BA861C",
"l. c #BE8921",
"z. c #B78726",
"x. c #B18030",
"c. c #BC933E",
"v. c #C38C16",
"b. c #C48D1B",
"n. c #CA8E1A",
"m. c #C6871A",
"M. c #C79017",
"N. c #CC931A",
"B. c #D1971D",
"V. c #D49A1E",
"C. c #C98921",
"Z. c #C79120",
"A. c #D49521",
"S. c #D49B22",
"D. c #D99F21",
"F. c #DA9D22",
"G. c #D39D2C",
"H. c #CD9D38",
"J. c #DAA021",
"K. c #DDA323",
"L. c #DCA222",
"P. c #DDA223",
"I. c #DEA323",
"U. c #B6825E",
"Y. c #BA825D",
"T. c #8C817E",
"R. c #AC8466",
"E. c #BC8B64",
"W. c #B68D6C",
"Q. c #A3926F",
"!. c #B9977B",
"~. c #A7927D",
"^. c #C8A359",
"/. c #C38D65",
"(. c #CC956C",
"). c #C3966A",
"_. c #D5956A",
"`. c #C69774",
"'. c #D19C72",
"]. c #DEA679",
"[. c #D7A377",
"{. c #E2AC7D",
"}. c #5F5C83",
"|. c #596387",
" X c #5A6995",
".X c #606F9A",
"XX c #7B7F93",
"oX c #637199",
"OX c #5C72A4",
"+X c #6174A1",
"@X c #7683A4",
"#X c #AD8C81",
"$X c #B7A598",
"%X c #9297AB",
"&X c #848FB0",
"*X c #8893B1",
"=X c #949FBD",
"-X c #A09DAB",
";X c #9FA7B6",
":X c #AFB1AC",
">X c #B3B2B2",
",X c #E8B181",
"<X c #C7BAAD",
"1X c #C9CBC5",
/* pixels */
"                                z.k.v.V.g.j.B.K.V.                              ",
"                              c.z.b.B.L.M.N.B.B.v.z.H.                          ",
"                              x.l.N.B.B.V.L.V.M.j.k.G.J.                        ",
"                              @.h.N.N.v.V.I.L.B.N.N.V.S.Z.                      ",
"                            Y W +.v.v.g.M.V.K.K.K.K.V.M.v.h.                    ",
"                b.B.b.@.W 1 B S Q +.v.N.h.v.V.I.I.K.b.v.v.b.%.                  ",
"              b.S.L.B.h.~ L S C S Q *.L.N.B.D.K.K.K.B.B.V.M.o.                  ",
"            k.b.D.K.K.B.g.` I S N D ' C.A.L.K.K.K.K.K.I.K.N.g.k.                ",
"              z.k.B.D.V.N.&.` K B Z I ] m.A.D.K.I.I.K.K.L.V.N.b.l.              ",
"              r E g.v.N.V.B.%.~ J 1 M H ] *.n.V.K.K.K.D.B.B.D.b.                ",
"                :  ...g.N.L.B.%.~ K N C G ) +.m.A.A.F.B.v.v.N.j.                ",
"                $ > e ..h.N.D.B.h.` K M V D I ( _ _ #.h.v.v.j.f.                ",
"                  # > w e [ v.N.v.&.` Q ( I S V G G Q ` #.#.` /                 ",
"                  O o $ : r $.$.g.v.m.3.2.' I S S V F I P L K J                 ",
"                    X O 2 >.<.t E $.v.v.D.b.+.) P A V V M ; ; ;                 ",
"                      2 j E.E.4 q } k.f.M.B.n.&.-.P I I D A ; ;                 ",
"                        E.].).3 g Q.^.X.O.g.h.v.n.2.3.3.*.#.) W                 ",
"                          {.[.q.d.~.).x.t E ..h.M.n.B.D.D.n.=.=.C.              ",
"                          '.{.[.W.R.E./.s , e [ [ o.v.V.K.V.v.M.S.G.            ",
"                        t.U.{.,X[.).'.'.6.y , , w { o.j.N.N.b.v.v.v.b.          ",
"                          9.'.].].].{.{./.6.3 @ @ 0 e E } | | $.%.%.            ",
"                          t.Y._._._.].{.].E.j * X o @ @ $ % % w                 ",
"                            i.Y.i.y.U.(.(.U.4.< + X . . . . .                   ",
"                              i.9.6.9.U.u.8.p 7 - + X . . .                     ",
"                                      /.8.4.4.p 7 - @ X .                       ",
"                                    ,.a.;.>.0.0.>.1 8 5                         ",
"                                  A U T F T r.p.r.Y w.                          ",
"                                W A C C C H ,.a.r.;.w.                          ",
"                              { W D C C C V U :.0.4.u.E.                        ",
"                              J A V C C C N Z 9 >.i.(.'./.y.                    ",
"                              W D G V N N 6 8 i j /.{.]./.y.                    ",
"                              <.1.:.R 6 6 d v b x R.'.'.U.9.                    ",
"                                !.#Xd.v v }. X|.b x e.u.0.a                     ",
"                                  >X%XXX+XOX X|.c f h a i 3                     ",
"                                      ;X@XOX Xc g u i y 2 &                     ",
"                            U.l s.:X1X>X@X.XoXXXT.k 2 = k n                     ",
"                            0.z d.$X<X:X%X&X&X*X  s.k f                         ",
"                            4 7.R.`.!.!.-X  =X      m                           ",
"                            & h 7.8.8.i.                                        ",
"                              & & * *                                           "
};
