/* XPM */
static char *_d952bfcb88e4762fbec9ef3ceb96b2c9hU0mu79D8TgzbfT[] = {
/* columns rows colors chars-per-pixel */
"64 64 205 2 ",
"   c #03060A",
".  c #1D140E",
"X  c #060E15",
"o  c #0B0E10",
"O  c #0C1115",
"+  c #0F1418",
"@  c #171717",
"#  c #181716",
"$  c #171817",
"%  c #191817",
"&  c #141718",
"*  c #181718",
"=  c #16191A",
"-  c #1A1919",
";  c #380F00",
":  c #3B1201",
">  c #351B0D",
",  c #30170A",
"<  c #221A16",
"1  c #2D1D15",
"2  c #221D1A",
"3  c #2E1F19",
"4  c #331D13",
"5  c #3C1F11",
"6  c #311F19",
"7  c #24211E",
"8  c #2D201A",
"9  c #2F2017",
"0  c #3D2214",
"q  c #322119",
"w  c #3D2518",
"e  c #1B1F22",
"r  c #19222A",
"t  c #1C2934",
"y  c #14293B",
"u  c #192735",
"i  c #2B2622",
"p  c #382C23",
"a  c #471904",
"s  c #431F0F",
"d  c #451702",
"f  c #401F10",
"g  c #46200F",
"h  c #442616",
"j  c #492616",
"k  c #472817",
"l  c #4B2917",
"z  c #472418",
"x  c #492519",
"c  c #4C2B19",
"v  c #462818",
"b  c #512D17",
"n  c #512D19",
"m  c #56311B",
"M  c #59321A",
"N  c #44362B",
"B  c #49382C",
"V  c #523828",
"C  c #643C24",
"Z  c #6F330B",
"A  c #5B402E",
"S  c #5D4433",
"D  c #6C442B",
"F  c #724127",
"G  c #7B4E32",
"H  c #6D503A",
"J  c #73543C",
"K  c #684B36",
"L  c #142D45",
"P  c #16354D",
"I  c #1B334C",
"U  c #0E3A5C",
"Y  c #153655",
"T  c #163A52",
"R  c #11395E",
"E  c #153555",
"W  c #24374E",
"Q  c #313F51",
"!  c #0D3B63",
"~  c #063C6A",
"^  c #143D62",
"/  c #17405C",
"(  c #3A4552",
")  c #14416C",
"_  c #19436C",
"`  c #14496E",
"'  c #054474",
"]  c #0C4674",
"[  c #01467B",
"{  c #034A7C",
"}  c #0E4C7E",
"|  c #0C4677",
" . c #144675",
".. c #154876",
"X. c #154A7B",
"o. c #1B4B74",
"O. c #165179",
"+. c #204766",
"@. c #254E71",
"#. c #205175",
"$. c #2B5775",
"%. c #335D78",
"&. c #59534E",
"*. c #5C5A5B",
"=. c #7C5B42",
"-. c #735D59",
";. c #7D6045",
":. c #7B615D",
">. c #77605E",
",. c #4C596B",
"<. c #695E62",
"1. c #4F6C7B",
"2. c #646167",
"3. c #706C68",
"4. c #8B4612",
"5. c #844D2F",
"6. c #894F30",
"7. c #825536",
"8. c #875739",
"9. c #905937",
"0. c #995E3A",
"q. c #845E49",
"w. c #8C6346",
"e. c #826044",
"r. c #946341",
"t. c #836258",
"y. c #976751",
"u. c #AA6B47",
"i. c #B66B42",
"p. c #B86C42",
"a. c #AC724B",
"s. c #B1754D",
"d. c #BD734A",
"f. c #BC794E",
"g. c #B3784F",
"h. c #A56C52",
"j. c #AB7351",
"k. c #B37B53",
"l. c #BD7E55",
"z. c #886C63",
"x. c #877E7A",
"c. c #C8784A",
"v. c #DD7946",
"b. c #D57747",
"n. c #CA7F50",
"m. c #E27944",
"M. c #EA7C43",
"N. c #F17E41",
"B. c #EC8227",
"V. c #F38628",
"C. c #BB845A",
"Z. c #BF8156",
"A. c #90837B",
"S. c #C48356",
"D. c #C6865A",
"F. c #CA875A",
"G. c #CB895D",
"H. c #C88658",
"J. c #DC8856",
"K. c #D28D5E",
"L. c #DE8C5A",
"P. c #D78454",
"I. c #DB915F",
"U. c #EE8146",
"Y. c #E28451",
"T. c #E38955",
"R. c #E28E5B",
"E. c #EA8953",
"W. c #EB945D",
"Q. c #F4975D",
"!. c #C68C65",
"~. c #D48F60",
"^. c #C99069",
"/. c #D69262",
"(. c #DC9463",
"). c #E19765",
"_. c #E19664",
"`. c #E29866",
"'. c #E59A67",
"]. c #E49966",
"[. c #E99B65",
"{. c #E59B68",
"}. c #EA9E6A",
"|. c #EB9E69",
" X c #E99560",
".X c #F99E64",
"XX c #EEA16D",
"oX c #E4A06D",
"OX c #F2A36D",
"+X c #FCA569",
"@X c #EAA972",
"#X c #084F81",
"$X c #134E81",
"%X c #05568C",
"&X c #0F5589",
"*X c #125685",
"=X c #12598A",
"-X c #165785",
";X c #025993",
":X c #125F93",
">X c #0A639F",
",X c #146196",
"<X c #13659C",
"1X c #0963A0",
"2X c #1067A2",
/* pixels */
"- - - - - - - - - - - - - - - - - - - - - - - - - - - - - - - - - - - - - - - - - - - - - - - - - - - - - - - - - - - - - - - - ",
"- - - - - * - - - - - - - - - - - - - - - - - - - - - - - - - - - - - - - - - - - - - - - - - - - - - - - - - - - - - - * - - - ",
"- - - - - - % * - - - - - - - - - - - - - - - - - - - - - - - - - - - - - - - - - - - - - - - - - - - - - - - - - - $ @ @ % * - ",
"- - - - - - - - - - - - - - - - - - - - - - - - - - - - - - - - - - - - - - - - - - - - - - - - - - - - - - - - - - $ @ * @ * - ",
"- - - - - - - - - - - - - - - - - - - - - - - - - - - - - - - - - - - - - - - - - - - - - - - - - - - - - - - - - - - @ @ @ @ @ ",
"- - - - - - - - - - - - - - - - - - - - - - - - - - - - - - - - - - - - - - - - - - - - - - - - - - - - - - - - - - @ @ @ @ @ * ",
"- - - - @ @ - - - - - - - - - - - - - - - - - - - - - - - - - - - - - - - - - - - - - - - - - - - - - - - - - - - - - - @ - - - ",
"- - - $ @ @ * * - - - - - - - - - - - - - - - - - - - - - - - - - - - - - - - - - - - - - - - - - - - - - - - - - - - - - - - - ",
"* @ @ @ - - - - - - - - - - - - - - - - - - - - - - - - - - - - - - - - - - - - - - - - - - - - - - - - - - - - - - - - - - - - ",
"@ @ $ $ - - - - - - - - - - - - - - - - - - - - - - - - - - - - - - - - - - - - - - - - - - - - - - - - - - - - - - - - - - - - ",
"- - % - - - @ - - - - - - - - - - - - - - - - - - - - - - - - - - - - - - - - - - - - - - - - - - - - - - - - - @ * - - - - - - ",
"- - - - - $ @ - - - - - - - - - - - - - - - - - - - 2 - - - - - - - - - - - - - - - - - - - - - - - - - - - - - * - - - - - - - ",
"- - $ - - @ - - - - - - - - - - - - - - - - - - $ 9 k h h h h h h h h h h k 2 = - - - - - - - - - - - - - - - - - - - - - - - - ",
"- - $ @ - - - - - - - - - - - - - - - - - - - 2 2 w c k c c c k k k k k k k q 9 9 2 - - - - - - - - - - - - - - % * - - - - - - ",
"- - * @ - - - - - - - - - - - - - - - - - - - 2 k b M M M M M k h k k k k k k k c 9 - - - - - - - - - - - - - - $ - - - * * - - ",
"- - % * - - - - - - - - - - - - - - - - - - q w b m M m m M M n b m c k k k k k k h w 2 - - - - - - - - - - - - - - - - - % - - ",
"% * - - - - - - - - - - - - - - - - - - - 2 h c M m m M M M M M M M b k k k k k k k k 2 - - - - - - - - - - - - - - - - - - - - ",
"% - - - - - - - - - - - - - - - - - - - q k b M M c k k b M M M m k k 0 0 0 b M k k h - - - - - - - - - - - - - - - - - - - - - ",
"- - - - - - - - - - - - - - - - - - - - q k m m c k k 5.6.b b b b k b 5.5.6.C b c k h - - - - - - - - - - - - - - - - - - - - - ",
"- - - - - - - - - - - - - - - - - - - - 9 k m m k k 5 c.n.h 0 h h 0 m Y.Y.E.F 0 M b h - - - - - - - - - - - - - - - - - - - - - ",
"- - - - - - - - - - - - - - - - - - - - q k k k > G S.(._.p.i.p.p.i.d.'._._.n.i.b k h - - - - - - - - - - - - - - - - - - - - - ",
"- - - - - - - - - - - - - - - - - - - - q k h c m u.}.D.F.J.T.T.T.T.J.D.D.(. XP.l k v 2 - - - - - - - - - - - - % - - - - - - - ",
"- - - - - - - - - - - - - - - - - - - - 1 0 0 D {.XXr., 5 Z.}.`.`.XXa.> > a.OXK.c 0 4 - - - - - - - - - - - - - * - - - - - - - ",
"- - - - - - - - - - - - - - - - - - - $ V 9.l D }.'.G.s.g./.'.`.`.'.K.s.s.K.}.~.l C 9.p $ - - - - - - - - - - - - - - - - - - - ",
"- - - - - - - - - - - - - - - - - - - + 8..Xm C }.(.XXH N (.'.`.`.}.D.p w.OX'./.5 9.+XS & 2 - - - - - - - - - - - - - - - - - - ",
"- - - - - - - - - - - - - - - - - - - O e.OXd.f.{.).|.p o /.'.).).|.l.  K OX).(.i.H.OXS & 2 - - - - - - - - - - - - - - - - - - ",
"- - - - - - - - - - - - - - - - - - - O ;.@XL.R.`.`.XXB - /.'.).).}.l.o J OX).).R.(.oXS & - - - - - - - - - - - - - - - - - - - ",
"- - - - - - - - - - - - - - - - - - - - 7 i n.W.`.L.J.F.G.}.}.).).}.'.D.F.P.(.).Q.r.- 7 - - - - - - - - - - - - - - - - - - - - ",
"- - - - - - - - - - - - - - - - - - - - - - 7.s.{.P.b.R.XXl.S.OXOXl.S.OXJ.b.L.(.u.A + - - - - - - - - - - - - - - - - - - - - - ",
"- - - - - - - - - - - - - - - - - - - - - - X B OX'.).(.XX8.D l.l.C 8.XX(.(.XX(.- & - - - - - - - - - - - - - - - - - - - - - - ",
"- - - - - - - - - - - - - - - - - - - - - - - i N j.OX'.[.{.k.7.7.k.{.[.[.OXq.N 7 - - - - - - - - - - - - - - - - - - - - - - - ",
"- - - - - - - - - - - - - - - - - - - - - - - - X =./.!.^.(.'.}.}.'.(.!.!.~.B X - - - - - - - - - - - - - - - - - - - - - - - - ",
"- - - - - - - - - - - - - - - - - - - - - - - - < < < ^ @.v.m.m.m.M.d.] P . - - - - - - - - - - - - - - - - - - - - - - - - - - ",
"- - - - - - - - - - - - - - - - - - - - - - - r T T T } -X>.:.>.>.:.<.&X .P T P - - - - - - - - - - - - - - - - - - - - - - - - ",
"- - - - - - - - - - - - - - - - - - - - - - - u :X,X:X<X<X[ [ { [ [ { <X<X:X,X*Xr - - - - - - - - - - - - - - - - - - - - - - - ",
"- - - - - - - - - - - - - - - - - - - - - - ` =X=X=X=X<X<X,X,X,X,X,X,X<X,X=X=X*X=XT # - - - - - - - - - - - - - - - - - - - - - ",
"- - - - - - - - - - - - - - - - - - - - - - O.:X=X=X=X<X<X<X<X<X<X<X<X<X,X*X=X=X,X/ # - - - - - - - - - - - % - - - % - - - - - ",
"- - - - - - - - - - - - - - - - - - - - - - { ;X;X#X] <X<X<X<X<X<X<X<X<X=X] %X%X;XU % - - - - - - - - - - - - - - - - - - - - - ",
"- - - - - - - - - - - - - - - - - - - - - - 3.x.z.,.' ,X<X<X<X<X<X<X<X<X=X] 2.z.A.&.& - - - - - - - - - - - - - - - - - - - - - ",
"- - - - - - - - - - - - - - - - - - - - - * H..XN.t.[ ,X<X<X<X<X<X,X,X<X=X' j.U.+Xr.O - - - - - - - - - - - - - - - - - $ - - - ",
"- - - - - - - - - - - - - - - - - - - - - $ C.{.v.>.[ <X2X2X1X1X1X>X<X2X=X' h.v.}.w.O - - - - - - - - - - - - - $ - - - - * - - ",
"- - - - - - - - - - - - - - - - - - - - - $ C.[.Y.t.U @.#.o.%.1.1.$.o.#.+.E j.T.XXw.O - - - - - - - - - - - - - $ - - - * $ - % ",
"- - - - - - - - - - - - - - - - - - - - - $ C.}.XX0.: a a ; 4.V.B.Z : d a : f.{.|.w.O - - - - - - - - - - - - - @ @ - - - - @ @ ",
"- - - - - - - - - - - - - - - - - - - - - $ C.|.E.q.L W W I ( *.*.Q I W W L j.E.OXw.O - - - - - - - - - - - - - @ @ - - - - - - ",
"- - - - - - - - - - - - - - - - - - - - - $ k./.b.-.~ X.$X$X} | | X.X.$X .~ y.c./.=.O - - - - - - - - - - - $ $ @ @ @ - - - - - ",
"- - - - - - - - - - - - - - - - - - - - - - i i 8 y !  .....) R R ) ....) ! t 2 7 - - - - - - - - - - - - - - - @ @ % - - * - - ",
"- - - - - - - - - - - - - - - - - - - - - - - $ * y !  .....^ L L ^ ....) ! r * - - - - - - - - - - - - - - - - - % % - - * - $ ",
"- - - - - - - - - - - - - - - - - - - - - - - - - y !  ...X.I # - Y  . .) ! u - - - - - - - - - - - - - - - - - * - % - - - - $ ",
"- - - - - - - - - - - - - - - - - - - - - - - - - y !  ...X.P % - Y  . .) ! r % - - - - - - - - - - - - - - - % % * * % - - $ $ ",
"- - - - - - - - - $ - - - - - - - - - - - - - - - u R _ _ ..I % - P ) _ ^ R r % - - - - - - - - - - - - - - % * @ % * - - - - - ",
"- - - - - - - - - - - - - - - - - - - - - - - - $ 6 j x z 0 3 - - 6 0 z x x 2 $ - - - - - - - - - - - - - - % % @ @ @ - - - - - ",
"- - - - - - - - - - - - - - - - - - - - - - - - 1 5 g h g s 1 - - 4 s s s g 4 < - - - - - - - - - - - - $ - - @ @ * % % * * - - ",
"$ - - - - * % - - - - * - - - - - - - - - - - - 5 f 5 5 5 h 1 - - 4 f 5 5 5 f 5 - - - - - - - - - - - - * - - @ @ * @ @ @ @ - - ",
"@ - - - * @ @ $ - - - - @ - - - - % - - - - - - - - - - - < - - - - - < < < - - - - - - - - - @ - - - - $ $ % @ @ * @ @ * @ @ * ",
"@ @ - - - - @ @ @ @ - - @ * - - - - - - - - - - $ - $ $ $ $ - - - - - - - $ - - - - - - - - % @ - - - - % * @ @ @ @ @ @ @ @ @ @ ",
"@ @ - - - - - @ - @ - - - * - - - - - - - - - - - - - - - - - - - - - - - - - - - - - - - - @ @ * $ - - % * @ @ @ @ @ @ @ @ @ - ",
"$ - - - - % - - - - - - - - - - - - - - - - $ @ * - $ - $ $ - - - - - - - - - - @ @ $ - - - - @ @ @ @ - % * @ @ @ @ @ @ @ @ @ % ",
"$ - - - - - - @ % - - - % - - - - - - - - - $ $ $ $ - - - - $ - - - - - - - - - - * - - - - - * @ @ - @ @ @ @ @ @ @ @ @ @ @ @ $ ",
"- - * - - @ * @ - - $ $ - - $ $ @ @ - * - - - - @ - % - - - - - - - - - - - - - - - - - - - - - - - - @ @ @ @ @ @ * @ @ @ @ @ * ",
"- - - - - @ * * @ @ - * @ $ - - @ @ @ @ - - % - @ @ - * @ % - - - - - - - - - - - - - - - - - - % - - % @ @ @ @ @ @ @ @ @ @ @ @ ",
"- * - - - @ @ @ @ @ - * @ - - - @ @ @ @ - - * - @ % - @ @ $ - - - - - - - - $ $ - - - - - - $ - - * @ @ % @ @ @ @ @ @ @ @ @ @ @ ",
"@ @ - - - - $ @ @ @ - % % - % @ - $ @ @ - * % - * * @ % @ % % - - - $ @ % @ - - - - - $ - - @ * * @ @ - @ @ @ @ @ @ @ @ @ @ % @ ",
"@ - - - - * $ @ @ @ * - - % - $ - * - - - % @ @ @ * - @ @ @ @ - - % $ @ - * - - * @ @ @ - * % * @ @ @ - @ @ @ @ @ @ @ @ @ @ @ @ ",
"@ - @ @ @ @ @ @ @ @ @ - - % - @ @ @ @ @ @ @ @ @ @ @ @ @ @ @ @ - @ @ @ @ % % @ - @ @ @ @ @ @ @ @ @ @ @ @ @ @ @ @ @ @ @ @ @ @ @ @ "
};
