/* XPM */
static char *aua12_9qid2[] = {
/* columns rows colors chars-per-pixel */
"40 40 187 2 ",
"   c None",
".  c #020303",
"X  c #0B0606",
"o  c #0D0B09",
"O  c #130E05",
"+  c #1B1506",
"@  c #16110D",
"#  c #191511",
"$  c #1B1612",
"%  c #240908",
"&  c #261C14",
"*  c #301508",
"=  c #392906",
"-  c #282018",
";  c #3E2D21",
":  c #571611",
">  c #471D16",
",  c #751B15",
"<  c #791A15",
"1  c #791B19",
"2  c #412F06",
"3  c #453105",
"4  c #7D2513",
"5  c #7E2912",
"6  c #76231B",
"7  c #402C20",
"8  c #4A3527",
"9  c #543A26",
"0  c #463D39",
"q  c #663023",
"w  c #783E2D",
"e  c #7E2629",
"r  c #5D4106",
"t  c #644709",
"y  c #755209",
"u  c #5F4332",
"i  c #61412E",
"p  c #674433",
"a  c #694632",
"s  c #6A4833",
"d  c #724633",
"f  c #6A533D",
"g  c #7D553D",
"h  c #7B553D",
"j  c #6B3A47",
"k  c #444450",
"l  c #644D45",
"z  c #66564B",
"x  c #4F5269",
"c  c #5E5274",
"v  c #605972",
"b  c #797066",
"n  c #757570",
"m  c #7A697F",
"M  c #8C1A16",
"N  c #821916",
"B  c #931917",
"V  c #951A18",
"C  c #991D19",
"Z  c #931718",
"A  c #893C0F",
"S  c #832B15",
"D  c #872417",
"F  c #952416",
"G  c #982316",
"H  c #91221A",
"J  c #99241B",
"K  c #9A2B17",
"L  c #893311",
"P  c #9C3B12",
"I  c #A02E19",
"U  c #A03019",
"Y  c #982823",
"T  c #974C0F",
"R  c #845B06",
"E  c #865D09",
"W  c #96530C",
"Q  c #9B5A0A",
"!  c #9D550C",
"~  c #994312",
"^  c #A2550D",
"/  c #AC441B",
"(  c #A14913",
")  c #B24F1C",
"_  c #A55C19",
"`  c #8E6208",
"'  c #9F6508",
"]  c #9F6D06",
"[  c #A56A09",
"{  c #A77206",
"}  c #A87406",
"|  c #AC7609",
" . c #AE790A",
".. c #B27C0C",
"X. c #B1760E",
"o. c #AF601C",
"O. c #B86819",
"+. c #AD7E19",
"@. c #AC7B14",
"#. c #B97D14",
"$. c #B27911",
"%. c #864D37",
"&. c #9A4030",
"*. c #88553D",
"=. c #A54A37",
"-. c #906739",
";. c #AD7C29",
":. c #C17A1A",
">. c #C17020",
",. c #845A40",
"<. c #885D42",
"1. c #9E5F43",
"2. c #8C6247",
"3. c #936346",
"4. c #956648",
"5. c #9D6B4C",
"6. c #986648",
"7. c #8B6C50",
"8. c #9D7253",
"9. c #A56E4E",
"0. c #B26C4D",
"q. c #A7704F",
"w. c #AB7452",
"e. c #A67B5A",
"r. c #B07956",
"t. c #BC7A58",
"y. c #B87A56",
"u. c #857363",
"i. c #C07255",
"p. c #B7800E",
"a. c #B9830F",
"s. c #BC8512",
"d. c #BF8813",
"f. c #B88C3C",
"g. c #C38B15",
"h. c #CB8B1E",
"j. c #C6881B",
"k. c #CC931A",
"l. c #D0971C",
"z. c #D49A1E",
"x. c #D89D1F",
"c. c #C68320",
"v. c #CB8621",
"b. c #D79B20",
"n. c #D99E20",
"m. c #D59121",
"M. c #DDA223",
"N. c #BB825D",
"B. c #B5815C",
"V. c #AD8668",
"C. c #BF8C65",
"Z. c #BA8F68",
"A. c #BB8E70",
"S. c #C1815B",
"D. c #C48962",
"F. c #CC986F",
"G. c #C7946B",
"H. c #D6966A",
"J. c #C99A74",
"K. c #D49D74",
"L. c #D0A464",
"P. c #D6A378",
"I. c #DDA77A",
"U. c #E5AC7D",
"Y. c #E4A97A",
"T. c #5B658C",
"R. c #546186",
"E. c #5A6896",
"W. c #5B6D9D",
"Q. c #67749C",
"!. c #5A72A5",
"~. c #677BA7",
"^. c #AF8F8C",
"/. c #BAA383",
"(. c #8C96AB",
"). c #B0AFAF",
"_. c #B3BABC",
"`. c #A4ADB7",
"'. c #E5AF80",
"]. c #E7B182",
"[. c #EBB484",
"{. c #ECB688",
"}. c #C3BEB3",
"|. c #C6C0B4",
" X c #E2D2B1",
".X c #C5C9C1",
"XX c #F2DDC6",
/* pixels */
"                              M.M.M.s.| z.k. .                                  ",
"                              g.k.M.k.g.n.z.s...                                ",
"                        M.k... .s.M.M.M.M.n.M.p.}                               ",
"                      | M.n.l.k.l.M.M.n.s.g.M.a.[ 5                             ",
"                    ....l.n.M.M.M.M.n.l.s.s.l.X.! 4 ,                           ",
"                  { g.n. .s.M.M.M.M.d. .l.k...P H < , , Q a.M.s.{               ",
"                  { g.M.k.l.M.M.M.M.l.k.M.v.( G V M L W #.k.M.l.g...            ",
"                  | g.M.M.M.M.M.M.M.M.M.n.>.G B V G ^ ..l.M.M.M.l...            ",
"              } ..k.n.M.M.M.M.M.M.M.M.b.) K N < S Q s.l.M.M.M.g...              ",
"              } p.M.l.k.M.M.M.M.M.k.:.O.I M , L T #.k.M.k.g.k.` t               ",
"              } p.M.g. .n.M.M.M.z. .~ C V M < W  .l.M.M.p.} | 3 .               ",
"                k.a.g.k.a.O./ / / P G Z N S W s.k.M.k.a...R =                   ",
"                k.' #.h.[ ( C V V B J U S ~ | k.z.z.$.` ` r X                   ",
"                H 5 S S F G V V B < o.m.v.k.z.s. ...t + + O .                   ",
"              V B < , < B B M P ( _ h.M.g.g.g.y t f.-.9 @ .                     ",
"              ^ K H S 4 G H S Q ..z.M.z...| @.= - G.G.9.& .                     ",
"              { X.h.v.c.c.j.j.k.k.p.p.a.} f. X0 $ J.'.I.                        ",
"              g.d.g.z.M.M.z.k.k.g.| R y ;.L.XXu.f P.U.Y.                        ",
"            M.M.k. .g.M.M.k.| } } } 3 @ Z.[.{.].].[.Y.H.                        ",
"            s.s.d.k.x.M.g.p.[ r 2 2 9 h P.[.[.[.[.[.C.4.                        ",
"            } }  .+.+.+.E R y * X & g D.U.].U.U.U.I.e.s                         ",
"                  + + + O O O . # <.G.].[.U.H.H.H.B.                            ",
"                    . . . . . % > *.B.F.F.C.w.t.S.                              ",
"                    . . . . X : 6 a 3.w.r.5.d 6.                                ",
"                        . % : q d 6.,.*.F.I.                                    ",
"                        . * , %.2.w.%.w t.i.                                    ",
"                            6 0.D.w.&.B J H 1                                   ",
"                        w.*.w q.y.=.Y B B B M ! }                               ",
"                        y.5.g 4.1.H V V V V V T '                               ",
"                    w.w.I.K.S.,.d < M V V V V D 4                               ",
"                    w.r.'.].K.<.p j e M M M V L A                               ",
"                    q.w.U.'.P.2.l T.j 1 1 D Y _ [                               ",
"                    h g B.8.z v T.!.T.v c m ^./.                                ",
"                    8 9 4.h 0 x R.!.!.W.~.(.                                    ",
"                    o @ a s u 0 k E.!.~.`._.                                    ",
"                        & ; i     E.W.~._..X.Xn z N.5.a                         ",
"                        . & i     E.E.Q.).}.|.b l w.4.a                         ",
"                                        V.A.K.J.V.8                             ",
"                                          9.4.e.7.-                             ",
"                                          7 @ # #                               "
};
