/* XPM */
static char *ahm2t_3xohj[] = {
/* columns rows colors chars-per-pixel */
"40 40 204 2 ",
"   c None",
".  c #020203",
"X  c #0B0A05",
"o  c #0D0C0A",
"O  c #0A0705",
"+  c #110D0B",
"@  c #191408",
"#  c #171311",
"$  c #0C0F12",
"%  c #201908",
"&  c #261A0A",
"*  c #39110C",
"=  c #231914",
"-  c #201B19",
";  c #2E230A",
":  c #2E2104",
">  c #3C2D09",
",  c #382806",
"<  c #28201B",
"1  c #33261C",
"2  c #262526",
"3  c #46150D",
"4  c #4F140F",
"5  c #771D15",
"6  c #781915",
"7  c #6B1612",
"8  c #533B06",
"9  c #4D2C0C",
"0  c #7D2415",
"q  c #7A201A",
"w  c #75241B",
"e  c #722F17",
"r  c #483627",
"t  c #563F2E",
"y  c #77282C",
"u  c #673426",
"i  c #6E2F25",
"p  c #5E440C",
"a  c #7C5506",
"s  c #674D13",
"d  c #7F6015",
"f  c #5D4634",
"g  c #664531",
"h  c #6A4732",
"j  c #6A4834",
"k  c #624B38",
"l  c #634935",
"z  c #734A34",
"x  c #74503A",
"c  c #7D553C",
"v  c #7A5B39",
"b  c #6C3948",
"n  c #4F5050",
"m  c #555451",
"M  c #7C5D45",
"N  c #725B46",
"B  c #685344",
"V  c #7C6148",
"C  c #6B655C",
"Z  c #831A15",
"A  c #8C1916",
"S  c #8F1D19",
"D  c #951916",
"F  c #961A18",
"G  c #981D17",
"H  c #862216",
"J  c #83281A",
"K  c #992B15",
"L  c #9A2319",
"P  c #962017",
"I  c #9A3014",
"U  c #A93F1C",
"Y  c #A13C16",
"T  c #832A27",
"R  c #8A3728",
"E  c #8B2930",
"W  c #913231",
"Q  c #845D09",
"!  c #9A5518",
"~  c #894917",
"^  c #A9491A",
"/  c #A85916",
"(  c #9C6608",
")  c #8B6817",
"_  c #8F6712",
"`  c #A36C07",
"'  c #A66908",
"]  c #A77306",
"[  c #A97507",
"{  c #AB7609",
"}  c #AD7809",
"|  c #B27C0C",
" . c #B86B1D",
".. c #A87A17",
"X. c #B37212",
"o. c #B97519",
"O. c #934C37",
"+. c #82583F",
"@. c #894735",
"#. c #B67837",
"$. c #C16C1F",
"%. c #C3731D",
"&. c #8B5E43",
"*. c #855C49",
"=. c #9E5A40",
"-. c #8D6145",
";. c #89694E",
":. c #9C6B4C",
">. c #926649",
",. c #896C56",
"<. c #9A7455",
"1. c #986F51",
"2. c #A26E4E",
"3. c #A16246",
"4. c #B0704F",
"5. c #AB7552",
"6. c #A37B5A",
"7. c #A77553",
"8. c #B37A56",
"9. c #B87A57",
"0. c #A4704F",
"q. c #C57F5B",
"w. c #B8820F",
"e. c #BC8511",
"r. c #BB8717",
"t. c #B78536",
"y. c #C28B14",
"u. c #C9881B",
"i. c #C99117",
"p. c #CB931A",
"a. c #D0971C",
"s. c #D49A1E",
"d. c #C88924",
"f. c #D18A21",
"g. c #CA9520",
"h. c #C7952C",
"j. c #D99A22",
"k. c #D69821",
"l. c #DDA222",
"z. c #B28456",
"x. c #AB8363",
"c. c #B38A65",
"v. c #BB8967",
"b. c #BA916E",
"n. c #C3845D",
"m. c #C8825C",
"M. c #C9A557",
"N. c #C48A63",
"B. c #CD8B62",
"V. c #D18F66",
"C. c #C9966D",
"Z. c #D49167",
"A. c #D3956C",
"S. c #CA9A73",
"D. c #CC9571",
"F. c #D39C72",
"G. c #DD9F72",
"H. c #D59F7A",
"J. c #D3A075",
"K. c #DCA67B",
"L. c #DDA77A",
"P. c #E2AA7C",
"I. c #E2A577",
"U. c #605F84",
"Y. c #5B6997",
"T. c #5D6B99",
"R. c #636A98",
"E. c #69779B",
"W. c #6A7095",
"Q. c #5A6FA1",
"!. c #5973A9",
"~. c #5C73A6",
"^. c #5978B1",
"/. c #6276A5",
"(. c #617EB2",
"). c #6380B4",
"_. c #8B8E91",
"`. c #A8978E",
"'. c #A1A39D",
"]. c #A9ABA9",
"[. c #B6ACA2",
"{. c #AAB2BB",
"}. c #D5AA89",
"|. c #E6AF81",
" X c #E7B182",
".X c #EAB484",
"XX c #EDB788",
"oX c #F1B988",
"OX c #E9B991",
"+X c #BEC2BD",
"@X c #DAC5B4",
"#X c #B1BAC2",
"$X c #BDC5D0",
"%X c #BDC5CF",
"&X c #C3C4C3",
"*X c #CED0CF",
"=X c #D0D2CD",
"-X c #E3D3C5",
";X c #E8D6C7",
":X c #F1E4DA",
">X c #CCD3E0",
",X c #D5DEED",
"<X c #DAE1F0",
"1X c #EDE7E2",
/* pixels */
"                              ] | l.e.} s.l.l.w.]                               ",
"                              e.y.l.p.y.j.l.l.y.e.                              ",
"                            | p.s.k.k.k.j.j.j.j.s.|                             ",
"                        ] w.p.y.X.^ U U U U U f.l.s.y.]                         ",
"                        ( X.u.X./ K K K K K K  .f.f.o.(                         ",
"                        5 H L P K ' ` ` ` ` ' Y L L H 0                         ",
"                  ] ] [  .~ 4 ! %.i.i.i.p...8 ! $.$.e * a ] ]                   ",
"                  } { { p.d @ ) g.g.p.g.g.) X ) g.p.s O a ] {                   ",
"              ] | a.e.( , @ . % ; ; ; ; ; % . % ; ; @ O a w.a.d.z.              ",
"              e.y.p._ 8 O . . . . . . . . . . . . . . . 9 Q y.y.h.M.            ",
"            { p.p.| 8 O . . . . . . . . . . . . . . . . . , ` p.s.r.            ",
"            { p...> @ . . . . . = <.r . . . . . . . . . . , ` p.l.s.            ",
"            { a...& X . . . . . 1 L.k . = < < + . . . . . : Q r.l.l.            ",
"              l.p.( 9 . . . . . 1 L.k # 6.S.C.r . . . . . O @ _ l.              ",
"                s.i.p . . . + n C N M ;.K.S.V C m # . O f t O > s               ",
"                  k.s o o o - _.'.$ ;.XXoXx.# _.].< X # c.<.o . O               ",
"                  , v c.c.c.b.;X&X$ ;.oXoX6.+ ].*X2 f c..X6.o                   ",
"                  . M .XJ.L.XX;X@Xf x.oXoXb.k `.[.B 1.D.x.M o                   ",
"                        5.N. XXXXX X.X.X.X.X|.>.M J.C.0.1 O                     ",
"                      h c :.N.F.I..XP.G.G.I..Xv.8.N.0.+.j x ,.                  ",
"                    z h c +.&.4.q.A.V.B.B.B.A.m.9.&.c c 2.2.*.                  ",
"                  5.+.j n.*.= 7 J T =.8.8.3.R J w = t 2.n.B.N.-.g               ",
"                5.5.2.:.J.2.3 7 Z Z R O.O.R Z Z 6 3 u -.n.Z.Z.>.g               ",
"              5.5.5.n.V.P.9.q A F F Z 5 0 H F F A 5 i z 8.B.B.>.h               ",
"            8.F.F.B.n.8.-.@.S F F F Z 0 o. .L F F D Z w z c c `.                ",
"            :.F..XG.9.>.r u D F F F Z 0  ./ L F F F Z q *.g g                   ",
"            x N. X X6.g + * A F F F Z 5 J H F F F F Z 5                         ",
"              1.6.6.1.    4 Z F F F Z 0 / ^ G F F A Z                           ",
"              j j j       b y E E E y y t.#.W E E y b                           ",
"                        Y.Y.Y.R.R.R.U.U.E.E.R.R.R.Y.Y.Y.                        ",
"                        Y.Q.^.^.^.^.!.Q.!.!.^.^.^.^.Q.Y.                        ",
"                        T./.(.(.).).(.(.T.Q.(.(.).)./.R.                        ",
"                          $X#X>X<X<X%X{.E.E.{.>X,X,X$X{.1X                      ",
"                            =X&X&X&X&X+XE._.[.-X:X1X-X@X:X                      ",
"                              n 2 2         x.D.|.OX}.J.                        ",
"                                            n.G.P..XD.9.                        ",
"                                            V.D.J.P.S.v.                        ",
"                                            9.f r 5.}.-X                        ",
"                                            x = + l                             ",
"                                            + O O +                             "
};
