/* XPM */
static char *ao33l_bjkhl[] = {
/* columns rows colors chars-per-pixel */
"40 40 181 2 ",
"   c None",
".  c #040403",
"X  c #0A0807",
"o  c #1D0808",
"O  c #100D0A",
"+  c #071117",
"@  c #250909",
"#  c #340C0B",
"$  c #23140E",
"%  c #3C100B",
"&  c #392A0B",
"*  c #3A281D",
"=  c #2F2308",
"-  c #292727",
";  c #2D3133",
":  c #3C3C39",
">  c #332E2D",
",  c #410F0D",
"<  c #57120E",
"1  c #4B1813",
"2  c #581510",
"3  c #551D17",
"4  c #661712",
"5  c #7C1715",
"6  c #751A14",
"7  c #7D1915",
"8  c #741414",
"9  c #593E18",
"0  c #792319",
"q  c #642B1E",
"w  c #412C20",
"e  c #4A3323",
"r  c #593929",
"t  c #772829",
"y  c #693828",
"u  c #5A4310",
"i  c #6E4C06",
"p  c #714F07",
"a  c #6E5112",
"s  c #5E402E",
"d  c #5D493D",
"f  c #7A5326",
"g  c #664531",
"h  c #6B4733",
"j  c #6B4934",
"k  c #754B33",
"l  c #6F513E",
"z  c #755039",
"x  c #7D553C",
"c  c #6C3A48",
"v  c #5A4C41",
"b  c #614F42",
"n  c #737B7F",
"m  c #841915",
"M  c #8C1916",
"N  c #8E1E1A",
"B  c #951A17",
"V  c #961A18",
"C  c #981E19",
"Z  c #892116",
"A  c #852914",
"S  c #9A2318",
"D  c #853214",
"F  c #8A3315",
"G  c #8A3A12",
"H  c #993019",
"J  c #893C0F",
"K  c #8B282F",
"L  c #87292F",
"P  c #8C2930",
"I  c #8B410F",
"U  c #9D500C",
"Y  c #974615",
"T  c #A04F0E",
"R  c #A1560D",
"E  c #A24F1A",
"W  c #A75B1A",
"Q  c #AF511C",
"!  c #9F6E07",
"~  c #9A6C1B",
"^  c #8E6714",
"/  c #A46C08",
"(  c #A77306",
")  c #A97507",
"_  c #AB740A",
"`  c #AA760A",
"'  c #B37D0D",
"]  c #A66214",
"[  c #BF6A1E",
"{  c #B76917",
"}  c #B77B17",
"|  c #80553C",
" . c #84593F",
".. c #864433",
"X. c #C06D1E",
"o. c #C67A1F",
"O. c #855D44",
"+. c #8E6144",
"@. c #916245",
"#. c #9E6C4D",
"$. c #866C5C",
"%. c #986F51",
"&. c #9D7354",
"*. c #A26E4E",
"=. c #AC7552",
"-. c #A47958",
";. c #BA7B58",
":. c #B37B57",
">. c #AD7E61",
",. c #B7810F",
"<. c #B9820E",
"1. c #BB8512",
"2. c #BF8815",
"3. c #B18029",
"4. c #C38B15",
"5. c #C58819",
"6. c #CB921A",
"7. c #CA9117",
"8. c #D0971C",
"9. c #D49A1E",
"0. c #CD8E21",
"q. c #C28E26",
"w. c #D28E21",
"e. c #CA9524",
"r. c #D39221",
"t. c #D99F21",
"y. c #D59C21",
"u. c #DFA423",
"i. c #DDA223",
"p. c #E0A524",
"a. c #BF825C",
"s. c #B7886A",
"d. c #C3845E",
"f. c #C6955E",
"g. c #C7A150",
"h. c #CD8B62",
"j. c #C08F69",
"k. c #C0916E",
"l. c #D59166",
"z. c #D2996E",
"x. c #CF9C73",
"c. c #D29A73",
"v. c #DC9E72",
"b. c #CEA077",
"n. c #D7A277",
"m. c #E4AB7C",
"M. c #5F5E85",
"N. c #5C6997",
"B. c #5B6B9A",
"V. c #61628C",
"C. c #636896",
"Z. c #636A99",
"A. c #6B789F",
"S. c #5A6EA0",
"D. c #5B71A3",
"F. c #5A74AA",
"G. c #5F7AAE",
"H. c #5A79B1",
"J. c #717FA2",
"K. c #627EB3",
"L. c #6176A6",
"P. c #6380B5",
"I. c #8C8A91",
"U. c #A2AEB9",
"Y. c #B4B5B3",
"T. c #E3AC81",
"R. c #EBB78A",
"E. c #CABCAC",
"W. c #E7CDAB",
"Q. c #AFB8C2",
"!. c #BDC6D1",
"~. c #C2C3C2",
"^. c #DDCCC1",
"/. c #C9D2DF",
"(. c #E3D5C8",
"). c #F6E6DB",
"_. c #D5DEEC",
"`. c #CCD4E1",
"'. c #D9E1EF",
"]. c #DAE2F0",
"[. c #F9ECE0",
/* pixels */
"                              ( ' t.1.' 9.i.i.1.(                               ",
"                              1.4.i.7.4.t.i.i.7.1.                              ",
"                            ' 6.i.i.i.t.i.i.i.i.9.'                             ",
"                        ( ,.7.1.1.i.i.i.i.i.i.u.i.8.1.)                         ",
"                        ' 4.t.1.,.8.t.u.i.i.i.i.i.i.4.)                         ",
"                        u.u.u.u.8.` 7.p.i.i.i.i.i.p.4.)                         ",
"                  p.W 0 Y ] 4.9.t.7.9.u.i.i.i.i.t.4.] I 6 G /                   ",
"                  p.W 6 8 D / 6.i.p.u.i.i.i.t.t.6._ J 6 6 G _                   ",
"              ( ,.u.W 6 M Z F 5.i.i.i.u.i.y.1.' _ G Z M 5 Y 6.q.f.W.            ",
"              1.7.u.} E C B N Q [ [ [ X.[ { T T Y Z M V F ] t.6.e.g.            ",
"            ` 6.i.i.i.r.S V V V C C C C C C V V V V V S R 1.i.u.8.1.            ",
"            ` 6.i.u.7.1.o.{ R A m B M 7 7 7 7 5 Z U { o.7.8.i.i.i.8.            ",
"            ` 8.i.u.4.' i.6.' Y F H H D D D D D G _ 7.i.u.i.9.i.i.i.            ",
"              i.i.i.t.9.i.i.t.r.0.w.w.0.0.w.0.0.r.9.i.i.i.6.' 7.i.              ",
"                i.p.6.4.4.7.i.u.i.i.u.u.u.u.u.u.u.i.8.4.4.4.4.^ a               ",
"                  y.1.( ` 1.t.i.i.i.i.i.i.i.i.i.i.t.2.( ! ' e.u .               ",
"                  & 9 f 6.7.<.,.,.,.,.,.,.,.,.,.,.,.~ f & = &                   ",
"                  . * k 3.~ p i i i i i i i i i i i 9 w O . .                   ",
"                        j w X . . . . . . . . . . . . . . .                     ",
"                      $.g g g 3 % . @ , X . . # 1 y r w r l $.                  ",
"                    z j x x | t 4 o < 6 # o o 2 0 | x z *.*.O.                  ",
"                  =.| j d.O.$ 2 6 4 m B m 6 4 6 4 $ s *.d.h.h.+.g               ",
"                =.=.*.*.v.*.1 8 M m M V V B m m 6 , r +.d.l.l.@.g               ",
"              =.=.=.a.l.m.;.0 M V V V V V V V V B 6 y h :.h.h.@.g               ",
"            =.z.n.h.d.:.O...B V V V V V V V V V V B 7 0 k x x                   ",
"            #.c.m.v.:.@.e q B V V V V V V V V V V V m 6 y g g                   ",
"            z j.T.T.-.g O % M V V V V V V V V V V V m 6                         ",
"              &.-.-.%.    < m B B B M M B B B B B M m                           ",
"              j j j       c t L P P t t L K K P P t c                           ",
"                        B.N.N.Z.Z.Z.V.M.C.C.C.Z.Z.B.B.B.                        ",
"                        N.S.H.H.H.H.F.D.F.F.H.H.H.H.D.B.                        ",
"                        N.D.K.K.K.K.K.G.B.D.H.K.P.K.L.Z.                        ",
"                            Q.`.'.].!.U.A.J.U./._._.!.U.                        ",
"                              ~.~.~.~.Y.A.I.Y.(.).[.(.E.                        ",
"                              : - -         >.c.T.R.T.c.                        ",
"                                            d.v.m.R.z.;.                        ",
"                                            d.x.n.b.k.s.                        ",
"                                            d b v : I.^.                        ",
"                                            - > - + n                           ",
"                                            X - > X ;                           "
};
