/* XPM */
static char *ad7yy_8uvtc[] = {
/* columns rows colors chars-per-pixel */
"40 40 138 2 ",
"   c #0D0D0C",
".  c #100F0C",
"X  c #0F100D",
"o  c #12120E",
"O  c #151412",
"+  c #181713",
"@  c #171814",
"#  c #1A1915",
"$  c #1D1D1A",
"%  c #201F1C",
"&  c #1F201C",
"*  c #212117",
"=  c #22221D",
"-  c #28261F",
";  c #252522",
":  c #282724",
">  c #272823",
",  c #2A2B25",
"<  c #272728",
"1  c #2C2D2A",
"2  c #302F2C",
"3  c #2F3127",
"4  c #2F302C",
"5  c #32322D",
"6  c #353532",
"7  c #383734",
"8  c #363834",
"9  c #3A3B35",
"0  c #373938",
"q  c #3C3D3A",
"w  c #3E4037",
"e  c #3F413B",
"r  c #414237",
"t  c #42433D",
"y  c #46493E",
"u  c #48493F",
"i  c #3E4241",
"p  c #444542",
"a  c #464843",
"s  c #4A4B44",
"d  c #474B49",
"f  c #4C4D4A",
"g  c #504F4C",
"h  c #4D5046",
"j  c #4E514B",
"k  c #505346",
"l  c #52554E",
"z  c #53544F",
"x  c #53544E",
"c  c #53564E",
"v  c #52544D",
"b  c #54564C",
"n  c #56574D",
"m  c #54544F",
"M  c #55564F",
"N  c #54574F",
"B  c #51534C",
"V  c #55584D",
"C  c #56594E",
"Z  c #57594F",
"A  c #575A4F",
"S  c #54584D",
"D  c #4F5352",
"F  c #525550",
"G  c #535751",
"H  c #555550",
"J  c #555650",
"K  c #555651",
"L  c #545751",
"P  c #555752",
"I  c #505250",
"U  c #585753",
"Y  c #575951",
"T  c #555854",
"R  c #555851",
"E  c #5A5950",
"W  c #595B50",
"Q  c #585A51",
"!  c #585A53",
"~  c #585A52",
"^  c #5B5B52",
"/  c #5A5C53",
"(  c #595B54",
")  c #5A5B55",
"_  c #5A5B56",
"`  c #595C54",
"'  c #5B5D56",
"]  c #5D5E54",
"[  c #5D5E55",
"{  c #5B5E55",
"}  c #5B5F5A",
"|  c #5D5E58",
" . c #5D5F58",
".. c #5D5F59",
"X. c #5E5F59",
"o. c #5B5E59",
"O. c #5E6058",
"+. c #5F6258",
"@. c #5F615A",
"#. c #5F615B",
"$. c #5F625C",
"%. c #5E625B",
"&. c #616256",
"*. c #606358",
"=. c #60625B",
"-. c #64635A",
";. c #626458",
":. c #63645B",
">. c #60615C",
",. c #60635E",
"<. c #63655D",
"1. c #61665F",
"2. c #63665E",
"3. c #65675C",
"4. c #66675E",
"5. c #60645E",
"6. c #67695D",
"7. c #62685D",
"8. c #68685D",
"9. c #6B6D5D",
"0. c #656760",
"q. c #646761",
"w. c #636761",
"e. c #666A63",
"r. c #666D63",
"t. c #696E62",
"y. c #686F63",
"u. c #6C6C60",
"i. c #686B64",
"p. c #686C64",
"a. c #6A6D64",
"s. c #6A6D65",
"d. c #6A6E65",
"f. c #6E7060",
"g. c #6B7268",
"h. c #6C7069",
"j. c #6C756A",
"k. c #747870",
/* pixels */
"q 7 5 t B 8.u.f b ;.6.*.*.W &.f.9.B t.g.v s 4.-.v B b ` ;.B 7 5 9 p p s p 6 : 1 ",
"H g p 5 a ^ ^ 7 5 7 w t a s 9 5 r u k V w B [ [ ) H H B s B p 5 R d.i.5.^ t s b ",
"@.U B 6 1 5 7 s q 1 9 a a w 5 : B v t 9 5 a B B H f p q 9 t 9 t #.h.k.d.@.j | | ",
"| B f 6 p f ) d.5.v / V 4.^ 7 5 B b h 5 ; 1 6 q t t 5 1 2 : ; f ) q.i.H B f ,.*.",
"B d p 1 7 f | 4.H ` ^ b 6.t.V 5 1 t 9 1 4 : = ; ; ; = % ; ; = a f v F s I B s @.",
"s p 7 $ ; 1 t a j H v h V b a 5 1 w t 9 : ; ; 5 6 5 1 % % 1 1 6 p a t p B s q f ",
"7 6 : : $ ; ; : 1 1 5 1 5 1 > = > 5 5 9 R O.5.e.,.f p q 7 f T p 5 6 q t p 7 1 6 ",
"6 2 ; q 4 : 4 6 1 : 9 6 a h t t a v a t 5.e.@.w.w.} f p d I f d p ; 5 1 : ; ; : ",
": : 7 q 6 ; = ; $ $ 5 [ 5.@.} $.y.j.r.w a [ ) R } 5.#.p a j a q 6 % # $ 1 5 1 : ",
"2 e s B v s 6 = # 5 6 q a f R V / 7.@.5 , t f s p p p 1 : 1 : : ; ; ; 7 q 0 6 1 ",
"q p e t t a t 4 @ = : : 5 7 t y s B w - 2 1 : 1 : , ; ; < : $ : 1 ; 4 i 0 1 : = ",
"1 5 5 1 4 5 4 > $ ; ; = $ = > 5 5 5 9 1 5 5 = ; : ; 2 1 q 6 4 6 1 ; 0 0 4 : = ; ",
"p t 6 : 1 1 1 1 = 6 t w t 9 5 1 5 > 9 B y t t p e 1 6 1 1 : : < ; 1 1 > 6 a w p ",
"t 7 q 0 q e e i 1 t s u h w 5 4 > 9 s B s s f d f a < < : $ ; : ; = ; 7 p a f s ",
"t q p e p s s a 4 6 9 w y 9 5 , $ 9 s r 7 p d p q 6 < p p 6 < ; ; ; 5 p s f h s ",
"6 6 p t t p s 0 ; = ; : 5 4 , = # = 4 q q 6 t p q : 0 D f 0 6 1 = = : 5 q w q 7 ",
"% ; 7 7 5 ; : $ = - - # $ + & , * - * , 1 1 1 7 1 1 q d j a 6 1 = # $ # $ $ : 1 ",
"; : 5 6 1 = , = 1 9 1 , 3 5 1 - $ $ $ = ; = = : ; 1 7 p q 6 : $ = O $ $ = $ % ; ",
"q 7 5 t 6 ; $ 6 p t a s w w 9 : $ * = : 1 1 ; = : # $ ; : ; # # @ @ = : 6 q 5 6 ",
"7 t 9 t 9 : $ 7 p v R h a t 5 ; , t 9 7 6 5 : 5 7 : % : 1 1 $ # # $ 1 5 e p e 7 ",
"5 5 5 5 1 = + % ; 5 9 t 6 ; $ 1 w t s t 3 = 5 1 6 5 $ ; 1 1 $ @ @ : 5 4 7 t t 5 ",
"- $ % = $ # % O O O + = $ + $ 1 , 5 9 , * $ > - 1 4 # @ $ & # @ O % ; = = = = = ",
": : 7 w 6 $ # # # # @ O = ; ; > ; = = - $ = ; ; > 1 * $ 5 7 6 q q : # = > $ - $ ",
"e a t e 7 = $ $ ; $ $ ; 5 6 6 9 5 5 6 > $ ; 1 5 1 4 - : 6 6 7 7 7 : # = = & 6 7 ",
"t a 9 5 5 = O # $ # = ; ; : : ; ; : : $ ; - $ 1 6 6 ; = 1 5 5 1 : % # - ; = 6 9 ",
"9 9 5 : * # O O & $ $ * ; ; # & = $ # $ 5 9 5 * = ; $ # = = = = $ O O $ = = : 5 ",
"- - = $ # @ $ = $ $ > , 9 0 1 4 : = = $ > 5 9 7 6 $ # # O # # # + # # # # O = ; ",
"# O % O # ; 1 4 ; $ : 5 e e 0 4 1 ; : $ $ ; 1 5 5 % # $ % # # # # # $ # # O + $ ",
"5 ; # o = > - ; = $ - 4 5 1 5 4 5 5 : # # $ # = $ + # $ $ # : 1 : $ = % : 1 1 5 ",
"4 : # X # * # O # $ O $ $ $ * $ * ; $ 1 5 : ; 1 1 $ O O O # , 1 1 q 0 ; : 4 5 6 ",
"= = @ O $ : - $ ; $ + O + # o o o $ 5 : > ; : 4 1 ; $ # O 1 6 6 5 6 1 & : 5 5 1 ",
"$ $ O O # $ = $ $ $ # * , ; = ; ; ; : ; ; : : 1 , 1 : - # 5 5 1 1 > 1 ; , 5 1 = ",
"# # o O $ $ = = = $ # ; 6 5 1 1 > $ $ = ; : ; = : 5 : # O = ; = = - * # = ; = $ ",
"O o     # = $ = = * # # , 3 - - * $ @ # $ = $ $ ; ; # @ O + $ $ # * $ + # + O O ",
"o   o O $ - - > , ; = $ # $ * # + O O O O O O O @ O     o o o O o * = # o o o   ",
"  . # O O $ = = ; = $ = + X + $ # # O O + + # O o   O O O X o     o o       O O ",
"    O O O + * # O * = = $ O O * - $ # O $ # # O   O # # @ O o o o           O O ",
"# O   O + o + + O # = $ # @ O o O O o O + O o O O O # # O O O O o O # + o o O O ",
"O O o         o o o o o o o O o o o o o O O o $ #     o O o O O   @ $ # + # O O ",
"o X         O O O O O o X o + + + o o o o o   O O     X # O       o O + + O O o "
};
