/* XPM */
static char *atrgt_fn6it[] = {
/* columns rows colors chars-per-pixel */
"40 40 125 2 ",
"   c #0F0F0D",
".  c #12120E",
"X  c #151512",
"o  c #181714",
"O  c #171814",
"+  c #1A1916",
"@  c #1E1D19",
"#  c #201F1B",
"$  c #22221D",
"%  c #262521",
"&  c #282723",
"*  c #272824",
"=  c #292925",
"-  c #2D2D2A",
";  c #2F302C",
":  c #31322E",
">  c #353531",
",  c #383734",
"<  c #373834",
"1  c #3A3A36",
"2  c #3D3D39",
"3  c #3F403B",
"4  c #41423D",
"5  c #454641",
"6  c #474843",
"7  c #494B45",
"8  c #4B4C49",
"9  c #4A4C48",
"0  c #4C4D48",
"q  c #4D4E48",
"w  c #4D4F48",
"e  c #4D4E49",
"r  c #4D4F49",
"t  c #4E4F48",
"y  c #4E4F49",
"u  c #4D4F4A",
"i  c #4E4F4A",
"p  c #4E5049",
"a  c #4F5049",
"s  c #4F5149",
"d  c #4E504A",
"f  c #4F514A",
"g  c #4F504B",
"h  c #4F504A",
"j  c #50514A",
"k  c #50514B",
"l  c #50524A",
"z  c #51534A",
"x  c #51524B",
"c  c #51534B",
"v  c #50514C",
"b  c #50524C",
"n  c #51524C",
"m  c #51534D",
"M  c #52534D",
"N  c #52534E",
"B  c #52544C",
"V  c #53544C",
"C  c #53544D",
"Z  c #53554D",
"A  c #52544E",
"S  c #53544E",
"D  c #53554E",
"F  c #53554F",
"G  c #55574E",
"H  c #55564F",
"J  c #56574F",
"K  c #56584F",
"L  c #555750",
"P  c #555651",
"I  c #565850",
"U  c #575951",
"Y  c #575852",
"T  c #575952",
"R  c #585A50",
"E  c #585852",
"W  c #585952",
"Q  c #585953",
"!  c #595A52",
"~  c #595A53",
"^  c #5A5B52",
"/  c #5B5C53",
"(  c #585A54",
")  c #595A54",
"_  c #585B54",
"`  c #595B54",
"'  c #595B55",
"]  c #5A5B54",
"[  c #5B5D54",
"{  c #5A5C55",
"}  c #5A5C56",
"|  c #5A5D56",
" . c #5B5D56",
".. c #5B5D57",
"X. c #5C5D54",
"o. c #5C5E55",
"O. c #5C5D57",
"+. c #5C5E57",
"@. c #5E5F56",
"#. c #5B5E58",
"$. c #5C5F59",
"%. c #5D6057",
"&. c #5E6056",
"*. c #5F6158",
"=. c #5F6159",
"-. c #5E615A",
";. c #606155",
":. c #616158",
">. c #616258",
",. c #626458",
"<. c #63645A",
"1. c #62665B",
"2. c #64645A",
"3. c #60645C",
"4. c #61655C",
"5. c #61655E",
"6. c #62655E",
"7. c #62665F",
"8. c #63665F",
"9. c #64685E",
"0. c #636760",
"q. c #656961",
"w. c #666C61",
"e. c #6B6F67",
"r. c #6E726B",
/* pixels */
"3 1 , 3 x 2.2.q q W &.O./ W / ,.&.J <.9.A a >.>.J A J W { x 2 > 2 7 8 q 5 1 : : ",
"n q 4 1 5 A A 4 1 2 4 6 7 7 4 2 5 7 x x 5 q { { Y J A a q 0 4 1 n 6.0.*.L 5 6 0 ",
"O.Y 0 1 , 2 4 7 4 , 2 5 7 4 > : 7 x 5 2 , 4 q x n q 5 2 1 2 1 5 { e.r.q.{ n ] O.",
"] A 7 1 2 7 L 3.{ x A K O.J 2 , 6 a 5 : - ; , 2 2 2 : - - - - 6 ] 6.6.] A n { *.",
"n 7 4 : , 7 W *.] W W W <.<.q , , 4 2 : - = & = - = & $ & & = 3 q A n q x a a W ",
"5 4 , & & : 3 5 7 q q 7 x a 4 : - 1 2 , : : : , < : - & & - > 1 4 5 5 6 q 6 4 7 ",
"1 , - = $ & - - : > , , < , : = - , , 2 q L ] $.] q 4 1 1 6 8 5 1 , 1 3 2 , : , ",
": - - , - = = - = = > 1 5 7 4 4 6 a 6 5 ] 6.6.6.0.#.a 5 6 a q 6 2 - - - - = = = ",
"= - , 2 1 - = & $ & , q W { ] { 6.w.&.4 6 Y W Y { #.L 5 4 6 4 2 : & @ & - : - = ",
": 1 5 7 7 4 , & @ = > 2 6 q A Y O.<.Y < : 4 7 5 5 5 3 : - : - = = & * : 1 , : - ",
"1 2 3 4 4 4 1 = @ $ = = ; , 4 5 7 0 4 - - - - - - - = = = = & = = = : 2 < - = & ",
", , , : : : : = $ & = & & = - : , , , : > : = = = = - - , : - ; = = , , : - = = ",
"3 2 , - - : : - = , 2 2 1 , ; - - - 2 7 5 4 2 4 2 > : - - = = = = = - - , 2 2 3 ",
"4 1 1 1 1 2 2 2 : 1 5 4 6 2 : - - , 5 0 6 6 7 7 6 2 - - = & & * & & = , 4 7 7 7 ",
"3 2 4 4 5 6 7 4 : : 1 2 4 1 : = $ , 4 4 2 4 7 5 2 , : 2 2 > = = & & : 2 5 7 7 6 ",
", , 3 4 3 4 4 , = & = = - - = & @ & : 1 1 1 2 4 1 - 1 8 7 2 : - & $ = : 1 1 2 1 ",
"& = , 1 : - = & $ & & $ $ $ $ & $ $ $ = - - : , - - 1 7 8 4 , = $ @ @ @ $ % = - ",
"= - : , - & & & - , : - - - - & @ @ @ $ & & & = = = , 2 2 , = $ @ + @ @ $ % & = ",
"< , , 2 : & & : 4 5 5 4 2 2 , = $ $ & = - = & & = $ $ = = * @ + + + $ = : , : : ",
"1 1 1 2 , * $ : 4 7 a 7 4 2 : = - 1 1 , : - - - : & $ & - = @ + + @ = : 1 4 2 , ",
": : - : = $ @ $ = : 1 2 , = & - < 4 4 1 - & - - : - $ & = = @ O + & - - , 2 1 : ",
"& $ & = $ @ @ + O + @ $ $ @ $ = - : , - $ $ & = - - @ @ $ & $ @ @ $ & & & & & & ",
"= - , , ; $ + + + + + + $ & & = = = = & # $ & = = = $ $ - : : , > & @ $ & $ & & ",
"2 4 4 2 , & @ @ $ @ @ & - ; : : - - - & $ $ = - - - & = : , , , , & @ $ $ $ : > ",
"4 4 1 : - $ + + @ @ # & = = = = = = & $ & & & - : ; & & - - - - = # + $ & & : , ",
"1 , : = $ + X + @ @ # $ = & $ $ $ $ @ $ - : - & = & @ @ $ $ & $ @ O O @ $ $ = - ",
"& & $ @ + + @ $ @ @ & - , , - = * $ # # & : , : - $ + + + + + + + + + + + + $ & ",
"@ @ @ o + % = - & @ = : 1 2 , : - = & @ @ & - : - $ + @ @ + @ @ @ + @ + + + @ $ ",
"- & + X @ & & & $ @ & - ; - ; - - - & @ @ @ $ & $ + + @ @ @ & = & % & $ & = = - ",
"- & + X @ $ @ + @ @ + @ @ $ $ @ $ & & = = & & = = @ + X O @ = - - , : & = - : , ",
"& $ + X @ & $ @ $ @ + + + @ X X X $ = = = & = - - & @ + + = : : : : - & = : : - ",
"@ @ X X + # $ @ @ @ + $ = & $ $ $ & = & & * = - = = & $ @ = ; - - = = & = - = & ",
"+ + . X + @ $ $ $ @ + & - ; - = & # @ $ & & & & = - & @ + $ & & & $ $ @ $ & $ @ ",
"X .   . + $ $ $ $ $ @ @ = = & & $ + + + @ $ @ @ $ $ @ X X + @ @ @ $ @ + + + X X ",
".   . X + $ $ & = & $ @ @ @ @ @ + X X X X X O O + X . . . . X X X @ @ O . . . . ",
"  . X X O @ $ $ $ $ # $ + X + @ @ + X X X + + X . . X X X . .     . X .     X X ",
". . X X X + @ + + @ $ $ + X X @ $ @ + X + + + X . X + + X X . . . .         X X ",
"X X . X X X X X X + @ @ + X X X + X X X X X X X X X X O X X X X . X O X . X X X ",
"X X .       . . . . X X . . X . . . . . X X X + X .   . X X X X . X + + X O X X ",
". .         X X X X X . . . X X X . . . . . . X X     . X X .     . X O O X X X "
};
