/* XPM */
static char *a78vw_ji9ej[] = {
/* columns rows colors chars-per-pixel */
"65 65 67 1 ",
"  c #160900",
". c #160901",
"X c #160A01",
"o c #170A01",
"O c #180A01",
"+ c #180B01",
"@ c #180B02",
"# c #190B02",
"$ c #1A0B02",
"% c #190C02",
"& c #1A0C02",
"* c #1A0C03",
"= c #1B0C03",
"- c #1B0D03",
"; c #1C0D03",
": c #1C0D04",
"> c #1D0D04",
", c #1D0E04",
"< c #1E0E04",
"1 c #1E0F04",
"2 c #1F0F04",
"3 c #1E0E05",
"4 c #1F0E05",
"5 c #1F0F05",
"6 c #200F05",
"7 c #200F06",
"8 c #201005",
"9 c #211005",
"0 c #211105",
"q c #221105",
"w c #211006",
"e c #221006",
"r c #221106",
"t c #231106",
"y c #221007",
"u c #221107",
"i c #231107",
"p c #231206",
"a c #241107",
"s c #241207",
"d c #251207",
"f c #251307",
"g c #261307",
"h c #241208",
"j c #251208",
"k c #251308",
"l c #261308",
"z c #271308",
"x c #261408",
"c c #271408",
"v c #271409",
"b c #281408",
"n c #281508",
"m c #281409",
"M c #281509",
"N c #291509",
"B c #2A1509",
"V c #2A1609",
"C c #2B1609",
"Z c #2A160A",
"A c #2B160A",
"S c #2B170A",
"D c #2C170A",
"F c #2D170A",
"G c #2D180A",
"H c #2D180B",
"J c #2E180B",
/* pixels */
"XXXXXXXXXXXXXXXXXXXXXXXXXXXXXXXXXXXXXXXXXXXXXXXXXXXXXXXXXXXXXXXXX",
"&&$&&;;;;;;;;&&&$$&$$X&;;;;;;;;;;;;;;;;;;;;;;;;;;;;;;;;;;;;;;;&$X",
"665wazzzxzzzxaw65565&$6axzxxaaaaxxzzxxaaaaaaxxzzxxaazzaaaaxxxxw&X",
"wazzVFFFFFFFFVVzzzzw;&wFGFFFFFFFFFFFFFFFFFFFFFFFFFFFFFFFFFFFGGx;X",
"wzVVFFFFFFFFFFVVVVVx5&wFGFFFFFFFFFFFFFFFFFFFFFFFFFFFFFFFFFFFGGx;X",
"wzVFFFFFFFFFFFFFFFGV5&wVFFFFFFFFFFFFFFFFFFFFFFFFFFFFFFFFFFFFFVa&X",
"wzVFFFFFFFFFFFFFFFGV5&wVFFFFFFFFFFFFFFFFFFFFFFFFFFFFFFFFFFFFVxw&X",
"wzVVVVVVVVVFFFFFFFGV5&wFGFFFFFFFFFFFFFFFFFFFFFFFFFFVVVVVVVVVVz6&X",
"wazzzzzzzxVFGFFFFGGV5&wFGFFFFFFFFFFFFFFFFFFFFFFFGFVxzzzzzzzzza6&X",
"wwwwwwww6wzVVVVVVVVz5$wVVVVVVVVVVVVVVVVVVVVVVVVVVVawwwwwwwwwww5$X",
"&&&&&&&&&&5555555555$$&55555555555555555;;;;555;55;&&&&&&&&&&&$XX",
"XXXXXXXXXXXXXXXXXXXXXXXXXXXXXX$$$$$$$$$$$$$&&&&&&&&&&&&&&&&$$$$$$",
"XXXXXXXXXXXXXXXXXXXXXXXXXXXXXX&55555555555wwaaaaaaaaaaaaaaaw55555",
"XXXXXXXXXXXXXXXXXXXXXXXXXXXXX$5aaaaaaaaaaaxVFFFFFFFFFFFFFFVzwwwww",
"XXXXXXXXXXXXXXXXXXXXXXXXXXXXX$wVVVVVVVVVVVVFFFFFFFFFFFFFFVzzwwwww",
"XXXXXXXXXXXXXXXXXXXXXXXXXXXXX$wVFVVFFFFFFFFFFFFFFFFFFFFVVzwwwwwww",
"XXXXXXXXXXXXXXXXXXXXXXXXXXXXX$wVGFFFFFFFFFFFFFFFFFFFFFVVzwwwwawww",
"XXXXXXXXXXXXXXXXXXXXXXXXXXXXX$wVFFFFFFFFFFFFFFFFFFVVVVVzwwwwaaaaw",
"XXXXXXXXXXXXXXXXXXXXXXXXXXXXX$5zVFGFFFGFFFFFFFGGGFVVxxzawwawazaaw",
"XXXXXXXXXXXXXXXXXXXXXXXXXXXXX$5wzVVVVVVVVVVVVVVVVVxwwwwwwwwwwwwww",
"XXXXXXXXXXXXXXXXXXXXXXXXXXXXXX$&5555555555555555555;;;;;;&&&;;;;;",
"$$$$$$$$$$$$$$$$&$$$&&&&&&&$$$$$$&$$&&&&&&&$&$$$XXXXXXXX$$$$$$$$X",
"555555$$&55555wwaawwwwaawwwwwwwwwwwwwwwwwwwwww5$XXXXXXXX$55555;$X",
"wwwww6&$5aawwaVVFFVVFFFFVVFFFFVVVVVVFFFVVVVVVVw$XXXXXXXX&6wwww6&$",
"wwwwaw&&wVVVVVVFGGFFFFFFFFFFFFFFFGGGGGGGVVxVVVw$XXXXXXXX$&5wzaw55",
"wwwwa6&&aFFFFFFFFFFFFFFFFFFFFFFFFVVVVVFVVawwaw5$XXXXXXXXXX&6wwwww",
"aawwaw&&aFGFFFFFFFFFFFFFFFFFFFFFVxxxxxxxzwwwww5$XXXXXXXXXX$&5wwaz",
"awwwa6&&aFFFFFFFFFFFFFFFFFFFFFFVVaaaaaaaaawwaw5$XXXXXXXXXXX$;wwww",
"zzwww6&&aGGGGFFFFFFFFFFFFFFFFFGFVVVVVVVVVVVVxa5$XXXXXXXXXX$56ww55",
"wwwww6&&aVVVVVVVVVVVVVVVVVVVVVVVVVVVVVVVVVVVxw5$XXXXXXXXXX&5ww6&X",
"55555&$$5wwwwwwwwwwwwwwwwwwwwwwwwwwwwwwwwwww65&$XXXXXXXXXX$555&$X",
"$$$$XXXX$$$$$$$$$$$$$$$$$$$$$$$$$$$$$$$$$$$$$$$XXXXXXXXXXXX$$$$XX",
"XXXXXXXXXXXXXXXXXXXXXXXXXXXXXXXXXXXXXXXXXXXXXXXXXXXXXXXXXXXXXXXXX",
"XXXXXXXXXXXXXXXXXXXXXXXXXXXXXXXXXXXXXX$$$$$$$$$$$$$$$$$$$$$$$$$$$",
"XXXXXXXXXXXXXXXXXXXXXXXXXXXXXXXXXXXXXX;wwwwwwwwwwwwwwwwwwwwwwww55",
"XXXXXXXXXXXXXXXXXXXXXXXXXXXXXXXXXXXXX$wVVVVVVVVVVVVVVVVVVVVVVVVaw",
"XXXXXXXXXXXXXXXXXXXXXXXXXXXXXXXXXXXXX$wVGFFFFGGGFFFFFFFFFGGGVVxaw",
"XXXXXXXXXXXXXXXXXXXXXXXXXXXXXXXXXXXXX$wVFFFFFFFFFFFFFFFFFFFFVzwww",
"XXXXXXXXXXXXXXXXXXXXXXXXXXXXXXXXXXXXX$wVFFFFFFFFFFFFFFFFFFFFVzwww",
"XXXXXXXXXXXXXXXXXXXXXXXXXXXXXXXXXXXXX$wVFFFFFFFFFFFFFFFFFFFFVzwww",
"XXXXXXXXXXXXXXXXXXXXXXXXXXXXXXXXXX&5$$wVGFFFFFFGGGFFGGGGVVVVxawwa",
"XXXXXXXXXXXXXXXXXXXXXXXXXXXXXXXXX$5w5$6VFVVVVVVFFFFVFFFFVzwwwwwww",
"XXXXXXXXXXXXXXXXXXXXXXXXXXXXXXXXXX&5&X&wwwwwwwwwwwwwwwwww55555555",
"$$$$X$XXXXX$XXXX$$$$$$$XXXXX$$$$X$$$$X$$&&&&&&&&&&&&&&&&$$$$$$$$$",
"5555;;;;5555;&$$;55565555555555555555555555555555&&&&&&&&&&&;&&$X",
"wwwwwwwwwwwww6&&wVVVVVVVVVVVVVVVVVVVVVVVVVVVVVVVxwwwwwwwwwwwww5$X",
"aaaaaaaaaawaaw&&aFGFFFFFFFFFFFFFFFFFFFFFGGGGFFGFVVzxxxxxxxxxxxw&X",
"wwwwwwwwwwwwww&&aFFFFFFFFFFFFFFFFFFFFFFFFFFFFFFFFVVVVVVVVVVVVVa&X",
"wwwwwwwaaawwww&&aFFFFFFFFFFFFFFFFFFFFFFFFFFFFFFFFFFFFFFFFFFFFFx;X",
"wwwwwwwwaawwww&&aFFFFFFFFFFFFFFFFFFFFFFFFFFFFFFFFFFFFFFFFFFFFFa;X",
"zawwwwwwzzaazw&&wVVVVVVVVVVVVFFFFFFFFFFGFFFFFFFFFFFFFFFFFFFFGGx;X",
"aaawwwwwaaaaaw&$5azzaaaaaaazVFFFFFFFFFFFFFFFFFFFFFFFFFFFFFFFFFa;X",
"66555555555555$$&55555555555waaaaaaaaaaaaaaaaaaaaaaaaaaaaaaaaaw&X",
"$$$$$$$$$$$$$$$X$$$$$$$$$$$$&&&&&&&&&&&&&&&&&&&&&&&&&&&&&&&&&&&$X",
"X$&&&&&&&&&&&&&&&&&&&&&&$XXXXXXXXXXXXX$&&&&&&&&&$XXXXXXXXXXXXXXXX",
"X&5wwwwwwwwwwwwwwwwwwww6&XXXXXXXXXXXXX&6wwwwwwww5$XXXXXXXXXXXXXXX",
"X$6azaaawwazzzzazzzzzzaw5$XXXXXXXXXXX$&5666666665$XXXXXXXXXXXXXXX",
"X$6wzaawwwaaaaaaaaaaaaww5$XXXXXXXXXXXX$$&&&&&&$$$$XXXXXXXXXXXXXXX",
"X&6waawwwwwwwwwwwwwwwwww5XXXXXXXXXXXXXXXXXXXXXXXXXXXXXXXXXXXXXXXX",
"X&6aaawwwwwwwwwwwwwwwwww5XXXXXXXXXXXXXXXXXXXXXXXXXXXXXXXXXXXXXXXX",
"X&6wawwwwwwwwwwawwwwwwaw5$$&&&$XXXXXXXXXXXXXXXXXXXXXXX$&&$XXXXXXX",
"X&6aaawwwwwwwwaaaawwwwaw;$&6w6;$XXXXXXXXXXXXXXXXXXXXXX&55$XXXXXXX",
"X$56w666666666w666666665&$&5w6;$XXXXXXXXXXXXXXXXXXXXXX&55$XXXXXXX",
"X$$&&&&&&&&&&&&&&&&&&&&$$X$$&&$XXXXXXXXXXXXXXXXXXXXXXX$&$$XXXXXXX",
"XXXXXXXXXXXXXXXXXXXXXXXXXXXXXXXXXXXXXXXXXXXXXXXXXXXXXXXXXXXXXXXXX"
};
